M48
;DRILL file {KiCad (5.0.0)} date 08/08/19 11:35:57
;FORMAT={-:-/ absolute / inch / decimal}
FMAT,2
INCH,TZ
T1C0.0157
T2C0.0300
T3C0.0315
T4C0.0394
T5C0.0400
T6C0.0598
T7C0.0709
%
G90
G05
M72
T1
X1.4567Y-2.5197
X1.4567Y-2.5591
X1.4567Y-2.5984
X1.4567Y-2.6378
X1.4961Y-2.5197
X1.4961Y-2.5591
X1.4961Y-2.5984
X1.4961Y-2.6378
X1.7717Y-2.5197
X1.7717Y-2.5591
X1.7717Y-2.5984
X1.7717Y-2.6378
X1.811Y-2.5197
X1.811Y-2.5591
X1.811Y-2.5984
X1.811Y-2.6378
X2.1555Y-4.2913
X2.1654Y-3.9173
X2.1654Y-4.1535
X2.1949Y-4.2913
X2.2441Y-2.9528
X2.2835Y-2.9528
X2.4114Y-3.2972
X2.4803Y-2.5984
X2.4803Y-2.6378
X2.4803Y-2.9528
X2.5197Y-2.5984
X2.5197Y-2.6378
X2.5197Y-2.9528
X2.5591Y-2.5984
X2.5591Y-2.6378
X2.5591Y-2.9528
X2.5591Y-2.9921
X2.5984Y-2.5984
X2.5984Y-2.6378
X2.5984Y-2.9528
X2.5984Y-2.9921
X2.6378Y-2.5984
X2.6378Y-2.6378
X2.6378Y-2.9528
X2.6378Y-2.9921
X2.6378Y-3.3268
X2.7067Y-3.6024
X2.8346Y-2.2047
X2.8524Y-2.1438
X2.9134Y-2.185
X2.9429Y-2.9528
X3.0315Y-1.0236
X3.0315Y-1.063
X3.0315Y-2.9528
X3.0315Y-4.252
X3.0315Y-4.2913
X3.0315Y-4.3307
X3.0315Y-4.3701
X3.0315Y-4.4094
X3.0315Y-4.4488
X3.0315Y-4.4882
X3.0315Y-4.5276
X3.0709Y-1.0236
X3.0709Y-1.063
X3.0709Y-4.252
X3.0709Y-4.2913
X3.0709Y-4.3307
X3.0709Y-4.3701
X3.0709Y-4.4094
X3.0709Y-4.4488
X3.0709Y-4.4882
X3.0709Y-4.5276
X3.1102Y-1.0236
X3.1102Y-1.063
X3.1201Y-3.2874
X3.1201Y-3.5925
X3.1398Y-2.9626
X3.1496Y-3.2579
X3.1496Y-3.622
X3.1791Y-3.2874
X3.1791Y-3.5925
X3.2087Y-3.2579
X3.2087Y-3.622
X3.2283Y-1.4961
X3.2382Y-3.2874
X3.2382Y-3.5925
X3.2677Y-3.622
X3.2972Y-3.5925
X3.2972Y-4.0846
X3.3169Y-2.4213
X3.3268Y-3.622
X3.3465Y-3.189
X3.3858Y-1.1811
X3.3858Y-1.2205
X3.3858Y-3.189
X3.3858Y-3.2283
X3.4252Y-1.1811
X3.4252Y-1.2205
X3.4646Y-1.1811
X3.4646Y-1.2205
X3.5039Y-2.4213
X3.5039Y-3.2283
X3.5236Y-2.6083
X3.5236Y-2.9626
X3.5433Y-3.2283
X3.5827Y-3.2283
X3.7106Y-2.4213
X3.7106Y-2.5492
X3.7205Y-1.3681
X3.7205Y-3.5925
X3.7697Y-2.5492
X3.7795Y-2.9528
X3.8189Y-2.9528
X3.8583Y-2.9528
X3.8976Y-2.9528
X3.9764Y-1.378
X3.9764Y-1.5748
X3.9961Y-3.3169
X3.9961Y-4.2913
X3.9961Y-4.5472
X4.0157Y-1.378
X4.0157Y-1.5748
X4.0551Y-1.378
X4.0551Y-1.4764
X4.0551Y-1.5748
X4.0945Y-1.378
X4.0945Y-1.5748
X4.1142Y-4.2913
X4.1142Y-4.5472
X4.2126Y-1.4173
X4.2323Y-1.378
X4.3307Y-2.5984
X4.3307Y-2.6378
X4.3307Y-2.6772
X4.3307Y-2.7165
X4.3504Y-1.4173
X4.3504Y-1.4665
X4.3701Y-1.9291
X4.3701Y-1.9685
X4.3701Y-2.0079
X4.3701Y-2.0472
X4.3701Y-2.0866
X4.3701Y-2.126
X4.3701Y-2.5984
X4.3701Y-2.6378
X4.3701Y-2.6772
X4.3701Y-2.7165
X4.3701Y-3.1102
X4.3701Y-4.1732
X4.4094Y-3.1102
X4.4488Y-3.1102
X4.4488Y-4.252
X4.4488Y-4.2913
X4.4488Y-4.3307
X4.4882Y-3.1102
X4.4882Y-4.252
X4.4882Y-4.2913
X4.4882Y-4.3307
T2
X0.9055Y-3.8583
X0.9055Y-3.9583
X0.9055Y-4.0583
X0.9055Y-4.1583
X1.0055Y-3.8583
X1.0055Y-3.9583
X1.0055Y-4.0583
X1.0055Y-4.1583
T3
X1.8016Y-1.9291
X1.8016Y-2.2291
X1.9016Y-1.9291
X1.9016Y-2.2291
X2.0016Y-1.9291
X2.0016Y-2.2291
X2.1016Y-1.9291
X2.1016Y-2.2291
X2.2016Y-1.9291
X2.2016Y-2.2291
X2.3016Y-1.9291
X2.3016Y-2.2291
X2.4016Y-1.9291
X2.4016Y-2.2291
T4
X2.7677Y-1.1811
X2.8677Y-1.1811
X2.9677Y-1.1811
X3.0677Y-1.1811
X3.1677Y-1.1811
X3.2677Y-1.1811
X3.3307Y-3.0921
X3.3307Y-3.8921
X3.4307Y-3.0921
X3.4307Y-3.8921
X3.5307Y-3.0921
X3.5307Y-3.8921
X3.6307Y-3.0921
X3.6307Y-3.8921
X3.7307Y-3.0921
X3.7307Y-3.8921
X3.8307Y-3.0921
X3.8307Y-3.8921
X3.9307Y-3.0921
X3.9307Y-3.8921
X4.0307Y-3.0921
X4.0307Y-3.8921
X1.6929Y-1.1811
X1.7929Y-1.1811
X1.8929Y-1.1811
X2.7953Y-3.1102
X2.7953Y-3.2102
X2.7953Y-3.3102
X2.8953Y-3.1102
X2.8953Y-3.2102
X2.8953Y-3.3102
X4.4882Y-3.2283
X4.4882Y-3.3283
X4.4882Y-3.4283
X4.4882Y-3.5283
X4.4882Y-3.6283
X4.4882Y-3.7283
X4.4882Y-3.8283
X4.4882Y-3.9283
X4.5882Y-3.2283
X4.5882Y-3.3283
X4.5882Y-3.4283
X4.5882Y-3.5283
X4.5882Y-3.6283
X4.5882Y-3.7283
X4.5882Y-3.8283
X4.5882Y-3.9283
X2.1654Y-4.4094
X2.1654Y-4.5094
X2.7165Y-4.252
X2.7165Y-4.5079
X2.8937Y-4.252
X2.8937Y-4.5079
X2.3425Y-4.252
X2.3425Y-4.5079
X2.5197Y-4.252
X2.5197Y-4.5079
X2.2047Y-1.1811
X2.3047Y-1.1811
X2.4047Y-1.1811
X3.5583Y-2.2835
X3.6583Y-2.2835
X3.7583Y-2.2835
X3.8583Y-2.2835
X3.9583Y-2.2835
X4.0583Y-2.2835
X3.5795Y-1.1811
X3.6795Y-1.1811
X3.7795Y-1.1811
X3.8795Y-1.1811
X3.9795Y-1.1811
X4.0795Y-1.1811
T5
X1.0555Y-3.0858
X1.0555Y-3.6858
X1.1555Y-3.0858
X1.1555Y-3.6858
X1.2555Y-3.0858
X1.2555Y-3.6858
X1.3555Y-3.0858
X1.3555Y-3.6858
X1.4555Y-3.0858
X1.4555Y-3.6858
X1.5555Y-3.0858
X1.5555Y-3.6858
X1.6555Y-3.0858
X1.6555Y-3.6858
X1.7555Y-3.0858
X1.7555Y-3.6858
X1.8555Y-3.0858
X1.8555Y-3.6858
X1.9555Y-3.0858
X1.9555Y-3.6858
X2.0555Y-3.0858
X2.0555Y-3.6858
X2.1555Y-3.0858
X2.1555Y-3.6858
X2.2555Y-3.0858
X2.2555Y-3.6858
X2.3555Y-3.0858
X2.3555Y-3.6858
X2.4555Y-3.0858
X2.4555Y-3.6858
X1.5274Y-0.9134
X1.6274Y-0.9134
X1.7274Y-0.9134
X1.8274Y-0.9134
X1.8874Y-2.8134
X1.9274Y-0.9134
X1.9874Y-2.8134
X2.0274Y-0.9134
X2.0874Y-2.8134
X2.1274Y-0.9134
X2.1874Y-2.8134
X2.2274Y-0.9134
X2.2874Y-2.8134
X2.3274Y-0.9134
X2.3874Y-2.8134
X2.4274Y-0.9134
X2.4874Y-2.8134
X2.5874Y-0.9134
X2.5874Y-2.8134
X2.6874Y-0.9134
X2.7874Y-0.9134
X2.7874Y-2.8134
X2.8874Y-0.9134
X2.8874Y-2.8134
X2.9874Y-0.9134
X2.9874Y-2.8134
X3.0874Y-0.9134
X3.0874Y-2.8134
X3.1874Y-0.9134
X3.1874Y-2.8134
X3.2874Y-0.9134
X3.2874Y-2.8134
X3.2924Y-1.7134
X3.2924Y-1.8134
X3.2924Y-1.9134
X3.3874Y-2.8134
X3.3924Y-1.7134
X3.3924Y-1.8134
X3.3924Y-1.9134
X3.4874Y-0.9134
X3.4874Y-2.8134
X3.5874Y-0.9134
X3.6874Y-0.9134
X3.6874Y-2.8134
X3.7874Y-0.9134
X3.7874Y-2.8134
X3.8874Y-0.9134
X3.8874Y-2.8134
X3.9874Y-0.9134
X3.9874Y-2.8134
X4.0874Y-0.9134
X4.0874Y-2.8134
X4.1874Y-0.9134
X4.1874Y-2.8134
X4.2874Y-2.8134
X4.3874Y-2.8134
X4.4874Y-0.9134
X4.4874Y-1.0134
X4.4874Y-1.1134
X4.4874Y-1.2134
X4.4874Y-1.3134
X4.4874Y-1.4134
X4.4874Y-1.5134
X4.4874Y-1.6134
X4.4874Y-1.7134
X4.4874Y-1.8134
X4.4874Y-1.9134
X4.4874Y-2.0134
X4.4874Y-2.1134
X4.4874Y-2.2134
X4.4874Y-2.3134
X4.4874Y-2.4134
X4.4874Y-2.5134
X4.4874Y-2.6134
X4.5874Y-0.9134
X4.5874Y-1.0134
X4.5874Y-1.1134
X4.5874Y-1.2134
X4.5874Y-1.3134
X4.5874Y-1.4134
X4.5874Y-1.5134
X4.5874Y-1.6134
X4.5874Y-1.7134
X4.5874Y-1.8134
X4.5874Y-1.9134
X4.5874Y-2.0134
X4.5874Y-2.1134
X4.5874Y-2.2134
X4.5874Y-2.3134
X4.5874Y-2.4134
X4.5874Y-2.5134
X4.5874Y-2.6134
T6
X0.9843Y-1.9654
X0.9843Y-2.1654
T7
X2.4134Y-3.9882G85X2.4134Y-3.9646
G05
X2.5984Y-3.9882G85X2.5984Y-3.9646
G05
X2.7835Y-3.9882G85X2.7835Y-3.9646
G05
T0
M30
