G04 #@! TF.GenerationSoftware,KiCad,Pcbnew,(5.0.0)*
G04 #@! TF.CreationDate,2019-08-08T11:35:40+10:00*
G04 #@! TF.ProjectId,couchmobile-electrical,636F7563686D6F62696C652D656C6563,rev?*
G04 #@! TF.SameCoordinates,Original*
G04 #@! TF.FileFunction,Copper,L2,Bot,Signal*
G04 #@! TF.FilePolarity,Positive*
%FSLAX46Y46*%
G04 Gerber Fmt 4.6, Leading zero omitted, Abs format (unit mm)*
G04 Created by KiCad (PCBNEW (5.0.0)) date 08/08/19 11:35:40*
%MOMM*%
%LPD*%
G01*
G04 APERTURE LIST*
G04 #@! TA.AperFunction,ComponentPad*
%ADD10C,1.700000*%
G04 #@! TD*
G04 #@! TA.AperFunction,ComponentPad*
%ADD11R,3.000000X3.000000*%
G04 #@! TD*
G04 #@! TA.AperFunction,ComponentPad*
%ADD12C,3.000000*%
G04 #@! TD*
G04 #@! TA.AperFunction,ComponentPad*
%ADD13R,1.700000X1.700000*%
G04 #@! TD*
G04 #@! TA.AperFunction,ComponentPad*
%ADD14O,1.700000X1.700000*%
G04 #@! TD*
G04 #@! TA.AperFunction,ComponentPad*
%ADD15O,3.000000X4.000000*%
G04 #@! TD*
G04 #@! TA.AperFunction,ComponentPad*
%ADD16R,1.524000X1.524000*%
G04 #@! TD*
G04 #@! TA.AperFunction,ComponentPad*
%ADD17C,1.524000*%
G04 #@! TD*
G04 #@! TA.AperFunction,ComponentPad*
%ADD18R,1.600000X1.600000*%
G04 #@! TD*
G04 #@! TA.AperFunction,ComponentPad*
%ADD19O,1.600000X1.600000*%
G04 #@! TD*
G04 #@! TA.AperFunction,ComponentPad*
%ADD20C,1.727200*%
G04 #@! TD*
G04 #@! TA.AperFunction,ComponentPad*
%ADD21R,1.727200X1.727200*%
G04 #@! TD*
G04 #@! TA.AperFunction,ComponentPad*
%ADD22O,1.727200X1.727200*%
G04 #@! TD*
G04 #@! TA.AperFunction,ViaPad*
%ADD23C,0.800000*%
G04 #@! TD*
G04 #@! TA.AperFunction,Conductor*
%ADD24C,1.000000*%
G04 #@! TD*
G04 #@! TA.AperFunction,Conductor*
%ADD25C,0.250000*%
G04 #@! TD*
G04 #@! TA.AperFunction,Conductor*
%ADD26C,0.500000*%
G04 #@! TD*
G04 #@! TA.AperFunction,Conductor*
%ADD27C,0.254000*%
G04 #@! TD*
G04 APERTURE END LIST*
D10*
G04 #@! TO.P,U2,0*
G04 #@! TO.N,Net-(J6-Pad4)*
X102380000Y-78540000D03*
G04 #@! TO.P,U2,1*
G04 #@! TO.N,Net-(J6-Pad3)*
X99840000Y-78540000D03*
G04 #@! TO.P,U2,2*
G04 #@! TO.N,GND*
X97300000Y-78540000D03*
G04 #@! TO.P,U2,3*
G04 #@! TO.N,+3V3*
X94760000Y-78540000D03*
G04 #@! TO.P,U2,4*
G04 #@! TO.N,/SDA_3V3*
X92220000Y-78540000D03*
G04 #@! TO.P,U2,5*
G04 #@! TO.N,/SCL_3V3*
X89680000Y-78540000D03*
G04 #@! TO.P,U2,6*
G04 #@! TO.N,/IMU_RESET*
X87140000Y-78540000D03*
G04 #@! TO.P,U2,7*
G04 #@! TO.N,N/C*
X84600000Y-78540000D03*
G04 #@! TO.P,U2,8*
G04 #@! TO.N,GND*
X102380000Y-98860000D03*
G04 #@! TO.P,U2,9*
G04 #@! TO.N,+3V3*
X99840000Y-98860000D03*
G04 #@! TO.P,U2,12*
G04 #@! TO.N,/MOSI*
X92220000Y-98860000D03*
G04 #@! TO.P,U2,10*
G04 #@! TO.N,/SCK*
X97300000Y-98860000D03*
G04 #@! TO.P,U2,15*
G04 #@! TO.N,/IMU_RESET*
X84600000Y-98860000D03*
G04 #@! TO.P,U2,11*
G04 #@! TO.N,/MISO*
X94760000Y-98860000D03*
G04 #@! TO.P,U2,14*
G04 #@! TO.N,/IMU_WAKE*
X87140000Y-98860000D03*
G04 #@! TO.P,U2,13*
G04 #@! TO.N,/IMU_CS*
X89680000Y-98860000D03*
G04 #@! TD*
D11*
G04 #@! TO.P,J1,1*
G04 #@! TO.N,Net-(J1-Pad1)*
X25000000Y-55000000D03*
D12*
G04 #@! TO.P,J1,2*
G04 #@! TO.N,GND*
X25000000Y-49920000D03*
G04 #@! TD*
D13*
G04 #@! TO.P,J2,1*
G04 #@! TO.N,+5V*
X114000000Y-82000000D03*
D14*
G04 #@! TO.P,J2,2*
G04 #@! TO.N,GND*
X116540000Y-82000000D03*
G04 #@! TO.P,J2,3*
G04 #@! TO.N,/NANO_A7*
X114000000Y-84540000D03*
G04 #@! TO.P,J2,4*
G04 #@! TO.N,/NANO_A6*
X116540000Y-84540000D03*
G04 #@! TO.P,J2,5*
G04 #@! TO.N,/NANO_A5*
X114000000Y-87080000D03*
G04 #@! TO.P,J2,6*
G04 #@! TO.N,/NANO_A4*
X116540000Y-87080000D03*
G04 #@! TO.P,J2,7*
G04 #@! TO.N,/NANO_A3*
X114000000Y-89620000D03*
G04 #@! TO.P,J2,8*
G04 #@! TO.N,/NANO_A2*
X116540000Y-89620000D03*
G04 #@! TO.P,J2,9*
G04 #@! TO.N,/NANO_A1*
X114000000Y-92160000D03*
G04 #@! TO.P,J2,10*
G04 #@! TO.N,/NANO_D8*
X116540000Y-92160000D03*
G04 #@! TO.P,J2,11*
G04 #@! TO.N,/ESTOP_ON*
X114000000Y-94700000D03*
G04 #@! TO.P,J2,12*
G04 #@! TO.N,/ESTOP_HS*
X116540000Y-94700000D03*
G04 #@! TO.P,J2,13*
G04 #@! TO.N,/NANO_RX*
X114000000Y-97240000D03*
G04 #@! TO.P,J2,14*
G04 #@! TO.N,/NANO_TX*
X116540000Y-97240000D03*
G04 #@! TO.P,J2,15*
G04 #@! TO.N,+3V3*
X114000000Y-99780000D03*
G04 #@! TO.P,J2,16*
G04 #@! TO.N,GND*
X116540000Y-99780000D03*
G04 #@! TD*
D13*
G04 #@! TO.P,J5,1*
G04 #@! TO.N,/ESTOP_IRQ*
X55000000Y-114540000D03*
D14*
G04 #@! TO.P,J5,2*
G04 #@! TO.N,/NANO_INT0*
X55000000Y-112000000D03*
G04 #@! TD*
D13*
G04 #@! TO.P,J6,1*
G04 #@! TO.N,+3V3*
X71000000Y-79000000D03*
D14*
G04 #@! TO.P,J6,2*
X73540000Y-79000000D03*
G04 #@! TO.P,J6,3*
G04 #@! TO.N,Net-(J6-Pad3)*
X71000000Y-81540000D03*
G04 #@! TO.P,J6,4*
G04 #@! TO.N,Net-(J6-Pad4)*
X73540000Y-81540000D03*
G04 #@! TO.P,J6,5*
G04 #@! TO.N,GND*
X71000000Y-84080000D03*
G04 #@! TO.P,J6,6*
X73540000Y-84080000D03*
G04 #@! TD*
D13*
G04 #@! TO.P,J7,1*
G04 #@! TO.N,GND*
X103080000Y-58000000D03*
D14*
G04 #@! TO.P,J7,2*
G04 #@! TO.N,+5V*
X100540000Y-58000000D03*
G04 #@! TO.P,J7,3*
G04 #@! TO.N,/JOYSTICK_X*
X98000000Y-58000000D03*
G04 #@! TO.P,J7,4*
G04 #@! TO.N,/JOYSTICK_Y*
X95460000Y-58000000D03*
G04 #@! TO.P,J7,5*
G04 #@! TO.N,/JOYSTICK_SW*
X92920000Y-58000000D03*
G04 #@! TO.P,J7,6*
G04 #@! TO.N,N/C*
X90380000Y-58000000D03*
G04 #@! TD*
D13*
G04 #@! TO.P,J8,1*
G04 #@! TO.N,GND*
X103620000Y-30000000D03*
D14*
G04 #@! TO.P,J8,2*
G04 #@! TO.N,+5V*
X101080000Y-30000000D03*
G04 #@! TO.P,J8,3*
G04 #@! TO.N,/EN1_1*
X98540000Y-30000000D03*
G04 #@! TO.P,J8,4*
G04 #@! TO.N,/EN1_2*
X96000000Y-30000000D03*
G04 #@! TO.P,J8,5*
G04 #@! TO.N,/EN1_3*
X93460000Y-30000000D03*
G04 #@! TO.P,J8,6*
G04 #@! TO.N,GND*
X90920000Y-30000000D03*
G04 #@! TD*
G04 #@! TO.P,J9,6*
G04 #@! TO.N,GND*
X70300000Y-30000000D03*
G04 #@! TO.P,J9,5*
G04 #@! TO.N,/EN2_3*
X72840000Y-30000000D03*
G04 #@! TO.P,J9,4*
G04 #@! TO.N,/EN2_2*
X75380000Y-30000000D03*
G04 #@! TO.P,J9,3*
G04 #@! TO.N,/EN2_1*
X77920000Y-30000000D03*
G04 #@! TO.P,J9,2*
G04 #@! TO.N,+5V*
X80460000Y-30000000D03*
D13*
G04 #@! TO.P,J9,1*
G04 #@! TO.N,GND*
X83000000Y-30000000D03*
G04 #@! TD*
D14*
G04 #@! TO.P,J10,3*
G04 #@! TO.N,/M1_OUT*
X61080000Y-30000000D03*
G04 #@! TO.P,J10,2*
G04 #@! TO.N,+5V*
X58540000Y-30000000D03*
D13*
G04 #@! TO.P,J10,1*
G04 #@! TO.N,GND*
X56000000Y-30000000D03*
G04 #@! TD*
G04 #@! TO.P,J11,1*
G04 #@! TO.N,GND*
X43000000Y-30000000D03*
D14*
G04 #@! TO.P,J11,2*
G04 #@! TO.N,+5V*
X45540000Y-30000000D03*
G04 #@! TO.P,J11,3*
G04 #@! TO.N,/M2_OUT*
X48080000Y-30000000D03*
G04 #@! TD*
D10*
G04 #@! TO.P,SW1,4*
G04 #@! TO.N,/MEGA_SW1*
X59500000Y-114500000D03*
G04 #@! TO.P,SW1,3*
G04 #@! TO.N,+5V*
X59500000Y-108000000D03*
G04 #@! TO.P,SW1,2*
G04 #@! TO.N,/NANO_SW1*
X64000000Y-114500000D03*
G04 #@! TO.P,SW1,1*
G04 #@! TO.N,+5V*
X64000000Y-108000000D03*
G04 #@! TD*
G04 #@! TO.P,SW2,1*
G04 #@! TO.N,GND*
X73500000Y-108000000D03*
G04 #@! TO.P,SW2,2*
G04 #@! TO.N,/NANO_RESET*
X73500000Y-114500000D03*
G04 #@! TO.P,SW2,3*
G04 #@! TO.N,GND*
X69000000Y-108000000D03*
G04 #@! TO.P,SW2,4*
G04 #@! TO.N,/MEGA_RESET*
X69000000Y-114500000D03*
G04 #@! TD*
D15*
G04 #@! TO.P,SW3,2*
G04 #@! TO.N,/MEGA_SW2*
X66000000Y-101000000D03*
G04 #@! TO.P,SW3,1*
G04 #@! TO.N,GND*
X70700000Y-101000000D03*
G04 #@! TO.P,SW3,3*
G04 #@! TO.N,+5V*
X61300000Y-101000000D03*
G04 #@! TD*
D16*
G04 #@! TO.P,U1,1*
G04 #@! TO.N,GND*
X23000000Y-98000000D03*
D17*
G04 #@! TO.P,U1,2*
G04 #@! TO.N,+3V3*
X25540000Y-98000000D03*
G04 #@! TO.P,U1,3*
G04 #@! TO.N,/ESTOP_CE*
X23000000Y-100540000D03*
G04 #@! TO.P,U1,4*
G04 #@! TO.N,/ESTOP_CSN*
X25540000Y-100540000D03*
G04 #@! TO.P,U1,5*
G04 #@! TO.N,/ESTOP_SCK*
X23000000Y-103080000D03*
G04 #@! TO.P,U1,6*
G04 #@! TO.N,/ESTOP_MOSI*
X25540000Y-103080000D03*
G04 #@! TO.P,U1,7*
G04 #@! TO.N,/ESTOP_MISO*
X23000000Y-105620000D03*
G04 #@! TO.P,U1,8*
G04 #@! TO.N,/ESTOP_IRQ*
X25540000Y-105620000D03*
G04 #@! TD*
D18*
G04 #@! TO.P,U3,1*
G04 #@! TO.N,/PWM_M1*
X61000000Y-49000000D03*
D19*
G04 #@! TO.P,U3,8*
G04 #@! TO.N,N/C*
X45760000Y-56620000D03*
G04 #@! TO.P,U3,2*
G04 #@! TO.N,/ESTOP_TRAN*
X58460000Y-49000000D03*
G04 #@! TO.P,U3,9*
G04 #@! TO.N,N/C*
X48300000Y-56620000D03*
G04 #@! TO.P,U3,3*
G04 #@! TO.N,/M1_OUT*
X55920000Y-49000000D03*
G04 #@! TO.P,U3,10*
G04 #@! TO.N,N/C*
X50840000Y-56620000D03*
G04 #@! TO.P,U3,4*
G04 #@! TO.N,/ESTOP_TRAN*
X53380000Y-49000000D03*
G04 #@! TO.P,U3,11*
G04 #@! TO.N,N/C*
X53380000Y-56620000D03*
G04 #@! TO.P,U3,5*
G04 #@! TO.N,/PWM_M2*
X50840000Y-49000000D03*
G04 #@! TO.P,U3,12*
G04 #@! TO.N,N/C*
X55920000Y-56620000D03*
G04 #@! TO.P,U3,6*
G04 #@! TO.N,/M2_OUT*
X48300000Y-49000000D03*
G04 #@! TO.P,U3,13*
G04 #@! TO.N,N/C*
X58460000Y-56620000D03*
G04 #@! TO.P,U3,7*
G04 #@! TO.N,GND*
X45760000Y-49000000D03*
G04 #@! TO.P,U3,14*
G04 #@! TO.N,+5V*
X61000000Y-56620000D03*
G04 #@! TD*
D20*
G04 #@! TO.P,XA1,VIN*
G04 #@! TO.N,N/C*
X62370000Y-78380000D03*
G04 #@! TO.P,XA1,GND2*
G04 #@! TO.N,GND*
X59830000Y-78380000D03*
G04 #@! TO.P,XA1,RST2*
G04 #@! TO.N,N/C*
X57290000Y-78380000D03*
G04 #@! TO.P,XA1,5V*
G04 #@! TO.N,+5V*
X54750000Y-78380000D03*
G04 #@! TO.P,XA1,A7*
G04 #@! TO.N,/NANO_A7*
X52210000Y-78380000D03*
G04 #@! TO.P,XA1,A6*
G04 #@! TO.N,/NANO_A6*
X49670000Y-78380000D03*
G04 #@! TO.P,XA1,A5*
G04 #@! TO.N,/NANO_A5*
X47130000Y-78380000D03*
G04 #@! TO.P,XA1,A4*
G04 #@! TO.N,/NANO_A4*
X44590000Y-78380000D03*
G04 #@! TO.P,XA1,A3*
G04 #@! TO.N,/NANO_A3*
X42050000Y-78380000D03*
G04 #@! TO.P,XA1,A2*
G04 #@! TO.N,/NANO_A2*
X39510000Y-78380000D03*
G04 #@! TO.P,XA1,A1*
G04 #@! TO.N,/NANO_A1*
X36970000Y-78380000D03*
G04 #@! TO.P,XA1,A0*
G04 #@! TO.N,/NANO_SW1*
X34430000Y-78380000D03*
G04 #@! TO.P,XA1,AREF*
G04 #@! TO.N,N/C*
X31890000Y-78380000D03*
G04 #@! TO.P,XA1,3V3*
X29350000Y-78380000D03*
G04 #@! TO.P,XA1,D13*
G04 #@! TO.N,/ESTOP_SCK*
X26810000Y-78380000D03*
G04 #@! TO.P,XA1,D12*
G04 #@! TO.N,/ESTOP_MISO*
X26810000Y-93620000D03*
G04 #@! TO.P,XA1,D11*
G04 #@! TO.N,/ESTOP_MOSI*
X29350000Y-93620000D03*
G04 #@! TO.P,XA1,D10*
G04 #@! TO.N,/ESTOP_CE*
X31890000Y-93620000D03*
G04 #@! TO.P,XA1,D9*
G04 #@! TO.N,/ESTOP_CSN*
X34430000Y-93620000D03*
G04 #@! TO.P,XA1,D8*
G04 #@! TO.N,/NANO_D8*
X36970000Y-93620000D03*
G04 #@! TO.P,XA1,D7*
G04 #@! TO.N,/ESTOP_TRAN*
X39510000Y-93620000D03*
G04 #@! TO.P,XA1,D6*
G04 #@! TO.N,/ESTOP_HS*
X42050000Y-93620000D03*
G04 #@! TO.P,XA1,D5*
G04 #@! TO.N,/ESTOP_ON*
X44590000Y-93620000D03*
G04 #@! TO.P,XA1,D4*
G04 #@! TO.N,/ESTOP_EN*
X47130000Y-93620000D03*
G04 #@! TO.P,XA1,D3*
G04 #@! TO.N,/ESTOP_RX*
X49670000Y-93620000D03*
G04 #@! TO.P,XA1,D2*
G04 #@! TO.N,/NANO_INT0*
X52210000Y-93620000D03*
G04 #@! TO.P,XA1,GND1*
G04 #@! TO.N,GND*
X54750000Y-93620000D03*
G04 #@! TO.P,XA1,RST1*
G04 #@! TO.N,/NANO_RESET*
X57290000Y-93620000D03*
G04 #@! TO.P,XA1,D0*
G04 #@! TO.N,/NANO_RX*
X59830000Y-93620000D03*
D21*
G04 #@! TO.P,XA1,D1*
G04 #@! TO.N,/NANO_TX*
X62370000Y-93620000D03*
G04 #@! TD*
D22*
G04 #@! TO.P,XA2,RST2*
G04 #@! TO.N,N/C*
X83627000Y-48600000D03*
G04 #@! TO.P,XA2,GND4*
G04 #@! TO.N,GND*
X86167000Y-48600000D03*
G04 #@! TO.P,XA2,MOSI*
G04 #@! TO.N,/MOSI*
X86167000Y-46060000D03*
G04 #@! TO.P,XA2,SCK*
G04 #@! TO.N,/SCK*
X83627000Y-46060000D03*
G04 #@! TO.P,XA2,5V2*
G04 #@! TO.N,+5V*
X86167000Y-43520000D03*
G04 #@! TO.P,XA2,A0*
G04 #@! TO.N,/MEGA_SW1*
X70800000Y-71460000D03*
G04 #@! TO.P,XA2,VIN*
G04 #@! TO.N,N/C*
X65720000Y-71460000D03*
G04 #@! TO.P,XA2,GND3*
G04 #@! TO.N,GND*
X63180000Y-71460000D03*
G04 #@! TO.P,XA2,GND2*
X60640000Y-71460000D03*
G04 #@! TO.P,XA2,5V1*
G04 #@! TO.N,+5V*
X58100000Y-71460000D03*
G04 #@! TO.P,XA2,3V3*
G04 #@! TO.N,+3V3*
X55560000Y-71460000D03*
G04 #@! TO.P,XA2,RST1*
G04 #@! TO.N,/MEGA_RESET*
X53020000Y-71460000D03*
G04 #@! TO.P,XA2,IORF*
G04 #@! TO.N,N/C*
X50480000Y-71460000D03*
G04 #@! TO.P,XA2,D21*
G04 #@! TO.N,/SCL*
X106360000Y-23200000D03*
G04 #@! TO.P,XA2,D20*
G04 #@! TO.N,/SDA*
X103820000Y-23200000D03*
G04 #@! TO.P,XA2,D19*
G04 #@! TO.N,/EN2_2*
X101280000Y-23200000D03*
G04 #@! TO.P,XA2,D18*
G04 #@! TO.N,/EN1_2*
X98740000Y-23200000D03*
G04 #@! TO.P,XA2,D17*
G04 #@! TO.N,N/C*
X96200000Y-23200000D03*
G04 #@! TO.P,XA2,D16*
X93660000Y-23200000D03*
G04 #@! TO.P,XA2,D15*
X91120000Y-23200000D03*
G04 #@! TO.P,XA2,D14*
X88580000Y-23200000D03*
G04 #@! TO.P,XA2,D0*
G04 #@! TO.N,/MEGA_RX0*
X83500000Y-23200000D03*
G04 #@! TO.P,XA2,D1*
G04 #@! TO.N,/MEGA_TX0*
X80960000Y-23200000D03*
G04 #@! TO.P,XA2,D2*
G04 #@! TO.N,/EN1_1*
X78420000Y-23200000D03*
G04 #@! TO.P,XA2,D3*
G04 #@! TO.N,/EN2_1*
X75880000Y-23200000D03*
G04 #@! TO.P,XA2,D4*
G04 #@! TO.N,N/C*
X73340000Y-23200000D03*
G04 #@! TO.P,XA2,D5*
X70800000Y-23200000D03*
G04 #@! TO.P,XA2,D6*
G04 #@! TO.N,/PWM_M1*
X68260000Y-23200000D03*
G04 #@! TO.P,XA2,D7*
G04 #@! TO.N,/PWM_M2*
X65720000Y-23200000D03*
G04 #@! TO.P,XA2,GND1*
G04 #@! TO.N,GND*
X46416000Y-23200000D03*
G04 #@! TO.P,XA2,D8*
G04 #@! TO.N,N/C*
X61656000Y-23200000D03*
G04 #@! TO.P,XA2,D9*
X59116000Y-23200000D03*
G04 #@! TO.P,XA2,D10*
X56576000Y-23200000D03*
G04 #@! TO.P,XA2,SCL*
X38796000Y-23200000D03*
G04 #@! TO.P,XA2,SDA*
X41336000Y-23200000D03*
G04 #@! TO.P,XA2,AREF*
X43876000Y-23200000D03*
G04 #@! TO.P,XA2,D13*
X48956000Y-23200000D03*
G04 #@! TO.P,XA2,D12*
X51496000Y-23200000D03*
G04 #@! TO.P,XA2,D11*
X54036000Y-23200000D03*
G04 #@! TO.P,XA2,*
G04 #@! TO.N,*
X47940000Y-71460000D03*
G04 #@! TO.P,XA2,A1*
G04 #@! TO.N,/MEGA_SW2*
X73340000Y-71460000D03*
G04 #@! TO.P,XA2,A2*
G04 #@! TO.N,/MEGA_A2*
X75880000Y-71460000D03*
G04 #@! TO.P,XA2,A3*
G04 #@! TO.N,/MEGA_A3*
X78420000Y-71460000D03*
G04 #@! TO.P,XA2,A4*
G04 #@! TO.N,/JOYSTICK_Y*
X80960000Y-71460000D03*
G04 #@! TO.P,XA2,A5*
G04 #@! TO.N,/JOYSTICK_X*
X83500000Y-71460000D03*
G04 #@! TO.P,XA2,A6*
G04 #@! TO.N,/MEGA_A6*
X86040000Y-71460000D03*
G04 #@! TO.P,XA2,A7*
G04 #@! TO.N,/MEGA_A7*
X88580000Y-71460000D03*
G04 #@! TO.P,XA2,A8*
G04 #@! TO.N,/MEGA_A8*
X93660000Y-71460000D03*
G04 #@! TO.P,XA2,A9*
G04 #@! TO.N,/MEGA_A9*
X96200000Y-71460000D03*
G04 #@! TO.P,XA2,A10*
G04 #@! TO.N,/MEGA_A10*
X98740000Y-71460000D03*
G04 #@! TO.P,XA2,A11*
G04 #@! TO.N,/MEGA_A11*
X101280000Y-71460000D03*
G04 #@! TO.P,XA2,A12*
G04 #@! TO.N,/MEGA_A12*
X103820000Y-71460000D03*
G04 #@! TO.P,XA2,A13*
G04 #@! TO.N,/MEGA_A13*
X106360000Y-71460000D03*
G04 #@! TO.P,XA2,A14*
G04 #@! TO.N,/ESTOP_ON*
X108900000Y-71460000D03*
G04 #@! TO.P,XA2,A15*
G04 #@! TO.N,/ESTOP_HS*
X111440000Y-71460000D03*
G04 #@! TO.P,XA2,5V3*
G04 #@! TO.N,+5V*
X113980000Y-23200000D03*
G04 #@! TO.P,XA2,5V4*
X116520000Y-23200000D03*
G04 #@! TO.P,XA2,D22*
G04 #@! TO.N,/STATUS_SERIAL*
X113980000Y-25740000D03*
G04 #@! TO.P,XA2,D23*
G04 #@! TO.N,/STATUS_IMU*
X116520000Y-25740000D03*
G04 #@! TO.P,XA2,D24*
G04 #@! TO.N,/STATUS_ENC*
X113980000Y-28280000D03*
G04 #@! TO.P,XA2,D25*
G04 #@! TO.N,/STATUS_M1*
X116520000Y-28280000D03*
G04 #@! TO.P,XA2,D26*
G04 #@! TO.N,/STATUS_M2*
X113980000Y-30820000D03*
G04 #@! TO.P,XA2,D27*
G04 #@! TO.N,N/C*
X116520000Y-30820000D03*
G04 #@! TO.P,XA2,D28*
X113980000Y-33360000D03*
G04 #@! TO.P,XA2,D29*
X116520000Y-33360000D03*
G04 #@! TO.P,XA2,D30*
G04 #@! TO.N,/EN1_3*
X113980000Y-35900000D03*
G04 #@! TO.P,XA2,D31*
G04 #@! TO.N,/EN2_3*
X116520000Y-35900000D03*
G04 #@! TO.P,XA2,D32*
G04 #@! TO.N,/MEGA_D32*
X113980000Y-38440000D03*
G04 #@! TO.P,XA2,D33*
G04 #@! TO.N,/MEGA_D33*
X116520000Y-38440000D03*
G04 #@! TO.P,XA2,D34*
G04 #@! TO.N,/MEGA_D34*
X113980000Y-40980000D03*
G04 #@! TO.P,XA2,D35*
G04 #@! TO.N,/MEGA_D35*
X116520000Y-40980000D03*
G04 #@! TO.P,XA2,D36*
G04 #@! TO.N,/MEGA_D36*
X113980000Y-43520000D03*
G04 #@! TO.P,XA2,D37*
G04 #@! TO.N,/MEGA_D37*
X116520000Y-43520000D03*
G04 #@! TO.P,XA2,D38*
G04 #@! TO.N,/MEGA_D38*
X113980000Y-46060000D03*
G04 #@! TO.P,XA2,D39*
G04 #@! TO.N,/MEGA_D39*
X116520000Y-46060000D03*
G04 #@! TO.P,XA2,D40*
G04 #@! TO.N,/JOYSTICK_SW*
X113980000Y-48600000D03*
G04 #@! TO.P,XA2,D41*
G04 #@! TO.N,N/C*
X116520000Y-48600000D03*
G04 #@! TO.P,XA2,D42*
X113980000Y-51140000D03*
G04 #@! TO.P,XA2,D43*
X116520000Y-51140000D03*
G04 #@! TO.P,XA2,D44*
X113980000Y-53680000D03*
G04 #@! TO.P,XA2,D45*
X116520000Y-53680000D03*
G04 #@! TO.P,XA2,D46*
X113980000Y-56220000D03*
G04 #@! TO.P,XA2,D47*
G04 #@! TO.N,/IMU_RESET*
X116520000Y-56220000D03*
G04 #@! TO.P,XA2,D48*
G04 #@! TO.N,/IMU_CS*
X113980000Y-58760000D03*
G04 #@! TO.P,XA2,D49*
G04 #@! TO.N,/IMU_WAKE*
X116520000Y-58760000D03*
G04 #@! TO.P,XA2,D50*
G04 #@! TO.N,N/C*
X113980000Y-61300000D03*
G04 #@! TO.P,XA2,D51*
X116520000Y-61300000D03*
G04 #@! TO.P,XA2,D52*
X113980000Y-63840000D03*
G04 #@! TO.P,XA2,D53*
X116520000Y-63840000D03*
G04 #@! TO.P,XA2,GND5*
G04 #@! TO.N,GND*
X113980000Y-66380000D03*
G04 #@! TO.P,XA2,GND6*
X116520000Y-66380000D03*
G04 #@! TO.P,XA2,MISO*
G04 #@! TO.N,/MISO*
X83627000Y-43520000D03*
G04 #@! TD*
D23*
G04 #@! TO.N,+5V*
X82000000Y-38000000D03*
X83750000Y-103750000D03*
G04 #@! TO.N,/STATUS_M1*
X79250000Y-91250000D03*
X79250000Y-83500000D03*
X107000000Y-36000000D03*
G04 #@! TO.N,/STATUS_M2*
X80000000Y-92000000D03*
X80000000Y-82750000D03*
X107500000Y-35000000D03*
G04 #@! TO.N,/STATUS_SERIAL*
X80750000Y-91250000D03*
X80750000Y-83500000D03*
G04 #@! TO.N,/STATUS_IMU*
X81500000Y-92000000D03*
X81500000Y-82750000D03*
G04 #@! TO.N,/STATUS_ENC*
X82250000Y-91250000D03*
X82250000Y-83500000D03*
G04 #@! TO.N,/ESTOP_RX*
X101500000Y-109000000D03*
X101500000Y-115500000D03*
G04 #@! TO.N,/ESTOP_EN*
X104500000Y-109000000D03*
X104500000Y-115500000D03*
G04 #@! TO.N,/ESTOP_ON*
X111000000Y-106000000D03*
G04 #@! TO.N,GND*
X96000000Y-75000000D03*
X97000000Y-75000000D03*
X98000000Y-75000000D03*
X99000000Y-75000000D03*
X85000000Y-81000000D03*
X86000000Y-82000000D03*
X86000000Y-81000000D03*
X89000000Y-82000000D03*
X90000000Y-82000000D03*
X91000000Y-82000000D03*
X114000000Y-79000000D03*
X113000000Y-79000000D03*
X112000000Y-79000000D03*
X111000000Y-79000000D03*
X77000000Y-108000000D03*
X77000000Y-109000000D03*
X77000000Y-110000000D03*
X77000000Y-111000000D03*
X77000000Y-112000000D03*
X77000000Y-113000000D03*
X77000000Y-114000000D03*
X77000000Y-115000000D03*
X78000000Y-115000000D03*
X78000000Y-114000000D03*
X78000000Y-113000000D03*
X78000000Y-112000000D03*
X78000000Y-111000000D03*
X78000000Y-110000000D03*
X78000000Y-109000000D03*
X78000000Y-108000000D03*
X113000000Y-108000000D03*
X114000000Y-108000000D03*
X113000000Y-109000000D03*
X114000000Y-109000000D03*
X113000000Y-110000000D03*
X114000000Y-110000000D03*
X57000000Y-75000000D03*
X58000000Y-75000000D03*
X63000000Y-75000000D03*
X64000000Y-75000000D03*
X38000000Y-67000000D03*
X37000000Y-67000000D03*
X37000000Y-66000000D03*
X38000000Y-66000000D03*
X38000000Y-65000000D03*
X37000000Y-65000000D03*
X37000000Y-64000000D03*
X38000000Y-64000000D03*
X45000000Y-64000000D03*
X46000000Y-64000000D03*
X46000000Y-65000000D03*
X45000000Y-65000000D03*
X45000000Y-66000000D03*
X46000000Y-66000000D03*
X46000000Y-67000000D03*
X45000000Y-67000000D03*
X65000000Y-75000000D03*
X66000000Y-75000000D03*
X67000000Y-75000000D03*
X67000000Y-76000000D03*
X66000000Y-76000000D03*
X65000000Y-76000000D03*
X63000000Y-67000000D03*
X64000000Y-67000000D03*
X65000000Y-67000000D03*
X67000000Y-67000000D03*
X66000000Y-67000000D03*
X67000000Y-66000000D03*
X66000000Y-66000000D03*
X65000000Y-66000000D03*
X64000000Y-66000000D03*
X63000000Y-66000000D03*
X111000000Y-54000000D03*
X111000000Y-53000000D03*
X111000000Y-52000000D03*
X111000000Y-66000000D03*
X111000000Y-67000000D03*
X111000000Y-68000000D03*
X111000000Y-69000000D03*
X110000000Y-69000000D03*
X110000000Y-68000000D03*
X110000000Y-67000000D03*
X110000000Y-66000000D03*
X111000000Y-51000000D03*
X101000000Y-35000000D03*
X102000000Y-35000000D03*
X103000000Y-35000000D03*
X104000000Y-35000000D03*
X101000000Y-40000000D03*
X102000000Y-40000000D03*
X103000000Y-40000000D03*
X104000000Y-40000000D03*
X86000000Y-31000000D03*
X87000000Y-31000000D03*
X88000000Y-31000000D03*
X88000000Y-30000000D03*
X87000000Y-30000000D03*
X86000000Y-30000000D03*
X77000000Y-27000000D03*
X78000000Y-27000000D03*
X79000000Y-27000000D03*
X79000000Y-26000000D03*
X78000000Y-26000000D03*
X77000000Y-26000000D03*
X54750000Y-109000000D03*
X55750000Y-109000000D03*
X55000000Y-99500000D03*
X55000000Y-105500000D03*
X111000000Y-50000000D03*
X111000000Y-49000000D03*
G04 #@! TO.N,+3V3*
X89000000Y-61500000D03*
X84250000Y-61500000D03*
X94500000Y-91250000D03*
X101500000Y-84250000D03*
X89500000Y-75250000D03*
G04 #@! TO.N,/SCL*
X94250000Y-64750000D03*
G04 #@! TO.N,/SDA*
X95750000Y-64750000D03*
G04 #@! TO.N,/EN1_3*
X110500000Y-36000000D03*
X94500000Y-34750000D03*
G04 #@! TO.N,/EN2_3*
X110500000Y-37250000D03*
X103000000Y-37500000D03*
G04 #@! TO.N,/MEGA_SW2*
X67000000Y-84500000D03*
X68750000Y-91500000D03*
G04 #@! TO.N,/MEGA_SW1*
X61250000Y-83750000D03*
G04 #@! TO.N,/MOSI*
X83000000Y-92000000D03*
X74750000Y-75000000D03*
X72000000Y-56000000D03*
G04 #@! TO.N,/SCK*
X84500000Y-92000000D03*
X79750000Y-75250000D03*
X74000000Y-55500000D03*
G04 #@! TO.N,/MISO*
X83750000Y-91250000D03*
X77000000Y-75000000D03*
X72451282Y-54451282D03*
G04 #@! TO.N,/SCL_3V3*
X89500000Y-66250000D03*
G04 #@! TO.N,/SDA_3V3*
X94250000Y-61500000D03*
G04 #@! TD*
D24*
G04 #@! TO.N,+5V*
X61300000Y-106200000D02*
X59500000Y-108000000D01*
X61300000Y-105300000D02*
X61300000Y-104750000D01*
X64000000Y-108000000D02*
X61300000Y-105300000D01*
X61300000Y-101000000D02*
X61300000Y-104750000D01*
X61300000Y-104750000D02*
X61300000Y-106200000D01*
X82000000Y-38000000D02*
X82000000Y-33750000D01*
X80460000Y-32210000D02*
X80460000Y-30000000D01*
X82000000Y-33750000D02*
X80460000Y-32210000D01*
X100230001Y-30849999D02*
X101080000Y-30000000D01*
X98080000Y-33000000D02*
X100230001Y-30849999D01*
X82750000Y-33000000D02*
X98080000Y-33000000D01*
X82000000Y-33750000D02*
X82750000Y-33000000D01*
X61300000Y-100500000D02*
X61300000Y-101000000D01*
X66535001Y-95264999D02*
X61300000Y-100500000D01*
X66535001Y-87406999D02*
X66535001Y-95264999D01*
X61778001Y-82649999D02*
X66535001Y-87406999D01*
X59019999Y-82649999D02*
X61778001Y-82649999D01*
X54750000Y-78380000D02*
X59019999Y-82649999D01*
D25*
X101080000Y-30000000D02*
X104330000Y-26750000D01*
X104330000Y-26750000D02*
X111210870Y-26750000D01*
X113116401Y-24844469D02*
X112710870Y-25250000D01*
X113116401Y-24063599D02*
X113116401Y-24844469D01*
X113980000Y-23200000D02*
X113116401Y-24063599D01*
X111210870Y-26750000D02*
X112710870Y-25250000D01*
X115201314Y-23200000D02*
X116520000Y-23200000D01*
X113980000Y-23200000D02*
X115201314Y-23200000D01*
X112900000Y-82000000D02*
X114000000Y-82000000D01*
X112250000Y-82650000D02*
X112900000Y-82000000D01*
X112250000Y-95750000D02*
X112250000Y-82650000D01*
X104250000Y-103750000D02*
X112250000Y-95750000D01*
X83750000Y-103750000D02*
X104250000Y-103750000D01*
G04 #@! TO.N,/STATUS_M1*
X79250000Y-91250000D02*
X79250000Y-83500000D01*
X115656401Y-29143599D02*
X116520000Y-28280000D01*
X115331399Y-29468601D02*
X115656401Y-29143599D01*
X115331399Y-31227731D02*
X115331399Y-29468601D01*
X114550529Y-32008601D02*
X115331399Y-31227731D01*
X111564401Y-32008601D02*
X114550529Y-32008601D01*
X107573002Y-36000000D02*
X111564401Y-32008601D01*
X107000000Y-36000000D02*
X107573002Y-36000000D01*
G04 #@! TO.N,/STATUS_M2*
X80000000Y-92000000D02*
X80000000Y-82750000D01*
X111680000Y-30820000D02*
X113980000Y-30820000D01*
X107500000Y-35000000D02*
X111680000Y-30820000D01*
G04 #@! TO.N,/STATUS_SERIAL*
X80750000Y-91250000D02*
X80750000Y-83500000D01*
G04 #@! TO.N,/STATUS_IMU*
X81500000Y-92000000D02*
X81500000Y-82750000D01*
G04 #@! TO.N,/STATUS_ENC*
X82250000Y-91250000D02*
X82250000Y-83500000D01*
G04 #@! TO.N,/ESTOP_RX*
X101500000Y-109000000D02*
X101500000Y-115500000D01*
G04 #@! TO.N,/ESTOP_EN*
X104500000Y-109000000D02*
X104500000Y-115500000D01*
G04 #@! TO.N,/ESTOP_ON*
X111000000Y-97700000D02*
X114000000Y-94700000D01*
X111000000Y-106000000D02*
X111000000Y-97700000D01*
D26*
G04 #@! TO.N,+3V3*
X55560000Y-71460000D02*
X57520000Y-69500000D01*
X71000000Y-77650000D02*
X71000000Y-79000000D01*
X71000000Y-74795870D02*
X71000000Y-77650000D01*
X65704130Y-69500000D02*
X71000000Y-74795870D01*
X57520000Y-69500000D02*
X65704130Y-69500000D01*
X73540000Y-79000000D02*
X71000000Y-79000000D01*
X80500000Y-69500000D02*
X83250000Y-66750000D01*
X83250000Y-66750000D02*
X83250000Y-62500000D01*
X83250000Y-62500000D02*
X84250000Y-61500000D01*
X84250000Y-61500000D02*
X89000000Y-61500000D01*
X94500000Y-91250000D02*
X101500000Y-84250000D01*
D25*
X79750000Y-69500000D02*
X79750000Y-72009130D01*
D26*
X79750000Y-69500000D02*
X80500000Y-69500000D01*
X65704130Y-69500000D02*
X79750000Y-69500000D01*
D25*
X79750000Y-72009130D02*
X79750000Y-72750000D01*
D26*
X82805870Y-75250000D02*
X89500000Y-75250000D01*
X79750000Y-72750000D02*
X82250000Y-75250000D01*
X82250000Y-75250000D02*
X82805870Y-75250000D01*
D25*
G04 #@! TO.N,/ESTOP_IRQ*
X25540000Y-110540000D02*
X25540000Y-105620000D01*
X55000000Y-114540000D02*
X29540000Y-114540000D01*
X29540000Y-114540000D02*
X25540000Y-110540000D01*
G04 #@! TO.N,/JOYSTICK_X*
X93901999Y-60774999D02*
X88750000Y-65926998D01*
X98000000Y-58000000D02*
X95225001Y-60774999D01*
X95225001Y-60774999D02*
X93901999Y-60774999D01*
X88750000Y-65926998D02*
X88750000Y-68250000D01*
X88750000Y-68250000D02*
X87500000Y-69500000D01*
X85460000Y-69500000D02*
X83500000Y-71460000D01*
X87500000Y-69500000D02*
X85460000Y-69500000D01*
G04 #@! TO.N,/JOYSTICK_Y*
X88299990Y-65160010D02*
X88299990Y-67950010D01*
X95460000Y-58000000D02*
X88299990Y-65160010D01*
X81823599Y-70596401D02*
X80960000Y-71460000D01*
X83370010Y-69049990D02*
X81823599Y-70596401D01*
X87200010Y-69049990D02*
X83370010Y-69049990D01*
X88299990Y-67950010D02*
X87200010Y-69049990D01*
G04 #@! TO.N,/JOYSTICK_SW*
X92920000Y-58000000D02*
X94670000Y-56250000D01*
X110823002Y-56250000D02*
X112250000Y-54823002D01*
X112250000Y-50330000D02*
X113980000Y-48600000D01*
X112250000Y-54823002D02*
X112250000Y-50330000D01*
X97989002Y-56250000D02*
X99250000Y-57510998D01*
X94670000Y-56250000D02*
X97989002Y-56250000D01*
X99250000Y-57510998D02*
X99250000Y-59250000D01*
X99250000Y-59250000D02*
X100000000Y-60000000D01*
X108250000Y-56250000D02*
X110823002Y-56250000D01*
X104500000Y-60000000D02*
X108250000Y-56250000D01*
X100000000Y-60000000D02*
X104500000Y-60000000D01*
G04 #@! TO.N,/EN1_2*
X98740000Y-27260000D02*
X96000000Y-30000000D01*
X98740000Y-23200000D02*
X98740000Y-27260000D01*
G04 #@! TO.N,/EN1_3*
X96475001Y-36725001D02*
X94500000Y-34750000D01*
X110500000Y-36000000D02*
X109774999Y-36725001D01*
X109774999Y-36725001D02*
X96475001Y-36725001D01*
G04 #@! TO.N,/EN2_3*
X110500000Y-37250000D02*
X103250000Y-37250000D01*
X103250000Y-37250000D02*
X103000000Y-37500000D01*
G04 #@! TO.N,/EN2_2*
X98169471Y-22011399D02*
X97500000Y-22680870D01*
X101280000Y-23200000D02*
X100091399Y-22011399D01*
X100091399Y-22011399D02*
X98169471Y-22011399D01*
X76229999Y-29150001D02*
X75380000Y-30000000D01*
X76555001Y-28824999D02*
X76229999Y-29150001D01*
X92334131Y-28824999D02*
X76555001Y-28824999D01*
X97500000Y-23659130D02*
X92334131Y-28824999D01*
X97500000Y-22680870D02*
X97500000Y-23659130D01*
G04 #@! TO.N,/MEGA_SW2*
X68750000Y-87000000D02*
X68750000Y-91500000D01*
X67000000Y-84500000D02*
X68750000Y-86250000D01*
X68750000Y-86250000D02*
X68750000Y-87000000D01*
G04 #@! TO.N,/MEGA_SW1*
X61181399Y-94873601D02*
X61181399Y-83931399D01*
X58324999Y-97730001D02*
X61181399Y-94873601D01*
X58324999Y-112122918D02*
X58324999Y-97730001D01*
X59500000Y-114500000D02*
X59500000Y-113297919D01*
X59500000Y-113297919D02*
X58324999Y-112122918D01*
X61181399Y-83931399D02*
X61250000Y-83862798D01*
X61250000Y-83862798D02*
X61250000Y-83750000D01*
G04 #@! TO.N,/NANO_SW1*
X33859471Y-94808601D02*
X33078601Y-94027731D01*
X62750000Y-115750000D02*
X59010998Y-115750000D01*
X64000000Y-114500000D02*
X62750000Y-115750000D01*
X33078601Y-79731399D02*
X34430000Y-78380000D01*
X59010998Y-115750000D02*
X57750000Y-114489002D01*
X57750000Y-114489002D02*
X57750000Y-97750000D01*
X33078601Y-94027731D02*
X33078601Y-79731399D01*
X57750000Y-97750000D02*
X54808601Y-94808601D01*
X54808601Y-94808601D02*
X33859471Y-94808601D01*
G04 #@! TO.N,/MEGA_RESET*
X67825010Y-102255943D02*
X67825010Y-87325010D01*
X67824999Y-102255954D02*
X67825010Y-102255943D01*
X67824999Y-112122918D02*
X67824999Y-102255954D01*
X69000000Y-114500000D02*
X69000000Y-113297919D01*
X69000000Y-113297919D02*
X67824999Y-112122918D01*
X53883599Y-72323599D02*
X53020000Y-71460000D01*
X54208601Y-72648601D02*
X53883599Y-72323599D01*
X58397731Y-72648601D02*
X54208601Y-72648601D01*
X63659999Y-77910869D02*
X58397731Y-72648601D01*
X63659999Y-83159999D02*
X63659999Y-77910869D01*
X67825010Y-87325010D02*
X63659999Y-83159999D01*
G04 #@! TO.N,/ESTOP_MISO*
X25946401Y-94483599D02*
X26810000Y-93620000D01*
X24087001Y-96342999D02*
X25946401Y-94483599D01*
X24087001Y-104532999D02*
X24087001Y-96342999D01*
X23000000Y-105620000D02*
X24087001Y-104532999D01*
G04 #@! TO.N,/IMU_RESET*
X115656401Y-57083599D02*
X116520000Y-56220000D01*
X115331399Y-57408601D02*
X115656401Y-57083599D01*
X95011399Y-70889471D02*
X108492269Y-57408601D01*
X108492269Y-57408601D02*
X115331399Y-57408601D01*
X95011399Y-71867731D02*
X95011399Y-70889471D01*
X93584999Y-73294131D02*
X95011399Y-71867731D01*
X93584999Y-78914003D02*
X93584999Y-73294131D01*
X92784001Y-79715001D02*
X93584999Y-78914003D01*
X88315001Y-79715001D02*
X92784001Y-79715001D01*
X87140000Y-78540000D02*
X88315001Y-79715001D01*
X87140000Y-96320000D02*
X87140000Y-78540000D01*
X84600000Y-98860000D02*
X87140000Y-96320000D01*
G04 #@! TO.N,/MOSI*
X85303401Y-45196401D02*
X86167000Y-46060000D01*
X83056471Y-44871399D02*
X84978399Y-44871399D01*
X84978399Y-44871399D02*
X85303401Y-45196401D01*
X71988601Y-55939269D02*
X80500000Y-47427870D01*
X83000000Y-92000000D02*
X83000000Y-83176998D01*
X79750000Y-48177870D02*
X80500000Y-47427870D01*
X80500000Y-47427870D02*
X83056471Y-44871399D01*
X83000000Y-83176998D02*
X74823002Y-75000000D01*
X74823002Y-75000000D02*
X74750000Y-75000000D01*
G04 #@! TO.N,/SCK*
X84500000Y-83363590D02*
X84200009Y-83063599D01*
X84500000Y-92000000D02*
X84500000Y-83363590D01*
X84200009Y-83063599D02*
X79750000Y-78613590D01*
X79750000Y-78613590D02*
X79750000Y-75250000D01*
X83440000Y-46060000D02*
X83627000Y-46060000D01*
X74000000Y-55500000D02*
X83440000Y-46060000D01*
G04 #@! TO.N,/MISO*
X83750000Y-91250000D02*
X83750000Y-83250000D01*
X83750000Y-83250000D02*
X77000000Y-76500000D01*
X77000000Y-76500000D02*
X77000000Y-75000000D01*
X83382564Y-43520000D02*
X83627000Y-43520000D01*
X72451282Y-54451282D02*
X83382564Y-43520000D01*
G04 #@! TO.N,/IMU_WAKE*
X115656401Y-59623599D02*
X116520000Y-58760000D01*
X115331399Y-59948601D02*
X115656401Y-59623599D01*
X113572269Y-59948601D02*
X115331399Y-59948601D01*
X107711399Y-65809471D02*
X113572269Y-59948601D01*
X87140000Y-98860000D02*
X88315001Y-100035001D01*
X88315001Y-100035001D02*
X90244001Y-100035001D01*
X90244001Y-100035001D02*
X91044999Y-99234003D01*
X91044999Y-99234003D02*
X91044999Y-92955001D01*
X91044999Y-92955001D02*
X107711399Y-76288601D01*
X107711399Y-76288601D02*
X107711399Y-65809471D01*
G04 #@! TO.N,/IMU_CS*
X113116401Y-59623599D02*
X113980000Y-58760000D01*
X105171399Y-67568601D02*
X113116401Y-59623599D01*
X105171399Y-77755599D02*
X105171399Y-67568601D01*
X89680000Y-93246998D02*
X91676998Y-91250000D01*
X89680000Y-98860000D02*
X89680000Y-93246998D01*
X91600001Y-91326997D02*
X91676998Y-91250000D01*
X91676998Y-91250000D02*
X105171399Y-77755599D01*
G04 #@! TO.N,/ESTOP_TRAN*
X52580001Y-49799999D02*
X53380000Y-49000000D01*
X49714999Y-52665001D02*
X52580001Y-49799999D01*
X49714999Y-56870003D02*
X49714999Y-52665001D01*
X40698601Y-65886401D02*
X49714999Y-56870003D01*
X40698601Y-92431399D02*
X40698601Y-65886401D01*
X39510000Y-93620000D02*
X40698601Y-92431399D01*
X54179999Y-49799999D02*
X53380000Y-49000000D01*
X54505001Y-50125001D02*
X54179999Y-49799999D01*
X57334999Y-50125001D02*
X54505001Y-50125001D01*
X58460000Y-49000000D02*
X57334999Y-50125001D01*
G04 #@! TO.N,/SCL_3V3*
X90529999Y-67279999D02*
X89500000Y-66250000D01*
X89680000Y-78540000D02*
X90529999Y-77690001D01*
X90529999Y-77690001D02*
X90529999Y-67279999D01*
G04 #@! TO.N,/SDA_3V3*
X92220000Y-78540000D02*
X92220000Y-63530000D01*
X92220000Y-63530000D02*
X94250000Y-61500000D01*
G04 #@! TD*
D27*
G04 #@! TO.N,GND*
G36*
X112899570Y-62380430D02*
X113183281Y-62570000D01*
X112899570Y-62759570D01*
X112568350Y-63255275D01*
X112452041Y-63840000D01*
X112568350Y-64424725D01*
X112899570Y-64920430D01*
X113201021Y-65121854D01*
X113091510Y-65173179D01*
X112697312Y-65605053D01*
X112525042Y-66020974D01*
X112646183Y-66253000D01*
X113853000Y-66253000D01*
X113853000Y-66233000D01*
X114107000Y-66233000D01*
X114107000Y-66253000D01*
X116393000Y-66253000D01*
X116393000Y-66233000D01*
X116647000Y-66233000D01*
X116647000Y-66253000D01*
X116667000Y-66253000D01*
X116667000Y-66507000D01*
X116647000Y-66507000D01*
X116647000Y-67714469D01*
X116879027Y-67834968D01*
X117408490Y-67586821D01*
X117802688Y-67154947D01*
X117873000Y-66985189D01*
X117873000Y-69652233D01*
X117786026Y-69565259D01*
X116964569Y-69225000D01*
X116075431Y-69225000D01*
X115253974Y-69565259D01*
X114625259Y-70193974D01*
X114285000Y-71015431D01*
X114285000Y-71904569D01*
X114625259Y-72726026D01*
X115253974Y-73354741D01*
X116075431Y-73695000D01*
X116964569Y-73695000D01*
X117786026Y-73354741D01*
X117873000Y-73267767D01*
X117873000Y-81381209D01*
X117811645Y-81233076D01*
X117421358Y-80804817D01*
X116896892Y-80558514D01*
X116667000Y-80679181D01*
X116667000Y-81873000D01*
X116687000Y-81873000D01*
X116687000Y-82127000D01*
X116667000Y-82127000D01*
X116667000Y-82147000D01*
X116413000Y-82147000D01*
X116413000Y-82127000D01*
X116393000Y-82127000D01*
X116393000Y-81873000D01*
X116413000Y-81873000D01*
X116413000Y-80679181D01*
X116183108Y-80558514D01*
X115658642Y-80804817D01*
X115469961Y-81011855D01*
X115448157Y-80902235D01*
X115307809Y-80692191D01*
X115097765Y-80551843D01*
X114850000Y-80502560D01*
X113150000Y-80502560D01*
X112902235Y-80551843D01*
X112692191Y-80692191D01*
X112551843Y-80902235D01*
X112502560Y-81150000D01*
X112502560Y-81351517D01*
X112416418Y-81409076D01*
X112352071Y-81452071D01*
X112309671Y-81515527D01*
X111765528Y-82059671D01*
X111702072Y-82102071D01*
X111659672Y-82165527D01*
X111659671Y-82165528D01*
X111534097Y-82353463D01*
X111475112Y-82650000D01*
X111490001Y-82724852D01*
X111490000Y-95435197D01*
X103935199Y-102990000D01*
X84453711Y-102990000D01*
X84336280Y-102872569D01*
X83955874Y-102715000D01*
X83544126Y-102715000D01*
X83163720Y-102872569D01*
X82872569Y-103163720D01*
X82715000Y-103544126D01*
X82715000Y-103955874D01*
X82872569Y-104336280D01*
X83163720Y-104627431D01*
X83544126Y-104785000D01*
X83955874Y-104785000D01*
X84336280Y-104627431D01*
X84453711Y-104510000D01*
X104175153Y-104510000D01*
X104250000Y-104524888D01*
X104324847Y-104510000D01*
X104324852Y-104510000D01*
X104546537Y-104465904D01*
X104797929Y-104297929D01*
X104840331Y-104234470D01*
X110240001Y-98834802D01*
X110240000Y-105296289D01*
X110122569Y-105413720D01*
X109965000Y-105794126D01*
X109965000Y-106205874D01*
X110122569Y-106586280D01*
X110413720Y-106877431D01*
X110794126Y-107035000D01*
X111205874Y-107035000D01*
X111586280Y-106877431D01*
X111877431Y-106586280D01*
X112035000Y-106205874D01*
X112035000Y-105794126D01*
X111877431Y-105413720D01*
X111760000Y-105296289D01*
X111760000Y-98014801D01*
X112494020Y-97280781D01*
X112601161Y-97819418D01*
X112929375Y-98310625D01*
X113227761Y-98510000D01*
X112929375Y-98709375D01*
X112601161Y-99200582D01*
X112485908Y-99780000D01*
X112601161Y-100359418D01*
X112929375Y-100850625D01*
X113420582Y-101178839D01*
X113853744Y-101265000D01*
X114146256Y-101265000D01*
X114579418Y-101178839D01*
X115070625Y-100850625D01*
X115271353Y-100550214D01*
X115658642Y-100975183D01*
X116183108Y-101221486D01*
X116413000Y-101100819D01*
X116413000Y-99907000D01*
X116393000Y-99907000D01*
X116393000Y-99653000D01*
X116413000Y-99653000D01*
X116413000Y-99633000D01*
X116667000Y-99633000D01*
X116667000Y-99653000D01*
X116687000Y-99653000D01*
X116687000Y-99907000D01*
X116667000Y-99907000D01*
X116667000Y-101100819D01*
X116896892Y-101221486D01*
X117421358Y-100975183D01*
X117811645Y-100546924D01*
X117873000Y-100398791D01*
X117873000Y-117873000D01*
X116287767Y-117873000D01*
X116894741Y-117266026D01*
X117235000Y-116444569D01*
X117235000Y-115555431D01*
X116894741Y-114733974D01*
X116266026Y-114105259D01*
X115444569Y-113765000D01*
X114555431Y-113765000D01*
X113733974Y-114105259D01*
X113105259Y-114733974D01*
X112765000Y-115555431D01*
X112765000Y-116444569D01*
X113105259Y-117266026D01*
X113712233Y-117873000D01*
X26057538Y-117873000D01*
X26235000Y-117444569D01*
X26235000Y-116555431D01*
X25894741Y-115733974D01*
X25266026Y-115105259D01*
X24444569Y-114765000D01*
X23555431Y-114765000D01*
X22733974Y-115105259D01*
X22127000Y-115712233D01*
X22127000Y-106722657D01*
X22208663Y-106804320D01*
X22722119Y-107017000D01*
X23277881Y-107017000D01*
X23791337Y-106804320D01*
X24184320Y-106411337D01*
X24270000Y-106204487D01*
X24355680Y-106411337D01*
X24748663Y-106804320D01*
X24780001Y-106817300D01*
X24780000Y-110465153D01*
X24765112Y-110540000D01*
X24780000Y-110614847D01*
X24780000Y-110614851D01*
X24824096Y-110836536D01*
X24992071Y-111087929D01*
X25055530Y-111130331D01*
X28949671Y-115024473D01*
X28992071Y-115087929D01*
X29243463Y-115255904D01*
X29465148Y-115300000D01*
X29465152Y-115300000D01*
X29539999Y-115314888D01*
X29614846Y-115300000D01*
X53502560Y-115300000D01*
X53502560Y-115390000D01*
X53551843Y-115637765D01*
X53692191Y-115847809D01*
X53902235Y-115988157D01*
X54150000Y-116037440D01*
X55850000Y-116037440D01*
X56097765Y-115988157D01*
X56307809Y-115847809D01*
X56448157Y-115637765D01*
X56497440Y-115390000D01*
X56497440Y-113690000D01*
X56448157Y-113442235D01*
X56307809Y-113232191D01*
X56097765Y-113091843D01*
X56052381Y-113082816D01*
X56070625Y-113070625D01*
X56398839Y-112579418D01*
X56514092Y-112000000D01*
X56398839Y-111420582D01*
X56070625Y-110929375D01*
X55579418Y-110601161D01*
X55146256Y-110515000D01*
X54853744Y-110515000D01*
X54420582Y-110601161D01*
X54127000Y-110797326D01*
X54127000Y-95568601D01*
X54493800Y-95568601D01*
X56990001Y-98064804D01*
X56990000Y-114414155D01*
X56975112Y-114489002D01*
X56990000Y-114563849D01*
X56990000Y-114563853D01*
X57034096Y-114785538D01*
X57202071Y-115036931D01*
X57265530Y-115079333D01*
X58420671Y-116234476D01*
X58463069Y-116297929D01*
X58526522Y-116340327D01*
X58526524Y-116340329D01*
X58651900Y-116424102D01*
X58714461Y-116465904D01*
X58936146Y-116510000D01*
X58936150Y-116510000D01*
X59010997Y-116524888D01*
X59085844Y-116510000D01*
X62675153Y-116510000D01*
X62750000Y-116524888D01*
X62824847Y-116510000D01*
X62824852Y-116510000D01*
X63046537Y-116465904D01*
X63297929Y-116297929D01*
X63340331Y-116234470D01*
X63623429Y-115951372D01*
X63704615Y-115985000D01*
X64295385Y-115985000D01*
X64841185Y-115758922D01*
X65258922Y-115341185D01*
X65485000Y-114795385D01*
X65485000Y-114204615D01*
X65258922Y-113658815D01*
X64841185Y-113241078D01*
X64295385Y-113015000D01*
X63704615Y-113015000D01*
X63158815Y-113241078D01*
X62741078Y-113658815D01*
X62515000Y-114204615D01*
X62515000Y-114795385D01*
X62548628Y-114876571D01*
X62435199Y-114990000D01*
X60904388Y-114990000D01*
X60985000Y-114795385D01*
X60985000Y-114204615D01*
X60758922Y-113658815D01*
X60341185Y-113241078D01*
X60256615Y-113206048D01*
X60215904Y-113001382D01*
X60174102Y-112938821D01*
X60090329Y-112813445D01*
X60090327Y-112813443D01*
X60047929Y-112749990D01*
X59984476Y-112707592D01*
X59084999Y-111808117D01*
X59084999Y-109435453D01*
X59204615Y-109485000D01*
X59795385Y-109485000D01*
X60341185Y-109258922D01*
X60758922Y-108841185D01*
X60985000Y-108295385D01*
X60985000Y-108120131D01*
X61750000Y-107355132D01*
X62515000Y-108120132D01*
X62515000Y-108295385D01*
X62741078Y-108841185D01*
X63158815Y-109258922D01*
X63704615Y-109485000D01*
X64295385Y-109485000D01*
X64841185Y-109258922D01*
X65258922Y-108841185D01*
X65485000Y-108295385D01*
X65485000Y-107704615D01*
X65258922Y-107158815D01*
X64841185Y-106741078D01*
X64295385Y-106515000D01*
X64120132Y-106515000D01*
X62435000Y-104829869D01*
X62435000Y-103309359D01*
X62839249Y-103039249D01*
X63311126Y-102333036D01*
X63435000Y-101710279D01*
X63435000Y-100289722D01*
X63381977Y-100023155D01*
X67065010Y-96340122D01*
X67065010Y-98643874D01*
X66833036Y-98488874D01*
X66000000Y-98323173D01*
X65166965Y-98488874D01*
X64460752Y-98960751D01*
X63988874Y-99666964D01*
X63865000Y-100289721D01*
X63865000Y-101710278D01*
X63988874Y-102333035D01*
X64460751Y-103039249D01*
X65166964Y-103511126D01*
X66000000Y-103676827D01*
X66833035Y-103511126D01*
X67065000Y-103356132D01*
X67064999Y-112048071D01*
X67050111Y-112122918D01*
X67064999Y-112197765D01*
X67064999Y-112197769D01*
X67109095Y-112419454D01*
X67277070Y-112670847D01*
X67340529Y-112713249D01*
X68013586Y-113386307D01*
X67741078Y-113658815D01*
X67515000Y-114204615D01*
X67515000Y-114795385D01*
X67741078Y-115341185D01*
X68158815Y-115758922D01*
X68704615Y-115985000D01*
X69295385Y-115985000D01*
X69841185Y-115758922D01*
X70258922Y-115341185D01*
X70485000Y-114795385D01*
X70485000Y-114204615D01*
X72015000Y-114204615D01*
X72015000Y-114795385D01*
X72241078Y-115341185D01*
X72658815Y-115758922D01*
X73204615Y-115985000D01*
X73795385Y-115985000D01*
X74341185Y-115758922D01*
X74758922Y-115341185D01*
X74985000Y-114795385D01*
X74985000Y-114204615D01*
X74758922Y-113658815D01*
X74341185Y-113241078D01*
X73795385Y-113015000D01*
X73204615Y-113015000D01*
X72658815Y-113241078D01*
X72241078Y-113658815D01*
X72015000Y-114204615D01*
X70485000Y-114204615D01*
X70258922Y-113658815D01*
X69841185Y-113241078D01*
X69756615Y-113206048D01*
X69715904Y-113001382D01*
X69674102Y-112938821D01*
X69590329Y-112813445D01*
X69590327Y-112813443D01*
X69547929Y-112749990D01*
X69484476Y-112707592D01*
X68584999Y-111808117D01*
X68584999Y-109429144D01*
X68771279Y-109496718D01*
X69361458Y-109470315D01*
X69784080Y-109295259D01*
X69864353Y-109043958D01*
X72635647Y-109043958D01*
X72715920Y-109295259D01*
X73271279Y-109496718D01*
X73861458Y-109470315D01*
X74284080Y-109295259D01*
X74364353Y-109043958D01*
X73500000Y-108179605D01*
X72635647Y-109043958D01*
X69864353Y-109043958D01*
X69000000Y-108179605D01*
X68985858Y-108193748D01*
X68806253Y-108014143D01*
X68820395Y-108000000D01*
X69179605Y-108000000D01*
X70043958Y-108864353D01*
X70295259Y-108784080D01*
X70496718Y-108228721D01*
X70476254Y-107771279D01*
X72003282Y-107771279D01*
X72029685Y-108361458D01*
X72204741Y-108784080D01*
X72456042Y-108864353D01*
X73320395Y-108000000D01*
X73679605Y-108000000D01*
X74543958Y-108864353D01*
X74763809Y-108794126D01*
X100465000Y-108794126D01*
X100465000Y-109205874D01*
X100622569Y-109586280D01*
X100740000Y-109703711D01*
X100740001Y-114796288D01*
X100622569Y-114913720D01*
X100465000Y-115294126D01*
X100465000Y-115705874D01*
X100622569Y-116086280D01*
X100913720Y-116377431D01*
X101294126Y-116535000D01*
X101705874Y-116535000D01*
X102086280Y-116377431D01*
X102377431Y-116086280D01*
X102535000Y-115705874D01*
X102535000Y-115294126D01*
X102377431Y-114913720D01*
X102260000Y-114796289D01*
X102260000Y-109703711D01*
X102377431Y-109586280D01*
X102535000Y-109205874D01*
X102535000Y-108794126D01*
X103465000Y-108794126D01*
X103465000Y-109205874D01*
X103622569Y-109586280D01*
X103740000Y-109703711D01*
X103740001Y-114796288D01*
X103622569Y-114913720D01*
X103465000Y-115294126D01*
X103465000Y-115705874D01*
X103622569Y-116086280D01*
X103913720Y-116377431D01*
X104294126Y-116535000D01*
X104705874Y-116535000D01*
X105086280Y-116377431D01*
X105377431Y-116086280D01*
X105535000Y-115705874D01*
X105535000Y-115294126D01*
X105377431Y-114913720D01*
X105260000Y-114796289D01*
X105260000Y-109703711D01*
X105377431Y-109586280D01*
X105535000Y-109205874D01*
X105535000Y-108794126D01*
X105377431Y-108413720D01*
X105086280Y-108122569D01*
X104705874Y-107965000D01*
X104294126Y-107965000D01*
X103913720Y-108122569D01*
X103622569Y-108413720D01*
X103465000Y-108794126D01*
X102535000Y-108794126D01*
X102377431Y-108413720D01*
X102086280Y-108122569D01*
X101705874Y-107965000D01*
X101294126Y-107965000D01*
X100913720Y-108122569D01*
X100622569Y-108413720D01*
X100465000Y-108794126D01*
X74763809Y-108794126D01*
X74795259Y-108784080D01*
X74996718Y-108228721D01*
X74970315Y-107638542D01*
X74795259Y-107215920D01*
X74543958Y-107135647D01*
X73679605Y-108000000D01*
X73320395Y-108000000D01*
X72456042Y-107135647D01*
X72204741Y-107215920D01*
X72003282Y-107771279D01*
X70476254Y-107771279D01*
X70470315Y-107638542D01*
X70295259Y-107215920D01*
X70043958Y-107135647D01*
X69179605Y-108000000D01*
X68820395Y-108000000D01*
X68806253Y-107985858D01*
X68985858Y-107806253D01*
X69000000Y-107820395D01*
X69864353Y-106956042D01*
X72635647Y-106956042D01*
X73500000Y-107820395D01*
X74364353Y-106956042D01*
X74284080Y-106704741D01*
X73728721Y-106503282D01*
X73138542Y-106529685D01*
X72715920Y-106704741D01*
X72635647Y-106956042D01*
X69864353Y-106956042D01*
X69784080Y-106704741D01*
X69228721Y-106503282D01*
X68638542Y-106529685D01*
X68584999Y-106551863D01*
X68584999Y-102330850D01*
X68585010Y-102330795D01*
X68585010Y-102330791D01*
X68599898Y-102255943D01*
X68585010Y-102181095D01*
X68585010Y-101703523D01*
X68776118Y-102434362D01*
X69280130Y-103099476D01*
X70000304Y-103521084D01*
X70241167Y-103585113D01*
X70573000Y-103472165D01*
X70573000Y-101127000D01*
X70827000Y-101127000D01*
X70827000Y-103472165D01*
X71158833Y-103585113D01*
X71399696Y-103521084D01*
X72119870Y-103099476D01*
X72623882Y-102434362D01*
X72835000Y-101627000D01*
X72835000Y-101127000D01*
X70827000Y-101127000D01*
X70573000Y-101127000D01*
X70553000Y-101127000D01*
X70553000Y-100873000D01*
X70573000Y-100873000D01*
X70573000Y-98527835D01*
X70827000Y-98527835D01*
X70827000Y-100873000D01*
X72835000Y-100873000D01*
X72835000Y-100373000D01*
X72623882Y-99565638D01*
X72119870Y-98900524D01*
X71399696Y-98478916D01*
X71158833Y-98414887D01*
X70827000Y-98527835D01*
X70573000Y-98527835D01*
X70241167Y-98414887D01*
X70000304Y-98478916D01*
X69280130Y-98900524D01*
X68776118Y-99565638D01*
X68585010Y-100296477D01*
X68585010Y-92535000D01*
X68955874Y-92535000D01*
X69336280Y-92377431D01*
X69627431Y-92086280D01*
X69785000Y-91705874D01*
X69785000Y-91294126D01*
X69627431Y-90913720D01*
X69510000Y-90796289D01*
X69510000Y-86324848D01*
X69524888Y-86250000D01*
X69510000Y-86175152D01*
X69510000Y-86175148D01*
X69465904Y-85953463D01*
X69465904Y-85953462D01*
X69340329Y-85765527D01*
X69297929Y-85702071D01*
X69234473Y-85659671D01*
X68035000Y-84460199D01*
X68035000Y-84436890D01*
X69558524Y-84436890D01*
X69728355Y-84846924D01*
X70118642Y-85275183D01*
X70643108Y-85521486D01*
X70873000Y-85400819D01*
X70873000Y-84207000D01*
X71127000Y-84207000D01*
X71127000Y-85400819D01*
X71356892Y-85521486D01*
X71881358Y-85275183D01*
X72270000Y-84848729D01*
X72658642Y-85275183D01*
X73183108Y-85521486D01*
X73413000Y-85400819D01*
X73413000Y-84207000D01*
X73667000Y-84207000D01*
X73667000Y-85400819D01*
X73896892Y-85521486D01*
X74421358Y-85275183D01*
X74811645Y-84846924D01*
X74981476Y-84436890D01*
X74860155Y-84207000D01*
X73667000Y-84207000D01*
X73413000Y-84207000D01*
X71127000Y-84207000D01*
X70873000Y-84207000D01*
X69679845Y-84207000D01*
X69558524Y-84436890D01*
X68035000Y-84436890D01*
X68035000Y-84294126D01*
X67877431Y-83913720D01*
X67586280Y-83622569D01*
X67205874Y-83465000D01*
X66794126Y-83465000D01*
X66413720Y-83622569D01*
X66122569Y-83913720D01*
X65965000Y-84294126D01*
X65965000Y-84390199D01*
X64419999Y-82845198D01*
X64419999Y-79865567D01*
X64599697Y-79940000D01*
X65220303Y-79940000D01*
X65793669Y-79702504D01*
X66232504Y-79263669D01*
X66470000Y-78690303D01*
X66470000Y-78069697D01*
X66232504Y-77496331D01*
X65793669Y-77057496D01*
X65220303Y-76820000D01*
X64599697Y-76820000D01*
X64026331Y-77057496D01*
X63953879Y-77129948D01*
X59254103Y-72430171D01*
X59373037Y-72252174D01*
X59751510Y-72666821D01*
X60280973Y-72914968D01*
X60513000Y-72794469D01*
X60513000Y-71587000D01*
X60767000Y-71587000D01*
X60767000Y-72794469D01*
X60999027Y-72914968D01*
X61528490Y-72666821D01*
X61910000Y-72248848D01*
X62291510Y-72666821D01*
X62820973Y-72914968D01*
X63053000Y-72794469D01*
X63053000Y-71587000D01*
X60767000Y-71587000D01*
X60513000Y-71587000D01*
X60493000Y-71587000D01*
X60493000Y-71333000D01*
X60513000Y-71333000D01*
X60513000Y-71313000D01*
X60767000Y-71313000D01*
X60767000Y-71333000D01*
X63053000Y-71333000D01*
X63053000Y-71313000D01*
X63307000Y-71313000D01*
X63307000Y-71333000D01*
X63327000Y-71333000D01*
X63327000Y-71587000D01*
X63307000Y-71587000D01*
X63307000Y-72794469D01*
X63539027Y-72914968D01*
X64068490Y-72666821D01*
X64446963Y-72252174D01*
X64639570Y-72540430D01*
X65135275Y-72871650D01*
X65572402Y-72958600D01*
X65867598Y-72958600D01*
X66304725Y-72871650D01*
X66800430Y-72540430D01*
X67077828Y-72125276D01*
X70115000Y-75162449D01*
X70115001Y-77509522D01*
X69902235Y-77551843D01*
X69692191Y-77692191D01*
X69551843Y-77902235D01*
X69502560Y-78150000D01*
X69502560Y-79850000D01*
X69551843Y-80097765D01*
X69692191Y-80307809D01*
X69902235Y-80448157D01*
X69947619Y-80457184D01*
X69929375Y-80469375D01*
X69601161Y-80960582D01*
X69485908Y-81540000D01*
X69601161Y-82119418D01*
X69929375Y-82610625D01*
X70248478Y-82823843D01*
X70118642Y-82884817D01*
X69728355Y-83313076D01*
X69558524Y-83723110D01*
X69679845Y-83953000D01*
X70873000Y-83953000D01*
X70873000Y-83933000D01*
X71127000Y-83933000D01*
X71127000Y-83953000D01*
X73413000Y-83953000D01*
X73413000Y-83933000D01*
X73667000Y-83933000D01*
X73667000Y-83953000D01*
X74860155Y-83953000D01*
X74981476Y-83723110D01*
X74811645Y-83313076D01*
X74421358Y-82884817D01*
X74291522Y-82823843D01*
X74610625Y-82610625D01*
X74938839Y-82119418D01*
X75054092Y-81540000D01*
X74938839Y-80960582D01*
X74610625Y-80469375D01*
X74312239Y-80270000D01*
X74610625Y-80070625D01*
X74938839Y-79579418D01*
X75054092Y-79000000D01*
X74938839Y-78420582D01*
X74610625Y-77929375D01*
X74119418Y-77601161D01*
X73686256Y-77515000D01*
X73393744Y-77515000D01*
X72960582Y-77601161D01*
X72469375Y-77929375D01*
X72457184Y-77947619D01*
X72448157Y-77902235D01*
X72307809Y-77692191D01*
X72097765Y-77551843D01*
X71885000Y-77509522D01*
X71885000Y-74883029D01*
X71902337Y-74795869D01*
X71885000Y-74708709D01*
X71885000Y-74708705D01*
X71833652Y-74450560D01*
X71761615Y-74342750D01*
X71687424Y-74231715D01*
X71687423Y-74231714D01*
X71638049Y-74157821D01*
X71564156Y-74108447D01*
X70355189Y-72899481D01*
X70652402Y-72958600D01*
X70947598Y-72958600D01*
X71384725Y-72871650D01*
X71880430Y-72540430D01*
X72070000Y-72256719D01*
X72259570Y-72540430D01*
X72755275Y-72871650D01*
X73192402Y-72958600D01*
X73487598Y-72958600D01*
X73924725Y-72871650D01*
X74420430Y-72540430D01*
X74610000Y-72256719D01*
X74799570Y-72540430D01*
X75295275Y-72871650D01*
X75732402Y-72958600D01*
X76027598Y-72958600D01*
X76464725Y-72871650D01*
X76960430Y-72540430D01*
X77150000Y-72256719D01*
X77339570Y-72540430D01*
X77835275Y-72871650D01*
X78272402Y-72958600D01*
X78567598Y-72958600D01*
X78876917Y-72897073D01*
X78916348Y-73095309D01*
X79062576Y-73314154D01*
X79968759Y-74220337D01*
X79955874Y-74215000D01*
X79544126Y-74215000D01*
X79163720Y-74372569D01*
X78872569Y-74663720D01*
X78715000Y-75044126D01*
X78715000Y-75455874D01*
X78872569Y-75836280D01*
X78990001Y-75953712D01*
X78990000Y-77415199D01*
X77760000Y-76185199D01*
X77760000Y-75703711D01*
X77877431Y-75586280D01*
X78035000Y-75205874D01*
X78035000Y-74794126D01*
X77877431Y-74413720D01*
X77586280Y-74122569D01*
X77205874Y-73965000D01*
X76794126Y-73965000D01*
X76413720Y-74122569D01*
X76122569Y-74413720D01*
X75965000Y-74794126D01*
X75965000Y-75067197D01*
X75785000Y-74887197D01*
X75785000Y-74794126D01*
X75627431Y-74413720D01*
X75336280Y-74122569D01*
X74955874Y-73965000D01*
X74544126Y-73965000D01*
X74163720Y-74122569D01*
X73872569Y-74413720D01*
X73715000Y-74794126D01*
X73715000Y-75205874D01*
X73872569Y-75586280D01*
X74163720Y-75877431D01*
X74544126Y-76035000D01*
X74783201Y-76035000D01*
X80767244Y-82019045D01*
X80750000Y-82036289D01*
X80586280Y-81872569D01*
X80205874Y-81715000D01*
X79794126Y-81715000D01*
X79413720Y-81872569D01*
X79122569Y-82163720D01*
X78988175Y-82488175D01*
X78663720Y-82622569D01*
X78372569Y-82913720D01*
X78215000Y-83294126D01*
X78215000Y-83705874D01*
X78372569Y-84086280D01*
X78490001Y-84203712D01*
X78490000Y-90546289D01*
X78372569Y-90663720D01*
X78215000Y-91044126D01*
X78215000Y-91455874D01*
X78372569Y-91836280D01*
X78663720Y-92127431D01*
X78988175Y-92261825D01*
X79122569Y-92586280D01*
X79413720Y-92877431D01*
X79794126Y-93035000D01*
X80205874Y-93035000D01*
X80586280Y-92877431D01*
X80750000Y-92713711D01*
X80913720Y-92877431D01*
X81294126Y-93035000D01*
X81705874Y-93035000D01*
X82086280Y-92877431D01*
X82250000Y-92713711D01*
X82413720Y-92877431D01*
X82794126Y-93035000D01*
X83205874Y-93035000D01*
X83586280Y-92877431D01*
X83750000Y-92713711D01*
X83913720Y-92877431D01*
X84294126Y-93035000D01*
X84705874Y-93035000D01*
X85086280Y-92877431D01*
X85377431Y-92586280D01*
X85535000Y-92205874D01*
X85535000Y-91794126D01*
X85377431Y-91413720D01*
X85260000Y-91296289D01*
X85260000Y-83438436D01*
X85274888Y-83363589D01*
X85260000Y-83288742D01*
X85260000Y-83288738D01*
X85215904Y-83067053D01*
X85047929Y-82815661D01*
X84984472Y-82773260D01*
X84790339Y-82579128D01*
X84790338Y-82579126D01*
X80510000Y-78298789D01*
X80510000Y-75953711D01*
X80627431Y-75836280D01*
X80785000Y-75455874D01*
X80785000Y-75044126D01*
X80779663Y-75031242D01*
X81562577Y-75814156D01*
X81611951Y-75888049D01*
X81685844Y-75937423D01*
X81685845Y-75937424D01*
X81904690Y-76083652D01*
X82162835Y-76135000D01*
X82162839Y-76135000D01*
X82250000Y-76152337D01*
X82337161Y-76135000D01*
X88931993Y-76135000D01*
X89294126Y-76285000D01*
X89705874Y-76285000D01*
X89769999Y-76258439D01*
X89769999Y-77055000D01*
X89384615Y-77055000D01*
X88838815Y-77281078D01*
X88421078Y-77698815D01*
X88410000Y-77725560D01*
X88398922Y-77698815D01*
X87981185Y-77281078D01*
X87435385Y-77055000D01*
X86844615Y-77055000D01*
X86298815Y-77281078D01*
X85881078Y-77698815D01*
X85870000Y-77725560D01*
X85858922Y-77698815D01*
X85441185Y-77281078D01*
X84895385Y-77055000D01*
X84304615Y-77055000D01*
X83758815Y-77281078D01*
X83341078Y-77698815D01*
X83115000Y-78244615D01*
X83115000Y-78835385D01*
X83341078Y-79381185D01*
X83758815Y-79798922D01*
X84304615Y-80025000D01*
X84895385Y-80025000D01*
X85441185Y-79798922D01*
X85858922Y-79381185D01*
X85870000Y-79354440D01*
X85881078Y-79381185D01*
X86298815Y-79798922D01*
X86380001Y-79832550D01*
X86380000Y-96005197D01*
X84976570Y-97408628D01*
X84895385Y-97375000D01*
X84304615Y-97375000D01*
X83758815Y-97601078D01*
X83341078Y-98018815D01*
X83115000Y-98564615D01*
X83115000Y-99155385D01*
X83341078Y-99701185D01*
X83758815Y-100118922D01*
X84304615Y-100345000D01*
X84895385Y-100345000D01*
X85441185Y-100118922D01*
X85858922Y-99701185D01*
X85870000Y-99674440D01*
X85881078Y-99701185D01*
X86298815Y-100118922D01*
X86844615Y-100345000D01*
X87435385Y-100345000D01*
X87516570Y-100311372D01*
X87724674Y-100519477D01*
X87767072Y-100582930D01*
X87830525Y-100625328D01*
X87830527Y-100625330D01*
X87955903Y-100709103D01*
X88018464Y-100750905D01*
X88240149Y-100795001D01*
X88240153Y-100795001D01*
X88315000Y-100809889D01*
X88389847Y-100795001D01*
X90169154Y-100795001D01*
X90244001Y-100809889D01*
X90318848Y-100795001D01*
X90318853Y-100795001D01*
X90540538Y-100750905D01*
X90791930Y-100582930D01*
X90834332Y-100519471D01*
X91306848Y-100046955D01*
X91378815Y-100118922D01*
X91924615Y-100345000D01*
X92515385Y-100345000D01*
X93061185Y-100118922D01*
X93478922Y-99701185D01*
X93490000Y-99674440D01*
X93501078Y-99701185D01*
X93918815Y-100118922D01*
X94464615Y-100345000D01*
X95055385Y-100345000D01*
X95601185Y-100118922D01*
X96018922Y-99701185D01*
X96030000Y-99674440D01*
X96041078Y-99701185D01*
X96458815Y-100118922D01*
X97004615Y-100345000D01*
X97595385Y-100345000D01*
X98141185Y-100118922D01*
X98558922Y-99701185D01*
X98570000Y-99674440D01*
X98581078Y-99701185D01*
X98998815Y-100118922D01*
X99544615Y-100345000D01*
X100135385Y-100345000D01*
X100681185Y-100118922D01*
X100896149Y-99903958D01*
X101515647Y-99903958D01*
X101595920Y-100155259D01*
X102151279Y-100356718D01*
X102741458Y-100330315D01*
X103164080Y-100155259D01*
X103244353Y-99903958D01*
X102380000Y-99039605D01*
X101515647Y-99903958D01*
X100896149Y-99903958D01*
X101098922Y-99701185D01*
X101118155Y-99654753D01*
X101336042Y-99724353D01*
X102200395Y-98860000D01*
X102559605Y-98860000D01*
X103423958Y-99724353D01*
X103675259Y-99644080D01*
X103876718Y-99088721D01*
X103850315Y-98498542D01*
X103675259Y-98075920D01*
X103423958Y-97995647D01*
X102559605Y-98860000D01*
X102200395Y-98860000D01*
X101336042Y-97995647D01*
X101118155Y-98065247D01*
X101098922Y-98018815D01*
X100896149Y-97816042D01*
X101515647Y-97816042D01*
X102380000Y-98680395D01*
X103244353Y-97816042D01*
X103164080Y-97564741D01*
X102608721Y-97363282D01*
X102018542Y-97389685D01*
X101595920Y-97564741D01*
X101515647Y-97816042D01*
X100896149Y-97816042D01*
X100681185Y-97601078D01*
X100135385Y-97375000D01*
X99544615Y-97375000D01*
X98998815Y-97601078D01*
X98581078Y-98018815D01*
X98570000Y-98045560D01*
X98558922Y-98018815D01*
X98141185Y-97601078D01*
X97595385Y-97375000D01*
X97004615Y-97375000D01*
X96458815Y-97601078D01*
X96041078Y-98018815D01*
X96030000Y-98045560D01*
X96018922Y-98018815D01*
X95601185Y-97601078D01*
X95055385Y-97375000D01*
X94464615Y-97375000D01*
X93918815Y-97601078D01*
X93501078Y-98018815D01*
X93490000Y-98045560D01*
X93478922Y-98018815D01*
X93061185Y-97601078D01*
X92515385Y-97375000D01*
X91924615Y-97375000D01*
X91804999Y-97424547D01*
X91804999Y-93269802D01*
X93510084Y-91564717D01*
X93622569Y-91836280D01*
X93913720Y-92127431D01*
X94294126Y-92285000D01*
X94705874Y-92285000D01*
X95086280Y-92127431D01*
X95377431Y-91836280D01*
X95527431Y-91474147D01*
X101724148Y-85277430D01*
X102086280Y-85127431D01*
X102377431Y-84836280D01*
X102535000Y-84455874D01*
X102535000Y-84044126D01*
X102377431Y-83663720D01*
X102086280Y-83372569D01*
X101814717Y-83260084D01*
X108195872Y-76878930D01*
X108259328Y-76836530D01*
X108427303Y-76585138D01*
X108471399Y-76363453D01*
X108471399Y-76363448D01*
X108486287Y-76288601D01*
X108471399Y-76213754D01*
X108471399Y-72902705D01*
X108752402Y-72958600D01*
X109047598Y-72958600D01*
X109484725Y-72871650D01*
X109980430Y-72540430D01*
X110170000Y-72256719D01*
X110359570Y-72540430D01*
X110855275Y-72871650D01*
X111292402Y-72958600D01*
X111587598Y-72958600D01*
X112024725Y-72871650D01*
X112520430Y-72540430D01*
X112851650Y-72044725D01*
X112967959Y-71460000D01*
X112851650Y-70875275D01*
X112520430Y-70379570D01*
X112024725Y-70048350D01*
X111587598Y-69961400D01*
X111292402Y-69961400D01*
X110855275Y-70048350D01*
X110359570Y-70379570D01*
X110170000Y-70663281D01*
X109980430Y-70379570D01*
X109484725Y-70048350D01*
X109047598Y-69961400D01*
X108752402Y-69961400D01*
X108471399Y-70017295D01*
X108471399Y-66739026D01*
X112525042Y-66739026D01*
X112697312Y-67154947D01*
X113091510Y-67586821D01*
X113620973Y-67834968D01*
X113853000Y-67714469D01*
X113853000Y-66507000D01*
X114107000Y-66507000D01*
X114107000Y-67714469D01*
X114339027Y-67834968D01*
X114868490Y-67586821D01*
X115250000Y-67168848D01*
X115631510Y-67586821D01*
X116160973Y-67834968D01*
X116393000Y-67714469D01*
X116393000Y-66507000D01*
X114107000Y-66507000D01*
X113853000Y-66507000D01*
X112646183Y-66507000D01*
X112525042Y-66739026D01*
X108471399Y-66739026D01*
X108471399Y-66124272D01*
X112625466Y-61970205D01*
X112899570Y-62380430D01*
X112899570Y-62380430D01*
G37*
X112899570Y-62380430D02*
X113183281Y-62570000D01*
X112899570Y-62759570D01*
X112568350Y-63255275D01*
X112452041Y-63840000D01*
X112568350Y-64424725D01*
X112899570Y-64920430D01*
X113201021Y-65121854D01*
X113091510Y-65173179D01*
X112697312Y-65605053D01*
X112525042Y-66020974D01*
X112646183Y-66253000D01*
X113853000Y-66253000D01*
X113853000Y-66233000D01*
X114107000Y-66233000D01*
X114107000Y-66253000D01*
X116393000Y-66253000D01*
X116393000Y-66233000D01*
X116647000Y-66233000D01*
X116647000Y-66253000D01*
X116667000Y-66253000D01*
X116667000Y-66507000D01*
X116647000Y-66507000D01*
X116647000Y-67714469D01*
X116879027Y-67834968D01*
X117408490Y-67586821D01*
X117802688Y-67154947D01*
X117873000Y-66985189D01*
X117873000Y-69652233D01*
X117786026Y-69565259D01*
X116964569Y-69225000D01*
X116075431Y-69225000D01*
X115253974Y-69565259D01*
X114625259Y-70193974D01*
X114285000Y-71015431D01*
X114285000Y-71904569D01*
X114625259Y-72726026D01*
X115253974Y-73354741D01*
X116075431Y-73695000D01*
X116964569Y-73695000D01*
X117786026Y-73354741D01*
X117873000Y-73267767D01*
X117873000Y-81381209D01*
X117811645Y-81233076D01*
X117421358Y-80804817D01*
X116896892Y-80558514D01*
X116667000Y-80679181D01*
X116667000Y-81873000D01*
X116687000Y-81873000D01*
X116687000Y-82127000D01*
X116667000Y-82127000D01*
X116667000Y-82147000D01*
X116413000Y-82147000D01*
X116413000Y-82127000D01*
X116393000Y-82127000D01*
X116393000Y-81873000D01*
X116413000Y-81873000D01*
X116413000Y-80679181D01*
X116183108Y-80558514D01*
X115658642Y-80804817D01*
X115469961Y-81011855D01*
X115448157Y-80902235D01*
X115307809Y-80692191D01*
X115097765Y-80551843D01*
X114850000Y-80502560D01*
X113150000Y-80502560D01*
X112902235Y-80551843D01*
X112692191Y-80692191D01*
X112551843Y-80902235D01*
X112502560Y-81150000D01*
X112502560Y-81351517D01*
X112416418Y-81409076D01*
X112352071Y-81452071D01*
X112309671Y-81515527D01*
X111765528Y-82059671D01*
X111702072Y-82102071D01*
X111659672Y-82165527D01*
X111659671Y-82165528D01*
X111534097Y-82353463D01*
X111475112Y-82650000D01*
X111490001Y-82724852D01*
X111490000Y-95435197D01*
X103935199Y-102990000D01*
X84453711Y-102990000D01*
X84336280Y-102872569D01*
X83955874Y-102715000D01*
X83544126Y-102715000D01*
X83163720Y-102872569D01*
X82872569Y-103163720D01*
X82715000Y-103544126D01*
X82715000Y-103955874D01*
X82872569Y-104336280D01*
X83163720Y-104627431D01*
X83544126Y-104785000D01*
X83955874Y-104785000D01*
X84336280Y-104627431D01*
X84453711Y-104510000D01*
X104175153Y-104510000D01*
X104250000Y-104524888D01*
X104324847Y-104510000D01*
X104324852Y-104510000D01*
X104546537Y-104465904D01*
X104797929Y-104297929D01*
X104840331Y-104234470D01*
X110240001Y-98834802D01*
X110240000Y-105296289D01*
X110122569Y-105413720D01*
X109965000Y-105794126D01*
X109965000Y-106205874D01*
X110122569Y-106586280D01*
X110413720Y-106877431D01*
X110794126Y-107035000D01*
X111205874Y-107035000D01*
X111586280Y-106877431D01*
X111877431Y-106586280D01*
X112035000Y-106205874D01*
X112035000Y-105794126D01*
X111877431Y-105413720D01*
X111760000Y-105296289D01*
X111760000Y-98014801D01*
X112494020Y-97280781D01*
X112601161Y-97819418D01*
X112929375Y-98310625D01*
X113227761Y-98510000D01*
X112929375Y-98709375D01*
X112601161Y-99200582D01*
X112485908Y-99780000D01*
X112601161Y-100359418D01*
X112929375Y-100850625D01*
X113420582Y-101178839D01*
X113853744Y-101265000D01*
X114146256Y-101265000D01*
X114579418Y-101178839D01*
X115070625Y-100850625D01*
X115271353Y-100550214D01*
X115658642Y-100975183D01*
X116183108Y-101221486D01*
X116413000Y-101100819D01*
X116413000Y-99907000D01*
X116393000Y-99907000D01*
X116393000Y-99653000D01*
X116413000Y-99653000D01*
X116413000Y-99633000D01*
X116667000Y-99633000D01*
X116667000Y-99653000D01*
X116687000Y-99653000D01*
X116687000Y-99907000D01*
X116667000Y-99907000D01*
X116667000Y-101100819D01*
X116896892Y-101221486D01*
X117421358Y-100975183D01*
X117811645Y-100546924D01*
X117873000Y-100398791D01*
X117873000Y-117873000D01*
X116287767Y-117873000D01*
X116894741Y-117266026D01*
X117235000Y-116444569D01*
X117235000Y-115555431D01*
X116894741Y-114733974D01*
X116266026Y-114105259D01*
X115444569Y-113765000D01*
X114555431Y-113765000D01*
X113733974Y-114105259D01*
X113105259Y-114733974D01*
X112765000Y-115555431D01*
X112765000Y-116444569D01*
X113105259Y-117266026D01*
X113712233Y-117873000D01*
X26057538Y-117873000D01*
X26235000Y-117444569D01*
X26235000Y-116555431D01*
X25894741Y-115733974D01*
X25266026Y-115105259D01*
X24444569Y-114765000D01*
X23555431Y-114765000D01*
X22733974Y-115105259D01*
X22127000Y-115712233D01*
X22127000Y-106722657D01*
X22208663Y-106804320D01*
X22722119Y-107017000D01*
X23277881Y-107017000D01*
X23791337Y-106804320D01*
X24184320Y-106411337D01*
X24270000Y-106204487D01*
X24355680Y-106411337D01*
X24748663Y-106804320D01*
X24780001Y-106817300D01*
X24780000Y-110465153D01*
X24765112Y-110540000D01*
X24780000Y-110614847D01*
X24780000Y-110614851D01*
X24824096Y-110836536D01*
X24992071Y-111087929D01*
X25055530Y-111130331D01*
X28949671Y-115024473D01*
X28992071Y-115087929D01*
X29243463Y-115255904D01*
X29465148Y-115300000D01*
X29465152Y-115300000D01*
X29539999Y-115314888D01*
X29614846Y-115300000D01*
X53502560Y-115300000D01*
X53502560Y-115390000D01*
X53551843Y-115637765D01*
X53692191Y-115847809D01*
X53902235Y-115988157D01*
X54150000Y-116037440D01*
X55850000Y-116037440D01*
X56097765Y-115988157D01*
X56307809Y-115847809D01*
X56448157Y-115637765D01*
X56497440Y-115390000D01*
X56497440Y-113690000D01*
X56448157Y-113442235D01*
X56307809Y-113232191D01*
X56097765Y-113091843D01*
X56052381Y-113082816D01*
X56070625Y-113070625D01*
X56398839Y-112579418D01*
X56514092Y-112000000D01*
X56398839Y-111420582D01*
X56070625Y-110929375D01*
X55579418Y-110601161D01*
X55146256Y-110515000D01*
X54853744Y-110515000D01*
X54420582Y-110601161D01*
X54127000Y-110797326D01*
X54127000Y-95568601D01*
X54493800Y-95568601D01*
X56990001Y-98064804D01*
X56990000Y-114414155D01*
X56975112Y-114489002D01*
X56990000Y-114563849D01*
X56990000Y-114563853D01*
X57034096Y-114785538D01*
X57202071Y-115036931D01*
X57265530Y-115079333D01*
X58420671Y-116234476D01*
X58463069Y-116297929D01*
X58526522Y-116340327D01*
X58526524Y-116340329D01*
X58651900Y-116424102D01*
X58714461Y-116465904D01*
X58936146Y-116510000D01*
X58936150Y-116510000D01*
X59010997Y-116524888D01*
X59085844Y-116510000D01*
X62675153Y-116510000D01*
X62750000Y-116524888D01*
X62824847Y-116510000D01*
X62824852Y-116510000D01*
X63046537Y-116465904D01*
X63297929Y-116297929D01*
X63340331Y-116234470D01*
X63623429Y-115951372D01*
X63704615Y-115985000D01*
X64295385Y-115985000D01*
X64841185Y-115758922D01*
X65258922Y-115341185D01*
X65485000Y-114795385D01*
X65485000Y-114204615D01*
X65258922Y-113658815D01*
X64841185Y-113241078D01*
X64295385Y-113015000D01*
X63704615Y-113015000D01*
X63158815Y-113241078D01*
X62741078Y-113658815D01*
X62515000Y-114204615D01*
X62515000Y-114795385D01*
X62548628Y-114876571D01*
X62435199Y-114990000D01*
X60904388Y-114990000D01*
X60985000Y-114795385D01*
X60985000Y-114204615D01*
X60758922Y-113658815D01*
X60341185Y-113241078D01*
X60256615Y-113206048D01*
X60215904Y-113001382D01*
X60174102Y-112938821D01*
X60090329Y-112813445D01*
X60090327Y-112813443D01*
X60047929Y-112749990D01*
X59984476Y-112707592D01*
X59084999Y-111808117D01*
X59084999Y-109435453D01*
X59204615Y-109485000D01*
X59795385Y-109485000D01*
X60341185Y-109258922D01*
X60758922Y-108841185D01*
X60985000Y-108295385D01*
X60985000Y-108120131D01*
X61750000Y-107355132D01*
X62515000Y-108120132D01*
X62515000Y-108295385D01*
X62741078Y-108841185D01*
X63158815Y-109258922D01*
X63704615Y-109485000D01*
X64295385Y-109485000D01*
X64841185Y-109258922D01*
X65258922Y-108841185D01*
X65485000Y-108295385D01*
X65485000Y-107704615D01*
X65258922Y-107158815D01*
X64841185Y-106741078D01*
X64295385Y-106515000D01*
X64120132Y-106515000D01*
X62435000Y-104829869D01*
X62435000Y-103309359D01*
X62839249Y-103039249D01*
X63311126Y-102333036D01*
X63435000Y-101710279D01*
X63435000Y-100289722D01*
X63381977Y-100023155D01*
X67065010Y-96340122D01*
X67065010Y-98643874D01*
X66833036Y-98488874D01*
X66000000Y-98323173D01*
X65166965Y-98488874D01*
X64460752Y-98960751D01*
X63988874Y-99666964D01*
X63865000Y-100289721D01*
X63865000Y-101710278D01*
X63988874Y-102333035D01*
X64460751Y-103039249D01*
X65166964Y-103511126D01*
X66000000Y-103676827D01*
X66833035Y-103511126D01*
X67065000Y-103356132D01*
X67064999Y-112048071D01*
X67050111Y-112122918D01*
X67064999Y-112197765D01*
X67064999Y-112197769D01*
X67109095Y-112419454D01*
X67277070Y-112670847D01*
X67340529Y-112713249D01*
X68013586Y-113386307D01*
X67741078Y-113658815D01*
X67515000Y-114204615D01*
X67515000Y-114795385D01*
X67741078Y-115341185D01*
X68158815Y-115758922D01*
X68704615Y-115985000D01*
X69295385Y-115985000D01*
X69841185Y-115758922D01*
X70258922Y-115341185D01*
X70485000Y-114795385D01*
X70485000Y-114204615D01*
X72015000Y-114204615D01*
X72015000Y-114795385D01*
X72241078Y-115341185D01*
X72658815Y-115758922D01*
X73204615Y-115985000D01*
X73795385Y-115985000D01*
X74341185Y-115758922D01*
X74758922Y-115341185D01*
X74985000Y-114795385D01*
X74985000Y-114204615D01*
X74758922Y-113658815D01*
X74341185Y-113241078D01*
X73795385Y-113015000D01*
X73204615Y-113015000D01*
X72658815Y-113241078D01*
X72241078Y-113658815D01*
X72015000Y-114204615D01*
X70485000Y-114204615D01*
X70258922Y-113658815D01*
X69841185Y-113241078D01*
X69756615Y-113206048D01*
X69715904Y-113001382D01*
X69674102Y-112938821D01*
X69590329Y-112813445D01*
X69590327Y-112813443D01*
X69547929Y-112749990D01*
X69484476Y-112707592D01*
X68584999Y-111808117D01*
X68584999Y-109429144D01*
X68771279Y-109496718D01*
X69361458Y-109470315D01*
X69784080Y-109295259D01*
X69864353Y-109043958D01*
X72635647Y-109043958D01*
X72715920Y-109295259D01*
X73271279Y-109496718D01*
X73861458Y-109470315D01*
X74284080Y-109295259D01*
X74364353Y-109043958D01*
X73500000Y-108179605D01*
X72635647Y-109043958D01*
X69864353Y-109043958D01*
X69000000Y-108179605D01*
X68985858Y-108193748D01*
X68806253Y-108014143D01*
X68820395Y-108000000D01*
X69179605Y-108000000D01*
X70043958Y-108864353D01*
X70295259Y-108784080D01*
X70496718Y-108228721D01*
X70476254Y-107771279D01*
X72003282Y-107771279D01*
X72029685Y-108361458D01*
X72204741Y-108784080D01*
X72456042Y-108864353D01*
X73320395Y-108000000D01*
X73679605Y-108000000D01*
X74543958Y-108864353D01*
X74763809Y-108794126D01*
X100465000Y-108794126D01*
X100465000Y-109205874D01*
X100622569Y-109586280D01*
X100740000Y-109703711D01*
X100740001Y-114796288D01*
X100622569Y-114913720D01*
X100465000Y-115294126D01*
X100465000Y-115705874D01*
X100622569Y-116086280D01*
X100913720Y-116377431D01*
X101294126Y-116535000D01*
X101705874Y-116535000D01*
X102086280Y-116377431D01*
X102377431Y-116086280D01*
X102535000Y-115705874D01*
X102535000Y-115294126D01*
X102377431Y-114913720D01*
X102260000Y-114796289D01*
X102260000Y-109703711D01*
X102377431Y-109586280D01*
X102535000Y-109205874D01*
X102535000Y-108794126D01*
X103465000Y-108794126D01*
X103465000Y-109205874D01*
X103622569Y-109586280D01*
X103740000Y-109703711D01*
X103740001Y-114796288D01*
X103622569Y-114913720D01*
X103465000Y-115294126D01*
X103465000Y-115705874D01*
X103622569Y-116086280D01*
X103913720Y-116377431D01*
X104294126Y-116535000D01*
X104705874Y-116535000D01*
X105086280Y-116377431D01*
X105377431Y-116086280D01*
X105535000Y-115705874D01*
X105535000Y-115294126D01*
X105377431Y-114913720D01*
X105260000Y-114796289D01*
X105260000Y-109703711D01*
X105377431Y-109586280D01*
X105535000Y-109205874D01*
X105535000Y-108794126D01*
X105377431Y-108413720D01*
X105086280Y-108122569D01*
X104705874Y-107965000D01*
X104294126Y-107965000D01*
X103913720Y-108122569D01*
X103622569Y-108413720D01*
X103465000Y-108794126D01*
X102535000Y-108794126D01*
X102377431Y-108413720D01*
X102086280Y-108122569D01*
X101705874Y-107965000D01*
X101294126Y-107965000D01*
X100913720Y-108122569D01*
X100622569Y-108413720D01*
X100465000Y-108794126D01*
X74763809Y-108794126D01*
X74795259Y-108784080D01*
X74996718Y-108228721D01*
X74970315Y-107638542D01*
X74795259Y-107215920D01*
X74543958Y-107135647D01*
X73679605Y-108000000D01*
X73320395Y-108000000D01*
X72456042Y-107135647D01*
X72204741Y-107215920D01*
X72003282Y-107771279D01*
X70476254Y-107771279D01*
X70470315Y-107638542D01*
X70295259Y-107215920D01*
X70043958Y-107135647D01*
X69179605Y-108000000D01*
X68820395Y-108000000D01*
X68806253Y-107985858D01*
X68985858Y-107806253D01*
X69000000Y-107820395D01*
X69864353Y-106956042D01*
X72635647Y-106956042D01*
X73500000Y-107820395D01*
X74364353Y-106956042D01*
X74284080Y-106704741D01*
X73728721Y-106503282D01*
X73138542Y-106529685D01*
X72715920Y-106704741D01*
X72635647Y-106956042D01*
X69864353Y-106956042D01*
X69784080Y-106704741D01*
X69228721Y-106503282D01*
X68638542Y-106529685D01*
X68584999Y-106551863D01*
X68584999Y-102330850D01*
X68585010Y-102330795D01*
X68585010Y-102330791D01*
X68599898Y-102255943D01*
X68585010Y-102181095D01*
X68585010Y-101703523D01*
X68776118Y-102434362D01*
X69280130Y-103099476D01*
X70000304Y-103521084D01*
X70241167Y-103585113D01*
X70573000Y-103472165D01*
X70573000Y-101127000D01*
X70827000Y-101127000D01*
X70827000Y-103472165D01*
X71158833Y-103585113D01*
X71399696Y-103521084D01*
X72119870Y-103099476D01*
X72623882Y-102434362D01*
X72835000Y-101627000D01*
X72835000Y-101127000D01*
X70827000Y-101127000D01*
X70573000Y-101127000D01*
X70553000Y-101127000D01*
X70553000Y-100873000D01*
X70573000Y-100873000D01*
X70573000Y-98527835D01*
X70827000Y-98527835D01*
X70827000Y-100873000D01*
X72835000Y-100873000D01*
X72835000Y-100373000D01*
X72623882Y-99565638D01*
X72119870Y-98900524D01*
X71399696Y-98478916D01*
X71158833Y-98414887D01*
X70827000Y-98527835D01*
X70573000Y-98527835D01*
X70241167Y-98414887D01*
X70000304Y-98478916D01*
X69280130Y-98900524D01*
X68776118Y-99565638D01*
X68585010Y-100296477D01*
X68585010Y-92535000D01*
X68955874Y-92535000D01*
X69336280Y-92377431D01*
X69627431Y-92086280D01*
X69785000Y-91705874D01*
X69785000Y-91294126D01*
X69627431Y-90913720D01*
X69510000Y-90796289D01*
X69510000Y-86324848D01*
X69524888Y-86250000D01*
X69510000Y-86175152D01*
X69510000Y-86175148D01*
X69465904Y-85953463D01*
X69465904Y-85953462D01*
X69340329Y-85765527D01*
X69297929Y-85702071D01*
X69234473Y-85659671D01*
X68035000Y-84460199D01*
X68035000Y-84436890D01*
X69558524Y-84436890D01*
X69728355Y-84846924D01*
X70118642Y-85275183D01*
X70643108Y-85521486D01*
X70873000Y-85400819D01*
X70873000Y-84207000D01*
X71127000Y-84207000D01*
X71127000Y-85400819D01*
X71356892Y-85521486D01*
X71881358Y-85275183D01*
X72270000Y-84848729D01*
X72658642Y-85275183D01*
X73183108Y-85521486D01*
X73413000Y-85400819D01*
X73413000Y-84207000D01*
X73667000Y-84207000D01*
X73667000Y-85400819D01*
X73896892Y-85521486D01*
X74421358Y-85275183D01*
X74811645Y-84846924D01*
X74981476Y-84436890D01*
X74860155Y-84207000D01*
X73667000Y-84207000D01*
X73413000Y-84207000D01*
X71127000Y-84207000D01*
X70873000Y-84207000D01*
X69679845Y-84207000D01*
X69558524Y-84436890D01*
X68035000Y-84436890D01*
X68035000Y-84294126D01*
X67877431Y-83913720D01*
X67586280Y-83622569D01*
X67205874Y-83465000D01*
X66794126Y-83465000D01*
X66413720Y-83622569D01*
X66122569Y-83913720D01*
X65965000Y-84294126D01*
X65965000Y-84390199D01*
X64419999Y-82845198D01*
X64419999Y-79865567D01*
X64599697Y-79940000D01*
X65220303Y-79940000D01*
X65793669Y-79702504D01*
X66232504Y-79263669D01*
X66470000Y-78690303D01*
X66470000Y-78069697D01*
X66232504Y-77496331D01*
X65793669Y-77057496D01*
X65220303Y-76820000D01*
X64599697Y-76820000D01*
X64026331Y-77057496D01*
X63953879Y-77129948D01*
X59254103Y-72430171D01*
X59373037Y-72252174D01*
X59751510Y-72666821D01*
X60280973Y-72914968D01*
X60513000Y-72794469D01*
X60513000Y-71587000D01*
X60767000Y-71587000D01*
X60767000Y-72794469D01*
X60999027Y-72914968D01*
X61528490Y-72666821D01*
X61910000Y-72248848D01*
X62291510Y-72666821D01*
X62820973Y-72914968D01*
X63053000Y-72794469D01*
X63053000Y-71587000D01*
X60767000Y-71587000D01*
X60513000Y-71587000D01*
X60493000Y-71587000D01*
X60493000Y-71333000D01*
X60513000Y-71333000D01*
X60513000Y-71313000D01*
X60767000Y-71313000D01*
X60767000Y-71333000D01*
X63053000Y-71333000D01*
X63053000Y-71313000D01*
X63307000Y-71313000D01*
X63307000Y-71333000D01*
X63327000Y-71333000D01*
X63327000Y-71587000D01*
X63307000Y-71587000D01*
X63307000Y-72794469D01*
X63539027Y-72914968D01*
X64068490Y-72666821D01*
X64446963Y-72252174D01*
X64639570Y-72540430D01*
X65135275Y-72871650D01*
X65572402Y-72958600D01*
X65867598Y-72958600D01*
X66304725Y-72871650D01*
X66800430Y-72540430D01*
X67077828Y-72125276D01*
X70115000Y-75162449D01*
X70115001Y-77509522D01*
X69902235Y-77551843D01*
X69692191Y-77692191D01*
X69551843Y-77902235D01*
X69502560Y-78150000D01*
X69502560Y-79850000D01*
X69551843Y-80097765D01*
X69692191Y-80307809D01*
X69902235Y-80448157D01*
X69947619Y-80457184D01*
X69929375Y-80469375D01*
X69601161Y-80960582D01*
X69485908Y-81540000D01*
X69601161Y-82119418D01*
X69929375Y-82610625D01*
X70248478Y-82823843D01*
X70118642Y-82884817D01*
X69728355Y-83313076D01*
X69558524Y-83723110D01*
X69679845Y-83953000D01*
X70873000Y-83953000D01*
X70873000Y-83933000D01*
X71127000Y-83933000D01*
X71127000Y-83953000D01*
X73413000Y-83953000D01*
X73413000Y-83933000D01*
X73667000Y-83933000D01*
X73667000Y-83953000D01*
X74860155Y-83953000D01*
X74981476Y-83723110D01*
X74811645Y-83313076D01*
X74421358Y-82884817D01*
X74291522Y-82823843D01*
X74610625Y-82610625D01*
X74938839Y-82119418D01*
X75054092Y-81540000D01*
X74938839Y-80960582D01*
X74610625Y-80469375D01*
X74312239Y-80270000D01*
X74610625Y-80070625D01*
X74938839Y-79579418D01*
X75054092Y-79000000D01*
X74938839Y-78420582D01*
X74610625Y-77929375D01*
X74119418Y-77601161D01*
X73686256Y-77515000D01*
X73393744Y-77515000D01*
X72960582Y-77601161D01*
X72469375Y-77929375D01*
X72457184Y-77947619D01*
X72448157Y-77902235D01*
X72307809Y-77692191D01*
X72097765Y-77551843D01*
X71885000Y-77509522D01*
X71885000Y-74883029D01*
X71902337Y-74795869D01*
X71885000Y-74708709D01*
X71885000Y-74708705D01*
X71833652Y-74450560D01*
X71761615Y-74342750D01*
X71687424Y-74231715D01*
X71687423Y-74231714D01*
X71638049Y-74157821D01*
X71564156Y-74108447D01*
X70355189Y-72899481D01*
X70652402Y-72958600D01*
X70947598Y-72958600D01*
X71384725Y-72871650D01*
X71880430Y-72540430D01*
X72070000Y-72256719D01*
X72259570Y-72540430D01*
X72755275Y-72871650D01*
X73192402Y-72958600D01*
X73487598Y-72958600D01*
X73924725Y-72871650D01*
X74420430Y-72540430D01*
X74610000Y-72256719D01*
X74799570Y-72540430D01*
X75295275Y-72871650D01*
X75732402Y-72958600D01*
X76027598Y-72958600D01*
X76464725Y-72871650D01*
X76960430Y-72540430D01*
X77150000Y-72256719D01*
X77339570Y-72540430D01*
X77835275Y-72871650D01*
X78272402Y-72958600D01*
X78567598Y-72958600D01*
X78876917Y-72897073D01*
X78916348Y-73095309D01*
X79062576Y-73314154D01*
X79968759Y-74220337D01*
X79955874Y-74215000D01*
X79544126Y-74215000D01*
X79163720Y-74372569D01*
X78872569Y-74663720D01*
X78715000Y-75044126D01*
X78715000Y-75455874D01*
X78872569Y-75836280D01*
X78990001Y-75953712D01*
X78990000Y-77415199D01*
X77760000Y-76185199D01*
X77760000Y-75703711D01*
X77877431Y-75586280D01*
X78035000Y-75205874D01*
X78035000Y-74794126D01*
X77877431Y-74413720D01*
X77586280Y-74122569D01*
X77205874Y-73965000D01*
X76794126Y-73965000D01*
X76413720Y-74122569D01*
X76122569Y-74413720D01*
X75965000Y-74794126D01*
X75965000Y-75067197D01*
X75785000Y-74887197D01*
X75785000Y-74794126D01*
X75627431Y-74413720D01*
X75336280Y-74122569D01*
X74955874Y-73965000D01*
X74544126Y-73965000D01*
X74163720Y-74122569D01*
X73872569Y-74413720D01*
X73715000Y-74794126D01*
X73715000Y-75205874D01*
X73872569Y-75586280D01*
X74163720Y-75877431D01*
X74544126Y-76035000D01*
X74783201Y-76035000D01*
X80767244Y-82019045D01*
X80750000Y-82036289D01*
X80586280Y-81872569D01*
X80205874Y-81715000D01*
X79794126Y-81715000D01*
X79413720Y-81872569D01*
X79122569Y-82163720D01*
X78988175Y-82488175D01*
X78663720Y-82622569D01*
X78372569Y-82913720D01*
X78215000Y-83294126D01*
X78215000Y-83705874D01*
X78372569Y-84086280D01*
X78490001Y-84203712D01*
X78490000Y-90546289D01*
X78372569Y-90663720D01*
X78215000Y-91044126D01*
X78215000Y-91455874D01*
X78372569Y-91836280D01*
X78663720Y-92127431D01*
X78988175Y-92261825D01*
X79122569Y-92586280D01*
X79413720Y-92877431D01*
X79794126Y-93035000D01*
X80205874Y-93035000D01*
X80586280Y-92877431D01*
X80750000Y-92713711D01*
X80913720Y-92877431D01*
X81294126Y-93035000D01*
X81705874Y-93035000D01*
X82086280Y-92877431D01*
X82250000Y-92713711D01*
X82413720Y-92877431D01*
X82794126Y-93035000D01*
X83205874Y-93035000D01*
X83586280Y-92877431D01*
X83750000Y-92713711D01*
X83913720Y-92877431D01*
X84294126Y-93035000D01*
X84705874Y-93035000D01*
X85086280Y-92877431D01*
X85377431Y-92586280D01*
X85535000Y-92205874D01*
X85535000Y-91794126D01*
X85377431Y-91413720D01*
X85260000Y-91296289D01*
X85260000Y-83438436D01*
X85274888Y-83363589D01*
X85260000Y-83288742D01*
X85260000Y-83288738D01*
X85215904Y-83067053D01*
X85047929Y-82815661D01*
X84984472Y-82773260D01*
X84790339Y-82579128D01*
X84790338Y-82579126D01*
X80510000Y-78298789D01*
X80510000Y-75953711D01*
X80627431Y-75836280D01*
X80785000Y-75455874D01*
X80785000Y-75044126D01*
X80779663Y-75031242D01*
X81562577Y-75814156D01*
X81611951Y-75888049D01*
X81685844Y-75937423D01*
X81685845Y-75937424D01*
X81904690Y-76083652D01*
X82162835Y-76135000D01*
X82162839Y-76135000D01*
X82250000Y-76152337D01*
X82337161Y-76135000D01*
X88931993Y-76135000D01*
X89294126Y-76285000D01*
X89705874Y-76285000D01*
X89769999Y-76258439D01*
X89769999Y-77055000D01*
X89384615Y-77055000D01*
X88838815Y-77281078D01*
X88421078Y-77698815D01*
X88410000Y-77725560D01*
X88398922Y-77698815D01*
X87981185Y-77281078D01*
X87435385Y-77055000D01*
X86844615Y-77055000D01*
X86298815Y-77281078D01*
X85881078Y-77698815D01*
X85870000Y-77725560D01*
X85858922Y-77698815D01*
X85441185Y-77281078D01*
X84895385Y-77055000D01*
X84304615Y-77055000D01*
X83758815Y-77281078D01*
X83341078Y-77698815D01*
X83115000Y-78244615D01*
X83115000Y-78835385D01*
X83341078Y-79381185D01*
X83758815Y-79798922D01*
X84304615Y-80025000D01*
X84895385Y-80025000D01*
X85441185Y-79798922D01*
X85858922Y-79381185D01*
X85870000Y-79354440D01*
X85881078Y-79381185D01*
X86298815Y-79798922D01*
X86380001Y-79832550D01*
X86380000Y-96005197D01*
X84976570Y-97408628D01*
X84895385Y-97375000D01*
X84304615Y-97375000D01*
X83758815Y-97601078D01*
X83341078Y-98018815D01*
X83115000Y-98564615D01*
X83115000Y-99155385D01*
X83341078Y-99701185D01*
X83758815Y-100118922D01*
X84304615Y-100345000D01*
X84895385Y-100345000D01*
X85441185Y-100118922D01*
X85858922Y-99701185D01*
X85870000Y-99674440D01*
X85881078Y-99701185D01*
X86298815Y-100118922D01*
X86844615Y-100345000D01*
X87435385Y-100345000D01*
X87516570Y-100311372D01*
X87724674Y-100519477D01*
X87767072Y-100582930D01*
X87830525Y-100625328D01*
X87830527Y-100625330D01*
X87955903Y-100709103D01*
X88018464Y-100750905D01*
X88240149Y-100795001D01*
X88240153Y-100795001D01*
X88315000Y-100809889D01*
X88389847Y-100795001D01*
X90169154Y-100795001D01*
X90244001Y-100809889D01*
X90318848Y-100795001D01*
X90318853Y-100795001D01*
X90540538Y-100750905D01*
X90791930Y-100582930D01*
X90834332Y-100519471D01*
X91306848Y-100046955D01*
X91378815Y-100118922D01*
X91924615Y-100345000D01*
X92515385Y-100345000D01*
X93061185Y-100118922D01*
X93478922Y-99701185D01*
X93490000Y-99674440D01*
X93501078Y-99701185D01*
X93918815Y-100118922D01*
X94464615Y-100345000D01*
X95055385Y-100345000D01*
X95601185Y-100118922D01*
X96018922Y-99701185D01*
X96030000Y-99674440D01*
X96041078Y-99701185D01*
X96458815Y-100118922D01*
X97004615Y-100345000D01*
X97595385Y-100345000D01*
X98141185Y-100118922D01*
X98558922Y-99701185D01*
X98570000Y-99674440D01*
X98581078Y-99701185D01*
X98998815Y-100118922D01*
X99544615Y-100345000D01*
X100135385Y-100345000D01*
X100681185Y-100118922D01*
X100896149Y-99903958D01*
X101515647Y-99903958D01*
X101595920Y-100155259D01*
X102151279Y-100356718D01*
X102741458Y-100330315D01*
X103164080Y-100155259D01*
X103244353Y-99903958D01*
X102380000Y-99039605D01*
X101515647Y-99903958D01*
X100896149Y-99903958D01*
X101098922Y-99701185D01*
X101118155Y-99654753D01*
X101336042Y-99724353D01*
X102200395Y-98860000D01*
X102559605Y-98860000D01*
X103423958Y-99724353D01*
X103675259Y-99644080D01*
X103876718Y-99088721D01*
X103850315Y-98498542D01*
X103675259Y-98075920D01*
X103423958Y-97995647D01*
X102559605Y-98860000D01*
X102200395Y-98860000D01*
X101336042Y-97995647D01*
X101118155Y-98065247D01*
X101098922Y-98018815D01*
X100896149Y-97816042D01*
X101515647Y-97816042D01*
X102380000Y-98680395D01*
X103244353Y-97816042D01*
X103164080Y-97564741D01*
X102608721Y-97363282D01*
X102018542Y-97389685D01*
X101595920Y-97564741D01*
X101515647Y-97816042D01*
X100896149Y-97816042D01*
X100681185Y-97601078D01*
X100135385Y-97375000D01*
X99544615Y-97375000D01*
X98998815Y-97601078D01*
X98581078Y-98018815D01*
X98570000Y-98045560D01*
X98558922Y-98018815D01*
X98141185Y-97601078D01*
X97595385Y-97375000D01*
X97004615Y-97375000D01*
X96458815Y-97601078D01*
X96041078Y-98018815D01*
X96030000Y-98045560D01*
X96018922Y-98018815D01*
X95601185Y-97601078D01*
X95055385Y-97375000D01*
X94464615Y-97375000D01*
X93918815Y-97601078D01*
X93501078Y-98018815D01*
X93490000Y-98045560D01*
X93478922Y-98018815D01*
X93061185Y-97601078D01*
X92515385Y-97375000D01*
X91924615Y-97375000D01*
X91804999Y-97424547D01*
X91804999Y-93269802D01*
X93510084Y-91564717D01*
X93622569Y-91836280D01*
X93913720Y-92127431D01*
X94294126Y-92285000D01*
X94705874Y-92285000D01*
X95086280Y-92127431D01*
X95377431Y-91836280D01*
X95527431Y-91474147D01*
X101724148Y-85277430D01*
X102086280Y-85127431D01*
X102377431Y-84836280D01*
X102535000Y-84455874D01*
X102535000Y-84044126D01*
X102377431Y-83663720D01*
X102086280Y-83372569D01*
X101814717Y-83260084D01*
X108195872Y-76878930D01*
X108259328Y-76836530D01*
X108427303Y-76585138D01*
X108471399Y-76363453D01*
X108471399Y-76363448D01*
X108486287Y-76288601D01*
X108471399Y-76213754D01*
X108471399Y-72902705D01*
X108752402Y-72958600D01*
X109047598Y-72958600D01*
X109484725Y-72871650D01*
X109980430Y-72540430D01*
X110170000Y-72256719D01*
X110359570Y-72540430D01*
X110855275Y-72871650D01*
X111292402Y-72958600D01*
X111587598Y-72958600D01*
X112024725Y-72871650D01*
X112520430Y-72540430D01*
X112851650Y-72044725D01*
X112967959Y-71460000D01*
X112851650Y-70875275D01*
X112520430Y-70379570D01*
X112024725Y-70048350D01*
X111587598Y-69961400D01*
X111292402Y-69961400D01*
X110855275Y-70048350D01*
X110359570Y-70379570D01*
X110170000Y-70663281D01*
X109980430Y-70379570D01*
X109484725Y-70048350D01*
X109047598Y-69961400D01*
X108752402Y-69961400D01*
X108471399Y-70017295D01*
X108471399Y-66739026D01*
X112525042Y-66739026D01*
X112697312Y-67154947D01*
X113091510Y-67586821D01*
X113620973Y-67834968D01*
X113853000Y-67714469D01*
X113853000Y-66507000D01*
X114107000Y-66507000D01*
X114107000Y-67714469D01*
X114339027Y-67834968D01*
X114868490Y-67586821D01*
X115250000Y-67168848D01*
X115631510Y-67586821D01*
X116160973Y-67834968D01*
X116393000Y-67714469D01*
X116393000Y-66507000D01*
X114107000Y-66507000D01*
X113853000Y-66507000D01*
X112646183Y-66507000D01*
X112525042Y-66739026D01*
X108471399Y-66739026D01*
X108471399Y-66124272D01*
X112625466Y-61970205D01*
X112899570Y-62380430D01*
G36*
X33005000Y-22755431D02*
X33005000Y-23644569D01*
X33345259Y-24466026D01*
X33973974Y-25094741D01*
X34795431Y-25435000D01*
X35684569Y-25435000D01*
X36506026Y-25094741D01*
X37134741Y-24466026D01*
X37404472Y-23814839D01*
X37715570Y-24280430D01*
X38211275Y-24611650D01*
X38648402Y-24698600D01*
X38943598Y-24698600D01*
X39380725Y-24611650D01*
X39876430Y-24280430D01*
X40066000Y-23996719D01*
X40255570Y-24280430D01*
X40751275Y-24611650D01*
X41188402Y-24698600D01*
X41483598Y-24698600D01*
X41920725Y-24611650D01*
X42416430Y-24280430D01*
X42606000Y-23996719D01*
X42795570Y-24280430D01*
X43291275Y-24611650D01*
X43728402Y-24698600D01*
X44023598Y-24698600D01*
X44460725Y-24611650D01*
X44956430Y-24280430D01*
X45149037Y-23992174D01*
X45527510Y-24406821D01*
X46056973Y-24654968D01*
X46289000Y-24534469D01*
X46289000Y-23327000D01*
X46269000Y-23327000D01*
X46269000Y-23073000D01*
X46289000Y-23073000D01*
X46289000Y-23053000D01*
X46543000Y-23053000D01*
X46543000Y-23073000D01*
X46563000Y-23073000D01*
X46563000Y-23327000D01*
X46543000Y-23327000D01*
X46543000Y-24534469D01*
X46775027Y-24654968D01*
X47304490Y-24406821D01*
X47682963Y-23992174D01*
X47875570Y-24280430D01*
X48371275Y-24611650D01*
X48808402Y-24698600D01*
X49103598Y-24698600D01*
X49540725Y-24611650D01*
X50036430Y-24280430D01*
X50226000Y-23996719D01*
X50415570Y-24280430D01*
X50911275Y-24611650D01*
X51348402Y-24698600D01*
X51643598Y-24698600D01*
X52080725Y-24611650D01*
X52576430Y-24280430D01*
X52766000Y-23996719D01*
X52955570Y-24280430D01*
X53451275Y-24611650D01*
X53888402Y-24698600D01*
X54183598Y-24698600D01*
X54620725Y-24611650D01*
X55116430Y-24280430D01*
X55306000Y-23996719D01*
X55495570Y-24280430D01*
X55991275Y-24611650D01*
X56428402Y-24698600D01*
X56723598Y-24698600D01*
X57160725Y-24611650D01*
X57656430Y-24280430D01*
X57846000Y-23996719D01*
X58035570Y-24280430D01*
X58531275Y-24611650D01*
X58968402Y-24698600D01*
X59263598Y-24698600D01*
X59700725Y-24611650D01*
X60196430Y-24280430D01*
X60386000Y-23996719D01*
X60575570Y-24280430D01*
X61071275Y-24611650D01*
X61508402Y-24698600D01*
X61803598Y-24698600D01*
X62240725Y-24611650D01*
X62736430Y-24280430D01*
X63067650Y-23784725D01*
X63183959Y-23200000D01*
X63067650Y-22615275D01*
X62741395Y-22127000D01*
X64634605Y-22127000D01*
X64308350Y-22615275D01*
X64192041Y-23200000D01*
X64308350Y-23784725D01*
X64639570Y-24280430D01*
X65135275Y-24611650D01*
X65572402Y-24698600D01*
X65867598Y-24698600D01*
X66304725Y-24611650D01*
X66800430Y-24280430D01*
X66990000Y-23996719D01*
X67179570Y-24280430D01*
X67675275Y-24611650D01*
X68112402Y-24698600D01*
X68407598Y-24698600D01*
X68844725Y-24611650D01*
X69340430Y-24280430D01*
X69530000Y-23996719D01*
X69719570Y-24280430D01*
X70215275Y-24611650D01*
X70652402Y-24698600D01*
X70947598Y-24698600D01*
X71384725Y-24611650D01*
X71880430Y-24280430D01*
X72070000Y-23996719D01*
X72259570Y-24280430D01*
X72755275Y-24611650D01*
X73192402Y-24698600D01*
X73487598Y-24698600D01*
X73924725Y-24611650D01*
X74420430Y-24280430D01*
X74610000Y-23996719D01*
X74799570Y-24280430D01*
X75295275Y-24611650D01*
X75732402Y-24698600D01*
X76027598Y-24698600D01*
X76464725Y-24611650D01*
X76960430Y-24280430D01*
X77150000Y-23996719D01*
X77339570Y-24280430D01*
X77835275Y-24611650D01*
X78272402Y-24698600D01*
X78567598Y-24698600D01*
X79004725Y-24611650D01*
X79500430Y-24280430D01*
X79690000Y-23996719D01*
X79879570Y-24280430D01*
X80375275Y-24611650D01*
X80812402Y-24698600D01*
X81107598Y-24698600D01*
X81544725Y-24611650D01*
X82040430Y-24280430D01*
X82230000Y-23996719D01*
X82419570Y-24280430D01*
X82915275Y-24611650D01*
X83352402Y-24698600D01*
X83647598Y-24698600D01*
X84084725Y-24611650D01*
X84580430Y-24280430D01*
X84911650Y-23784725D01*
X85027959Y-23200000D01*
X84911650Y-22615275D01*
X84585395Y-22127000D01*
X87494605Y-22127000D01*
X87168350Y-22615275D01*
X87052041Y-23200000D01*
X87168350Y-23784725D01*
X87499570Y-24280430D01*
X87995275Y-24611650D01*
X88432402Y-24698600D01*
X88727598Y-24698600D01*
X89164725Y-24611650D01*
X89660430Y-24280430D01*
X89850000Y-23996719D01*
X90039570Y-24280430D01*
X90535275Y-24611650D01*
X90972402Y-24698600D01*
X91267598Y-24698600D01*
X91704725Y-24611650D01*
X92200430Y-24280430D01*
X92390000Y-23996719D01*
X92579570Y-24280430D01*
X93075275Y-24611650D01*
X93512402Y-24698600D01*
X93807598Y-24698600D01*
X94244725Y-24611650D01*
X94740430Y-24280430D01*
X94930000Y-23996719D01*
X95119570Y-24280430D01*
X95529795Y-24554534D01*
X92019330Y-28064999D01*
X76629847Y-28064999D01*
X76555000Y-28050111D01*
X76480153Y-28064999D01*
X76480149Y-28064999D01*
X76258464Y-28109095D01*
X76007072Y-28277070D01*
X75964670Y-28340529D01*
X75746408Y-28558791D01*
X75526256Y-28515000D01*
X75233744Y-28515000D01*
X74800582Y-28601161D01*
X74309375Y-28929375D01*
X74110000Y-29227761D01*
X73910625Y-28929375D01*
X73419418Y-28601161D01*
X72986256Y-28515000D01*
X72693744Y-28515000D01*
X72260582Y-28601161D01*
X71769375Y-28929375D01*
X71556157Y-29248478D01*
X71495183Y-29118642D01*
X71066924Y-28728355D01*
X70656890Y-28558524D01*
X70427000Y-28679845D01*
X70427000Y-29873000D01*
X70447000Y-29873000D01*
X70447000Y-30127000D01*
X70427000Y-30127000D01*
X70427000Y-31320155D01*
X70656890Y-31441476D01*
X71066924Y-31271645D01*
X71495183Y-30881358D01*
X71556157Y-30751522D01*
X71769375Y-31070625D01*
X72260582Y-31398839D01*
X72693744Y-31485000D01*
X72986256Y-31485000D01*
X73419418Y-31398839D01*
X73910625Y-31070625D01*
X74110000Y-30772239D01*
X74309375Y-31070625D01*
X74800582Y-31398839D01*
X75233744Y-31485000D01*
X75526256Y-31485000D01*
X75959418Y-31398839D01*
X76450625Y-31070625D01*
X76650000Y-30772239D01*
X76849375Y-31070625D01*
X77340582Y-31398839D01*
X77773744Y-31485000D01*
X78066256Y-31485000D01*
X78499418Y-31398839D01*
X78990625Y-31070625D01*
X79190000Y-30772239D01*
X79325001Y-30974282D01*
X79325000Y-32098216D01*
X79302765Y-32210000D01*
X79325000Y-32321782D01*
X79390854Y-32652854D01*
X79641711Y-33028289D01*
X79736482Y-33091613D01*
X80865001Y-34220133D01*
X80865000Y-38111782D01*
X80930854Y-38442854D01*
X81181711Y-38818289D01*
X81557145Y-39069146D01*
X82000000Y-39157235D01*
X82442854Y-39069146D01*
X82818289Y-38818289D01*
X83069146Y-38442855D01*
X83135000Y-38111783D01*
X83135000Y-37995431D01*
X83805000Y-37995431D01*
X83805000Y-38884569D01*
X84145259Y-39706026D01*
X84773974Y-40334741D01*
X85595431Y-40675000D01*
X86484569Y-40675000D01*
X87306026Y-40334741D01*
X87934741Y-39706026D01*
X88275000Y-38884569D01*
X88275000Y-37995431D01*
X87934741Y-37173974D01*
X87306026Y-36545259D01*
X86484569Y-36205000D01*
X85595431Y-36205000D01*
X84773974Y-36545259D01*
X84145259Y-37173974D01*
X83805000Y-37995431D01*
X83135000Y-37995431D01*
X83135000Y-34220131D01*
X83220132Y-34135000D01*
X93651289Y-34135000D01*
X93622569Y-34163720D01*
X93465000Y-34544126D01*
X93465000Y-34955874D01*
X93622569Y-35336280D01*
X93913720Y-35627431D01*
X94294126Y-35785000D01*
X94460199Y-35785000D01*
X95884672Y-37209474D01*
X95927072Y-37272930D01*
X96178464Y-37440905D01*
X96400149Y-37485001D01*
X96400153Y-37485001D01*
X96475000Y-37499889D01*
X96549847Y-37485001D01*
X101965000Y-37485001D01*
X101965000Y-37705874D01*
X102122569Y-38086280D01*
X102413720Y-38377431D01*
X102794126Y-38535000D01*
X103205874Y-38535000D01*
X103586280Y-38377431D01*
X103877431Y-38086280D01*
X103909027Y-38010000D01*
X109796289Y-38010000D01*
X109913720Y-38127431D01*
X110294126Y-38285000D01*
X110705874Y-38285000D01*
X111086280Y-38127431D01*
X111377431Y-37836280D01*
X111535000Y-37455874D01*
X111535000Y-37044126D01*
X111377431Y-36663720D01*
X111338711Y-36625000D01*
X111377431Y-36586280D01*
X111535000Y-36205874D01*
X111535000Y-35794126D01*
X111377431Y-35413720D01*
X111086280Y-35122569D01*
X110705874Y-34965000D01*
X110294126Y-34965000D01*
X109913720Y-35122569D01*
X109622569Y-35413720D01*
X109465000Y-35794126D01*
X109465000Y-35960199D01*
X109460198Y-35965001D01*
X108682802Y-35965001D01*
X111879203Y-32768601D01*
X112572809Y-32768601D01*
X112568350Y-32775275D01*
X112452041Y-33360000D01*
X112568350Y-33944725D01*
X112899570Y-34440430D01*
X113183281Y-34630000D01*
X112899570Y-34819570D01*
X112568350Y-35315275D01*
X112452041Y-35900000D01*
X112568350Y-36484725D01*
X112899570Y-36980430D01*
X113183281Y-37170000D01*
X112899570Y-37359570D01*
X112568350Y-37855275D01*
X112452041Y-38440000D01*
X112568350Y-39024725D01*
X112899570Y-39520430D01*
X113183281Y-39710000D01*
X112899570Y-39899570D01*
X112568350Y-40395275D01*
X112452041Y-40980000D01*
X112568350Y-41564725D01*
X112899570Y-42060430D01*
X113183281Y-42250000D01*
X112899570Y-42439570D01*
X112568350Y-42935275D01*
X112452041Y-43520000D01*
X112568350Y-44104725D01*
X112899570Y-44600430D01*
X113183281Y-44790000D01*
X112899570Y-44979570D01*
X112568350Y-45475275D01*
X112452041Y-46060000D01*
X112568350Y-46644725D01*
X112899570Y-47140430D01*
X113183281Y-47330000D01*
X112899570Y-47519570D01*
X112568350Y-48015275D01*
X112452041Y-48600000D01*
X112527225Y-48977973D01*
X111765528Y-49739671D01*
X111702072Y-49782071D01*
X111659672Y-49845527D01*
X111659671Y-49845528D01*
X111534097Y-50033463D01*
X111475112Y-50330000D01*
X111490001Y-50404852D01*
X111490000Y-54508200D01*
X110508201Y-55490000D01*
X108324847Y-55490000D01*
X108250000Y-55475112D01*
X108175153Y-55490000D01*
X108175148Y-55490000D01*
X107953463Y-55534096D01*
X107702071Y-55702071D01*
X107659671Y-55765527D01*
X104565000Y-58860199D01*
X104565000Y-58285750D01*
X104406250Y-58127000D01*
X103207000Y-58127000D01*
X103207000Y-58147000D01*
X102953000Y-58147000D01*
X102953000Y-58127000D01*
X102933000Y-58127000D01*
X102933000Y-57873000D01*
X102953000Y-57873000D01*
X102953000Y-56673750D01*
X103207000Y-56673750D01*
X103207000Y-57873000D01*
X104406250Y-57873000D01*
X104565000Y-57714250D01*
X104565000Y-57023691D01*
X104468327Y-56790302D01*
X104289699Y-56611673D01*
X104056310Y-56515000D01*
X103365750Y-56515000D01*
X103207000Y-56673750D01*
X102953000Y-56673750D01*
X102794250Y-56515000D01*
X102103690Y-56515000D01*
X101870301Y-56611673D01*
X101691673Y-56790302D01*
X101625096Y-56951033D01*
X101610625Y-56929375D01*
X101119418Y-56601161D01*
X100686256Y-56515000D01*
X100393744Y-56515000D01*
X99960582Y-56601161D01*
X99633509Y-56819704D01*
X98579333Y-55765530D01*
X98536931Y-55702071D01*
X98285539Y-55534096D01*
X98063854Y-55490000D01*
X98063849Y-55490000D01*
X97989002Y-55475112D01*
X97914155Y-55490000D01*
X94744848Y-55490000D01*
X94670000Y-55475112D01*
X94595152Y-55490000D01*
X94595148Y-55490000D01*
X94421605Y-55524520D01*
X94373462Y-55534096D01*
X94277987Y-55597891D01*
X94122071Y-55702071D01*
X94079671Y-55765527D01*
X93286408Y-56558791D01*
X93066256Y-56515000D01*
X92773744Y-56515000D01*
X92340582Y-56601161D01*
X91849375Y-56929375D01*
X91650000Y-57227761D01*
X91450625Y-56929375D01*
X90959418Y-56601161D01*
X90526256Y-56515000D01*
X90233744Y-56515000D01*
X89800582Y-56601161D01*
X89309375Y-56929375D01*
X88981161Y-57420582D01*
X88865908Y-58000000D01*
X88981161Y-58579418D01*
X89309375Y-59070625D01*
X89800582Y-59398839D01*
X90233744Y-59485000D01*
X90526256Y-59485000D01*
X90959418Y-59398839D01*
X91450625Y-59070625D01*
X91650000Y-58772239D01*
X91849375Y-59070625D01*
X92340582Y-59398839D01*
X92773744Y-59485000D01*
X92900198Y-59485000D01*
X87815520Y-64569679D01*
X87752061Y-64612081D01*
X87624202Y-64803435D01*
X87306026Y-64485259D01*
X86484569Y-64145000D01*
X85595431Y-64145000D01*
X84773974Y-64485259D01*
X84145259Y-65113974D01*
X84135000Y-65138741D01*
X84135000Y-62866578D01*
X84474148Y-62527431D01*
X84818007Y-62385000D01*
X88431993Y-62385000D01*
X88794126Y-62535000D01*
X89205874Y-62535000D01*
X89586280Y-62377431D01*
X89877431Y-62086280D01*
X90035000Y-61705874D01*
X90035000Y-61294126D01*
X89877431Y-60913720D01*
X89586280Y-60622569D01*
X89205874Y-60465000D01*
X88794126Y-60465000D01*
X88431993Y-60615000D01*
X84818007Y-60615000D01*
X84455874Y-60465000D01*
X84044126Y-60465000D01*
X83663720Y-60622569D01*
X83372569Y-60913720D01*
X83222569Y-61275852D01*
X82685845Y-61812577D01*
X82611952Y-61861951D01*
X82562578Y-61935844D01*
X82562576Y-61935846D01*
X82416348Y-62154691D01*
X82347663Y-62500000D01*
X82365001Y-62587165D01*
X82365000Y-66383421D01*
X80133422Y-68615000D01*
X65791291Y-68615000D01*
X65704130Y-68597663D01*
X65616969Y-68615000D01*
X57607161Y-68615000D01*
X57520000Y-68597663D01*
X57432839Y-68615000D01*
X57432835Y-68615000D01*
X57176872Y-68665914D01*
X57174690Y-68666348D01*
X56955845Y-68812576D01*
X56955844Y-68812577D01*
X56881951Y-68861951D01*
X56832577Y-68935844D01*
X55790526Y-69977895D01*
X55707598Y-69961400D01*
X55412402Y-69961400D01*
X54975275Y-70048350D01*
X54479570Y-70379570D01*
X54290000Y-70663281D01*
X54100430Y-70379570D01*
X53604725Y-70048350D01*
X53167598Y-69961400D01*
X52872402Y-69961400D01*
X52435275Y-70048350D01*
X51939570Y-70379570D01*
X51750000Y-70663281D01*
X51560430Y-70379570D01*
X51064725Y-70048350D01*
X50627598Y-69961400D01*
X50332402Y-69961400D01*
X49895275Y-70048350D01*
X49399570Y-70379570D01*
X49210000Y-70663281D01*
X49020430Y-70379570D01*
X48524725Y-70048350D01*
X48087598Y-69961400D01*
X47792402Y-69961400D01*
X47355275Y-70048350D01*
X46859570Y-70379570D01*
X46528350Y-70875275D01*
X46412041Y-71460000D01*
X46528350Y-72044725D01*
X46859570Y-72540430D01*
X47355275Y-72871650D01*
X47792402Y-72958600D01*
X48087598Y-72958600D01*
X48524725Y-72871650D01*
X49020430Y-72540430D01*
X49210000Y-72256719D01*
X49399570Y-72540430D01*
X49895275Y-72871650D01*
X50332402Y-72958600D01*
X50627598Y-72958600D01*
X51064725Y-72871650D01*
X51560430Y-72540430D01*
X51750000Y-72256719D01*
X51939570Y-72540430D01*
X52435275Y-72871650D01*
X52872402Y-72958600D01*
X53167598Y-72958600D01*
X53397973Y-72912776D01*
X53399125Y-72913928D01*
X53399131Y-72913932D01*
X53618270Y-73133071D01*
X53660672Y-73196530D01*
X53912064Y-73364505D01*
X54133749Y-73408601D01*
X54133753Y-73408601D01*
X54208600Y-73423489D01*
X54283447Y-73408601D01*
X58082930Y-73408601D01*
X61706915Y-77032586D01*
X61521111Y-77109549D01*
X61099549Y-77531111D01*
X61083247Y-77570468D01*
X60883805Y-77505800D01*
X60009605Y-78380000D01*
X60883805Y-79254200D01*
X61083247Y-79189532D01*
X61099549Y-79228889D01*
X61521111Y-79650451D01*
X62071910Y-79878600D01*
X62668090Y-79878600D01*
X62900000Y-79782540D01*
X62899999Y-82166866D01*
X62659614Y-81926481D01*
X62596290Y-81831710D01*
X62220856Y-81580853D01*
X61889784Y-81514999D01*
X61778001Y-81492764D01*
X61666218Y-81514999D01*
X59490132Y-81514999D01*
X57775927Y-79800795D01*
X58138889Y-79650451D01*
X58355535Y-79433805D01*
X58955800Y-79433805D01*
X59037741Y-79686516D01*
X59598030Y-79890248D01*
X60193635Y-79864058D01*
X60622259Y-79686516D01*
X60704200Y-79433805D01*
X59830000Y-78559605D01*
X58955800Y-79433805D01*
X58355535Y-79433805D01*
X58560451Y-79228889D01*
X58576753Y-79189532D01*
X58776195Y-79254200D01*
X59650395Y-78380000D01*
X58776195Y-77505800D01*
X58576753Y-77570468D01*
X58560451Y-77531111D01*
X58355535Y-77326195D01*
X58955800Y-77326195D01*
X59830000Y-78200395D01*
X60704200Y-77326195D01*
X60622259Y-77073484D01*
X60061970Y-76869752D01*
X59466365Y-76895942D01*
X59037741Y-77073484D01*
X58955800Y-77326195D01*
X58355535Y-77326195D01*
X58138889Y-77109549D01*
X57588090Y-76881400D01*
X56991910Y-76881400D01*
X56441111Y-77109549D01*
X56020000Y-77530660D01*
X55598889Y-77109549D01*
X55048090Y-76881400D01*
X54451910Y-76881400D01*
X53901111Y-77109549D01*
X53480000Y-77530660D01*
X53058889Y-77109549D01*
X52508090Y-76881400D01*
X51911910Y-76881400D01*
X51361111Y-77109549D01*
X50940000Y-77530660D01*
X50518889Y-77109549D01*
X49968090Y-76881400D01*
X49371910Y-76881400D01*
X48821111Y-77109549D01*
X48400000Y-77530660D01*
X47978889Y-77109549D01*
X47428090Y-76881400D01*
X46831910Y-76881400D01*
X46281111Y-77109549D01*
X45860000Y-77530660D01*
X45438889Y-77109549D01*
X44888090Y-76881400D01*
X44291910Y-76881400D01*
X43741111Y-77109549D01*
X43320000Y-77530660D01*
X42898889Y-77109549D01*
X42348090Y-76881400D01*
X41751910Y-76881400D01*
X41458601Y-77002893D01*
X41458601Y-66201202D01*
X49925197Y-57734608D01*
X50280091Y-57971740D01*
X50698667Y-58055000D01*
X50981333Y-58055000D01*
X51399909Y-57971740D01*
X51874577Y-57654577D01*
X52110000Y-57302242D01*
X52345423Y-57654577D01*
X52820091Y-57971740D01*
X53238667Y-58055000D01*
X53521333Y-58055000D01*
X53939909Y-57971740D01*
X54414577Y-57654577D01*
X54650000Y-57302242D01*
X54885423Y-57654577D01*
X55360091Y-57971740D01*
X55778667Y-58055000D01*
X56061333Y-58055000D01*
X56479909Y-57971740D01*
X56954577Y-57654577D01*
X57190000Y-57302242D01*
X57425423Y-57654577D01*
X57900091Y-57971740D01*
X58318667Y-58055000D01*
X58601333Y-58055000D01*
X59019909Y-57971740D01*
X59494577Y-57654577D01*
X59730000Y-57302242D01*
X59965423Y-57654577D01*
X60440091Y-57971740D01*
X60858667Y-58055000D01*
X61141333Y-58055000D01*
X61559909Y-57971740D01*
X62034577Y-57654577D01*
X62351740Y-57179909D01*
X62463113Y-56620000D01*
X62351740Y-56060091D01*
X62174028Y-55794126D01*
X70965000Y-55794126D01*
X70965000Y-56205874D01*
X71122569Y-56586280D01*
X71413720Y-56877431D01*
X71794126Y-57035000D01*
X72205874Y-57035000D01*
X72586280Y-56877431D01*
X72877431Y-56586280D01*
X73035000Y-56205874D01*
X73035000Y-55967671D01*
X73062181Y-55940490D01*
X73122569Y-56086280D01*
X73413720Y-56377431D01*
X73794126Y-56535000D01*
X74205874Y-56535000D01*
X74586280Y-56377431D01*
X74877431Y-56086280D01*
X75035000Y-55705874D01*
X75035000Y-55539801D01*
X82129890Y-48444912D01*
X82099041Y-48600000D01*
X82215350Y-49184725D01*
X82546570Y-49680430D01*
X83042275Y-50011650D01*
X83479402Y-50098600D01*
X83774598Y-50098600D01*
X84211725Y-50011650D01*
X84707430Y-49680430D01*
X84900037Y-49392174D01*
X85278510Y-49806821D01*
X85807973Y-50054968D01*
X86040000Y-49934469D01*
X86040000Y-48727000D01*
X86294000Y-48727000D01*
X86294000Y-49934469D01*
X86526027Y-50054968D01*
X87055490Y-49806821D01*
X87449688Y-49374947D01*
X87621958Y-48959026D01*
X87500817Y-48727000D01*
X86294000Y-48727000D01*
X86040000Y-48727000D01*
X86020000Y-48727000D01*
X86020000Y-48473000D01*
X86040000Y-48473000D01*
X86040000Y-48453000D01*
X86294000Y-48453000D01*
X86294000Y-48473000D01*
X87500817Y-48473000D01*
X87621958Y-48240974D01*
X87449688Y-47825053D01*
X87055490Y-47393179D01*
X86945979Y-47341854D01*
X87247430Y-47140430D01*
X87578650Y-46644725D01*
X87694959Y-46060000D01*
X87578650Y-45475275D01*
X87247430Y-44979570D01*
X86963719Y-44790000D01*
X87247430Y-44600430D01*
X87578650Y-44104725D01*
X87694959Y-43520000D01*
X87578650Y-42935275D01*
X87247430Y-42439570D01*
X86751725Y-42108350D01*
X86314598Y-42021400D01*
X86019402Y-42021400D01*
X85582275Y-42108350D01*
X85086570Y-42439570D01*
X84897000Y-42723281D01*
X84707430Y-42439570D01*
X84211725Y-42108350D01*
X83774598Y-42021400D01*
X83479402Y-42021400D01*
X83042275Y-42108350D01*
X82546570Y-42439570D01*
X82215350Y-42935275D01*
X82099041Y-43520000D01*
X82133670Y-43694092D01*
X72411481Y-53416282D01*
X72245408Y-53416282D01*
X71865002Y-53573851D01*
X71573851Y-53865002D01*
X71416282Y-54245408D01*
X71416282Y-54657156D01*
X71573851Y-55037562D01*
X71587059Y-55050770D01*
X71413720Y-55122569D01*
X71122569Y-55413720D01*
X70965000Y-55794126D01*
X62174028Y-55794126D01*
X62034577Y-55585423D01*
X61559909Y-55268260D01*
X61141333Y-55185000D01*
X60858667Y-55185000D01*
X60440091Y-55268260D01*
X59965423Y-55585423D01*
X59730000Y-55937758D01*
X59494577Y-55585423D01*
X59019909Y-55268260D01*
X58601333Y-55185000D01*
X58318667Y-55185000D01*
X57900091Y-55268260D01*
X57425423Y-55585423D01*
X57190000Y-55937758D01*
X56954577Y-55585423D01*
X56479909Y-55268260D01*
X56061333Y-55185000D01*
X55778667Y-55185000D01*
X55360091Y-55268260D01*
X54885423Y-55585423D01*
X54650000Y-55937758D01*
X54414577Y-55585423D01*
X53939909Y-55268260D01*
X53521333Y-55185000D01*
X53238667Y-55185000D01*
X52820091Y-55268260D01*
X52345423Y-55585423D01*
X52110000Y-55937758D01*
X51874577Y-55585423D01*
X51399909Y-55268260D01*
X50981333Y-55185000D01*
X50698667Y-55185000D01*
X50474999Y-55229490D01*
X50474999Y-52979802D01*
X53056114Y-50398688D01*
X53238667Y-50435000D01*
X53521333Y-50435000D01*
X53703887Y-50398688D01*
X53914670Y-50609471D01*
X53957072Y-50672930D01*
X54208464Y-50840905D01*
X54430149Y-50885001D01*
X54430153Y-50885001D01*
X54505000Y-50899889D01*
X54579847Y-50885001D01*
X57260152Y-50885001D01*
X57334999Y-50899889D01*
X57409846Y-50885001D01*
X57409851Y-50885001D01*
X57631536Y-50840905D01*
X57882928Y-50672930D01*
X57925330Y-50609471D01*
X58136113Y-50398688D01*
X58318667Y-50435000D01*
X58601333Y-50435000D01*
X59019909Y-50351740D01*
X59494577Y-50034577D01*
X59575215Y-49913894D01*
X59601843Y-50047765D01*
X59742191Y-50257809D01*
X59952235Y-50398157D01*
X60200000Y-50447440D01*
X61800000Y-50447440D01*
X62047765Y-50398157D01*
X62257809Y-50257809D01*
X62398157Y-50047765D01*
X62447440Y-49800000D01*
X62447440Y-48200000D01*
X62398157Y-47952235D01*
X62257809Y-47742191D01*
X62047765Y-47601843D01*
X61800000Y-47552560D01*
X60200000Y-47552560D01*
X59952235Y-47601843D01*
X59742191Y-47742191D01*
X59601843Y-47952235D01*
X59575215Y-48086106D01*
X59494577Y-47965423D01*
X59019909Y-47648260D01*
X58601333Y-47565000D01*
X58318667Y-47565000D01*
X57900091Y-47648260D01*
X57425423Y-47965423D01*
X57190000Y-48317758D01*
X56954577Y-47965423D01*
X56479909Y-47648260D01*
X56061333Y-47565000D01*
X55778667Y-47565000D01*
X55360091Y-47648260D01*
X54885423Y-47965423D01*
X54650000Y-48317758D01*
X54414577Y-47965423D01*
X53939909Y-47648260D01*
X53521333Y-47565000D01*
X53238667Y-47565000D01*
X52820091Y-47648260D01*
X52345423Y-47965423D01*
X52110000Y-48317758D01*
X51874577Y-47965423D01*
X51399909Y-47648260D01*
X50981333Y-47565000D01*
X50698667Y-47565000D01*
X50280091Y-47648260D01*
X49805423Y-47965423D01*
X49570000Y-48317758D01*
X49334577Y-47965423D01*
X48859909Y-47648260D01*
X48441333Y-47565000D01*
X48158667Y-47565000D01*
X47740091Y-47648260D01*
X47265423Y-47965423D01*
X47009053Y-48349108D01*
X46912389Y-48144866D01*
X46497423Y-47768959D01*
X46109039Y-47608096D01*
X45887000Y-47730085D01*
X45887000Y-48873000D01*
X45907000Y-48873000D01*
X45907000Y-49127000D01*
X45887000Y-49127000D01*
X45887000Y-50269915D01*
X46109039Y-50391904D01*
X46497423Y-50231041D01*
X46912389Y-49855134D01*
X47009053Y-49650892D01*
X47265423Y-50034577D01*
X47740091Y-50351740D01*
X48158667Y-50435000D01*
X48441333Y-50435000D01*
X48859909Y-50351740D01*
X49334577Y-50034577D01*
X49570000Y-49682242D01*
X49805423Y-50034577D01*
X50280091Y-50351740D01*
X50698667Y-50435000D01*
X50870198Y-50435000D01*
X49230527Y-52074672D01*
X49167071Y-52117072D01*
X49124671Y-52180528D01*
X49124670Y-52180529D01*
X48999096Y-52368464D01*
X48940111Y-52665001D01*
X48955000Y-52739853D01*
X48954999Y-55331797D01*
X48859909Y-55268260D01*
X48441333Y-55185000D01*
X48158667Y-55185000D01*
X47740091Y-55268260D01*
X47265423Y-55585423D01*
X47030000Y-55937758D01*
X46794577Y-55585423D01*
X46319909Y-55268260D01*
X45901333Y-55185000D01*
X45618667Y-55185000D01*
X45200091Y-55268260D01*
X44725423Y-55585423D01*
X44408260Y-56060091D01*
X44296887Y-56620000D01*
X44408260Y-57179909D01*
X44725423Y-57654577D01*
X45200091Y-57971740D01*
X45618667Y-58055000D01*
X45901333Y-58055000D01*
X46319909Y-57971740D01*
X46794577Y-57654577D01*
X47030000Y-57302242D01*
X47265423Y-57654577D01*
X47619222Y-57890978D01*
X40214129Y-65296072D01*
X40150673Y-65338472D01*
X40108273Y-65401928D01*
X40108272Y-65401929D01*
X39982698Y-65589864D01*
X39923713Y-65886401D01*
X39938602Y-65961253D01*
X39938602Y-76935460D01*
X39808090Y-76881400D01*
X39211910Y-76881400D01*
X38661111Y-77109549D01*
X38240000Y-77530660D01*
X37818889Y-77109549D01*
X37268090Y-76881400D01*
X36671910Y-76881400D01*
X36121111Y-77109549D01*
X35700000Y-77530660D01*
X35278889Y-77109549D01*
X34728090Y-76881400D01*
X34131910Y-76881400D01*
X33581111Y-77109549D01*
X33160000Y-77530660D01*
X32738889Y-77109549D01*
X32188090Y-76881400D01*
X31591910Y-76881400D01*
X31041111Y-77109549D01*
X30620000Y-77530660D01*
X30198889Y-77109549D01*
X29648090Y-76881400D01*
X29051910Y-76881400D01*
X28501111Y-77109549D01*
X28080000Y-77530660D01*
X27658889Y-77109549D01*
X27108090Y-76881400D01*
X26511910Y-76881400D01*
X25961111Y-77109549D01*
X25583417Y-77487244D01*
X25153669Y-77057496D01*
X24580303Y-76820000D01*
X23959697Y-76820000D01*
X23386331Y-77057496D01*
X22947496Y-77496331D01*
X22710000Y-78069697D01*
X22710000Y-78690303D01*
X22947496Y-79263669D01*
X23386331Y-79702504D01*
X23959697Y-79940000D01*
X24580303Y-79940000D01*
X25153669Y-79702504D01*
X25583417Y-79272757D01*
X25961111Y-79650451D01*
X26511910Y-79878600D01*
X27108090Y-79878600D01*
X27658889Y-79650451D01*
X28080000Y-79229340D01*
X28501111Y-79650451D01*
X29051910Y-79878600D01*
X29648090Y-79878600D01*
X30198889Y-79650451D01*
X30620000Y-79229340D01*
X31041111Y-79650451D01*
X31591910Y-79878600D01*
X32188090Y-79878600D01*
X32318602Y-79824540D01*
X32318601Y-92175460D01*
X32188090Y-92121400D01*
X31591910Y-92121400D01*
X31041111Y-92349549D01*
X30620000Y-92770660D01*
X30198889Y-92349549D01*
X29648090Y-92121400D01*
X29051910Y-92121400D01*
X28501111Y-92349549D01*
X28080000Y-92770660D01*
X27658889Y-92349549D01*
X27108090Y-92121400D01*
X26511910Y-92121400D01*
X25961111Y-92349549D01*
X25583417Y-92727244D01*
X25153669Y-92297496D01*
X24580303Y-92060000D01*
X23959697Y-92060000D01*
X23386331Y-92297496D01*
X22947496Y-92736331D01*
X22710000Y-93309697D01*
X22710000Y-93930303D01*
X22947496Y-94503669D01*
X23386331Y-94942504D01*
X23959697Y-95180000D01*
X24175199Y-95180000D01*
X23602529Y-95752670D01*
X23539073Y-95795070D01*
X23496673Y-95858526D01*
X23496672Y-95858527D01*
X23371098Y-96046462D01*
X23312113Y-96342999D01*
X23327002Y-96417851D01*
X23327002Y-96603000D01*
X23285750Y-96603000D01*
X23127000Y-96761750D01*
X23127000Y-97873000D01*
X23147000Y-97873000D01*
X23147000Y-98127000D01*
X23127000Y-98127000D01*
X23127000Y-98147000D01*
X22873000Y-98147000D01*
X22873000Y-98127000D01*
X22853000Y-98127000D01*
X22853000Y-97873000D01*
X22873000Y-97873000D01*
X22873000Y-96761750D01*
X22714250Y-96603000D01*
X22127000Y-96603000D01*
X22127000Y-71015431D01*
X31735000Y-71015431D01*
X31735000Y-71904569D01*
X32075259Y-72726026D01*
X32703974Y-73354741D01*
X33525431Y-73695000D01*
X34414569Y-73695000D01*
X35236026Y-73354741D01*
X35864741Y-72726026D01*
X36205000Y-71904569D01*
X36205000Y-71015431D01*
X35864741Y-70193974D01*
X35236026Y-69565259D01*
X34414569Y-69225000D01*
X33525431Y-69225000D01*
X32703974Y-69565259D01*
X32075259Y-70193974D01*
X31735000Y-71015431D01*
X22127000Y-71015431D01*
X22127000Y-53500000D01*
X22852560Y-53500000D01*
X22852560Y-56500000D01*
X22901843Y-56747765D01*
X23042191Y-56957809D01*
X23252235Y-57098157D01*
X23500000Y-57147440D01*
X26500000Y-57147440D01*
X26747765Y-57098157D01*
X26957809Y-56957809D01*
X27098157Y-56747765D01*
X27147440Y-56500000D01*
X27147440Y-53500000D01*
X27098157Y-53252235D01*
X26957809Y-53042191D01*
X26747765Y-52901843D01*
X26500000Y-52852560D01*
X23500000Y-52852560D01*
X23252235Y-52901843D01*
X23042191Y-53042191D01*
X22901843Y-53252235D01*
X22852560Y-53500000D01*
X22127000Y-53500000D01*
X22127000Y-51433970D01*
X23665635Y-51433970D01*
X23825418Y-51752739D01*
X24616187Y-52062723D01*
X25465387Y-52046497D01*
X26174582Y-51752739D01*
X26334365Y-51433970D01*
X25000000Y-50099605D01*
X23665635Y-51433970D01*
X22127000Y-51433970D01*
X22127000Y-49536187D01*
X22857277Y-49536187D01*
X22873503Y-50385387D01*
X23167261Y-51094582D01*
X23486030Y-51254365D01*
X24820395Y-49920000D01*
X25179605Y-49920000D01*
X26513970Y-51254365D01*
X26832739Y-51094582D01*
X27142723Y-50303813D01*
X27126497Y-49454613D01*
X27082768Y-49349041D01*
X44368086Y-49349041D01*
X44607611Y-49855134D01*
X45022577Y-50231041D01*
X45410961Y-50391904D01*
X45633000Y-50269915D01*
X45633000Y-49127000D01*
X44489371Y-49127000D01*
X44368086Y-49349041D01*
X27082768Y-49349041D01*
X26832739Y-48745418D01*
X26644293Y-48650959D01*
X44368086Y-48650959D01*
X44489371Y-48873000D01*
X45633000Y-48873000D01*
X45633000Y-47730085D01*
X45410961Y-47608096D01*
X45022577Y-47768959D01*
X44607611Y-48144866D01*
X44368086Y-48650959D01*
X26644293Y-48650959D01*
X26513970Y-48585635D01*
X25179605Y-49920000D01*
X24820395Y-49920000D01*
X23486030Y-48585635D01*
X23167261Y-48745418D01*
X22857277Y-49536187D01*
X22127000Y-49536187D01*
X22127000Y-48406030D01*
X23665635Y-48406030D01*
X25000000Y-49740395D01*
X26334365Y-48406030D01*
X26174582Y-48087261D01*
X25383813Y-47777277D01*
X24534613Y-47793503D01*
X23825418Y-48087261D01*
X23665635Y-48406030D01*
X22127000Y-48406030D01*
X22127000Y-30285750D01*
X41515000Y-30285750D01*
X41515000Y-30976309D01*
X41611673Y-31209698D01*
X41790301Y-31388327D01*
X42023690Y-31485000D01*
X42714250Y-31485000D01*
X42873000Y-31326250D01*
X42873000Y-30127000D01*
X41673750Y-30127000D01*
X41515000Y-30285750D01*
X22127000Y-30285750D01*
X22127000Y-29023691D01*
X41515000Y-29023691D01*
X41515000Y-29714250D01*
X41673750Y-29873000D01*
X42873000Y-29873000D01*
X42873000Y-28673750D01*
X43127000Y-28673750D01*
X43127000Y-29873000D01*
X43147000Y-29873000D01*
X43147000Y-30127000D01*
X43127000Y-30127000D01*
X43127000Y-31326250D01*
X43285750Y-31485000D01*
X43976310Y-31485000D01*
X44209699Y-31388327D01*
X44388327Y-31209698D01*
X44454904Y-31048967D01*
X44469375Y-31070625D01*
X44960582Y-31398839D01*
X45393744Y-31485000D01*
X45686256Y-31485000D01*
X46119418Y-31398839D01*
X46610625Y-31070625D01*
X46810000Y-30772239D01*
X47009375Y-31070625D01*
X47500582Y-31398839D01*
X47933744Y-31485000D01*
X48226256Y-31485000D01*
X48659418Y-31398839D01*
X49150625Y-31070625D01*
X49478839Y-30579418D01*
X49537252Y-30285750D01*
X54515000Y-30285750D01*
X54515000Y-30976309D01*
X54611673Y-31209698D01*
X54790301Y-31388327D01*
X55023690Y-31485000D01*
X55714250Y-31485000D01*
X55873000Y-31326250D01*
X55873000Y-30127000D01*
X54673750Y-30127000D01*
X54515000Y-30285750D01*
X49537252Y-30285750D01*
X49594092Y-30000000D01*
X49478839Y-29420582D01*
X49213645Y-29023691D01*
X54515000Y-29023691D01*
X54515000Y-29714250D01*
X54673750Y-29873000D01*
X55873000Y-29873000D01*
X55873000Y-28673750D01*
X56127000Y-28673750D01*
X56127000Y-29873000D01*
X56147000Y-29873000D01*
X56147000Y-30127000D01*
X56127000Y-30127000D01*
X56127000Y-31326250D01*
X56285750Y-31485000D01*
X56976310Y-31485000D01*
X57209699Y-31388327D01*
X57388327Y-31209698D01*
X57454904Y-31048967D01*
X57469375Y-31070625D01*
X57960582Y-31398839D01*
X58393744Y-31485000D01*
X58686256Y-31485000D01*
X59119418Y-31398839D01*
X59610625Y-31070625D01*
X59810000Y-30772239D01*
X60009375Y-31070625D01*
X60500582Y-31398839D01*
X60933744Y-31485000D01*
X61226256Y-31485000D01*
X61659418Y-31398839D01*
X62150625Y-31070625D01*
X62478839Y-30579418D01*
X62523102Y-30356892D01*
X68858514Y-30356892D01*
X69104817Y-30881358D01*
X69533076Y-31271645D01*
X69943110Y-31441476D01*
X70173000Y-31320155D01*
X70173000Y-30127000D01*
X68979181Y-30127000D01*
X68858514Y-30356892D01*
X62523102Y-30356892D01*
X62594092Y-30000000D01*
X62523103Y-29643108D01*
X68858514Y-29643108D01*
X68979181Y-29873000D01*
X70173000Y-29873000D01*
X70173000Y-28679845D01*
X69943110Y-28558524D01*
X69533076Y-28728355D01*
X69104817Y-29118642D01*
X68858514Y-29643108D01*
X62523103Y-29643108D01*
X62478839Y-29420582D01*
X62150625Y-28929375D01*
X61659418Y-28601161D01*
X61226256Y-28515000D01*
X60933744Y-28515000D01*
X60500582Y-28601161D01*
X60009375Y-28929375D01*
X59810000Y-29227761D01*
X59610625Y-28929375D01*
X59119418Y-28601161D01*
X58686256Y-28515000D01*
X58393744Y-28515000D01*
X57960582Y-28601161D01*
X57469375Y-28929375D01*
X57454904Y-28951033D01*
X57388327Y-28790302D01*
X57209699Y-28611673D01*
X56976310Y-28515000D01*
X56285750Y-28515000D01*
X56127000Y-28673750D01*
X55873000Y-28673750D01*
X55714250Y-28515000D01*
X55023690Y-28515000D01*
X54790301Y-28611673D01*
X54611673Y-28790302D01*
X54515000Y-29023691D01*
X49213645Y-29023691D01*
X49150625Y-28929375D01*
X48659418Y-28601161D01*
X48226256Y-28515000D01*
X47933744Y-28515000D01*
X47500582Y-28601161D01*
X47009375Y-28929375D01*
X46810000Y-29227761D01*
X46610625Y-28929375D01*
X46119418Y-28601161D01*
X45686256Y-28515000D01*
X45393744Y-28515000D01*
X44960582Y-28601161D01*
X44469375Y-28929375D01*
X44454904Y-28951033D01*
X44388327Y-28790302D01*
X44209699Y-28611673D01*
X43976310Y-28515000D01*
X43285750Y-28515000D01*
X43127000Y-28673750D01*
X42873000Y-28673750D01*
X42714250Y-28515000D01*
X42023690Y-28515000D01*
X41790301Y-28611673D01*
X41611673Y-28790302D01*
X41515000Y-29023691D01*
X22127000Y-29023691D01*
X22127000Y-22127000D01*
X33265305Y-22127000D01*
X33005000Y-22755431D01*
X33005000Y-22755431D01*
G37*
X33005000Y-22755431D02*
X33005000Y-23644569D01*
X33345259Y-24466026D01*
X33973974Y-25094741D01*
X34795431Y-25435000D01*
X35684569Y-25435000D01*
X36506026Y-25094741D01*
X37134741Y-24466026D01*
X37404472Y-23814839D01*
X37715570Y-24280430D01*
X38211275Y-24611650D01*
X38648402Y-24698600D01*
X38943598Y-24698600D01*
X39380725Y-24611650D01*
X39876430Y-24280430D01*
X40066000Y-23996719D01*
X40255570Y-24280430D01*
X40751275Y-24611650D01*
X41188402Y-24698600D01*
X41483598Y-24698600D01*
X41920725Y-24611650D01*
X42416430Y-24280430D01*
X42606000Y-23996719D01*
X42795570Y-24280430D01*
X43291275Y-24611650D01*
X43728402Y-24698600D01*
X44023598Y-24698600D01*
X44460725Y-24611650D01*
X44956430Y-24280430D01*
X45149037Y-23992174D01*
X45527510Y-24406821D01*
X46056973Y-24654968D01*
X46289000Y-24534469D01*
X46289000Y-23327000D01*
X46269000Y-23327000D01*
X46269000Y-23073000D01*
X46289000Y-23073000D01*
X46289000Y-23053000D01*
X46543000Y-23053000D01*
X46543000Y-23073000D01*
X46563000Y-23073000D01*
X46563000Y-23327000D01*
X46543000Y-23327000D01*
X46543000Y-24534469D01*
X46775027Y-24654968D01*
X47304490Y-24406821D01*
X47682963Y-23992174D01*
X47875570Y-24280430D01*
X48371275Y-24611650D01*
X48808402Y-24698600D01*
X49103598Y-24698600D01*
X49540725Y-24611650D01*
X50036430Y-24280430D01*
X50226000Y-23996719D01*
X50415570Y-24280430D01*
X50911275Y-24611650D01*
X51348402Y-24698600D01*
X51643598Y-24698600D01*
X52080725Y-24611650D01*
X52576430Y-24280430D01*
X52766000Y-23996719D01*
X52955570Y-24280430D01*
X53451275Y-24611650D01*
X53888402Y-24698600D01*
X54183598Y-24698600D01*
X54620725Y-24611650D01*
X55116430Y-24280430D01*
X55306000Y-23996719D01*
X55495570Y-24280430D01*
X55991275Y-24611650D01*
X56428402Y-24698600D01*
X56723598Y-24698600D01*
X57160725Y-24611650D01*
X57656430Y-24280430D01*
X57846000Y-23996719D01*
X58035570Y-24280430D01*
X58531275Y-24611650D01*
X58968402Y-24698600D01*
X59263598Y-24698600D01*
X59700725Y-24611650D01*
X60196430Y-24280430D01*
X60386000Y-23996719D01*
X60575570Y-24280430D01*
X61071275Y-24611650D01*
X61508402Y-24698600D01*
X61803598Y-24698600D01*
X62240725Y-24611650D01*
X62736430Y-24280430D01*
X63067650Y-23784725D01*
X63183959Y-23200000D01*
X63067650Y-22615275D01*
X62741395Y-22127000D01*
X64634605Y-22127000D01*
X64308350Y-22615275D01*
X64192041Y-23200000D01*
X64308350Y-23784725D01*
X64639570Y-24280430D01*
X65135275Y-24611650D01*
X65572402Y-24698600D01*
X65867598Y-24698600D01*
X66304725Y-24611650D01*
X66800430Y-24280430D01*
X66990000Y-23996719D01*
X67179570Y-24280430D01*
X67675275Y-24611650D01*
X68112402Y-24698600D01*
X68407598Y-24698600D01*
X68844725Y-24611650D01*
X69340430Y-24280430D01*
X69530000Y-23996719D01*
X69719570Y-24280430D01*
X70215275Y-24611650D01*
X70652402Y-24698600D01*
X70947598Y-24698600D01*
X71384725Y-24611650D01*
X71880430Y-24280430D01*
X72070000Y-23996719D01*
X72259570Y-24280430D01*
X72755275Y-24611650D01*
X73192402Y-24698600D01*
X73487598Y-24698600D01*
X73924725Y-24611650D01*
X74420430Y-24280430D01*
X74610000Y-23996719D01*
X74799570Y-24280430D01*
X75295275Y-24611650D01*
X75732402Y-24698600D01*
X76027598Y-24698600D01*
X76464725Y-24611650D01*
X76960430Y-24280430D01*
X77150000Y-23996719D01*
X77339570Y-24280430D01*
X77835275Y-24611650D01*
X78272402Y-24698600D01*
X78567598Y-24698600D01*
X79004725Y-24611650D01*
X79500430Y-24280430D01*
X79690000Y-23996719D01*
X79879570Y-24280430D01*
X80375275Y-24611650D01*
X80812402Y-24698600D01*
X81107598Y-24698600D01*
X81544725Y-24611650D01*
X82040430Y-24280430D01*
X82230000Y-23996719D01*
X82419570Y-24280430D01*
X82915275Y-24611650D01*
X83352402Y-24698600D01*
X83647598Y-24698600D01*
X84084725Y-24611650D01*
X84580430Y-24280430D01*
X84911650Y-23784725D01*
X85027959Y-23200000D01*
X84911650Y-22615275D01*
X84585395Y-22127000D01*
X87494605Y-22127000D01*
X87168350Y-22615275D01*
X87052041Y-23200000D01*
X87168350Y-23784725D01*
X87499570Y-24280430D01*
X87995275Y-24611650D01*
X88432402Y-24698600D01*
X88727598Y-24698600D01*
X89164725Y-24611650D01*
X89660430Y-24280430D01*
X89850000Y-23996719D01*
X90039570Y-24280430D01*
X90535275Y-24611650D01*
X90972402Y-24698600D01*
X91267598Y-24698600D01*
X91704725Y-24611650D01*
X92200430Y-24280430D01*
X92390000Y-23996719D01*
X92579570Y-24280430D01*
X93075275Y-24611650D01*
X93512402Y-24698600D01*
X93807598Y-24698600D01*
X94244725Y-24611650D01*
X94740430Y-24280430D01*
X94930000Y-23996719D01*
X95119570Y-24280430D01*
X95529795Y-24554534D01*
X92019330Y-28064999D01*
X76629847Y-28064999D01*
X76555000Y-28050111D01*
X76480153Y-28064999D01*
X76480149Y-28064999D01*
X76258464Y-28109095D01*
X76007072Y-28277070D01*
X75964670Y-28340529D01*
X75746408Y-28558791D01*
X75526256Y-28515000D01*
X75233744Y-28515000D01*
X74800582Y-28601161D01*
X74309375Y-28929375D01*
X74110000Y-29227761D01*
X73910625Y-28929375D01*
X73419418Y-28601161D01*
X72986256Y-28515000D01*
X72693744Y-28515000D01*
X72260582Y-28601161D01*
X71769375Y-28929375D01*
X71556157Y-29248478D01*
X71495183Y-29118642D01*
X71066924Y-28728355D01*
X70656890Y-28558524D01*
X70427000Y-28679845D01*
X70427000Y-29873000D01*
X70447000Y-29873000D01*
X70447000Y-30127000D01*
X70427000Y-30127000D01*
X70427000Y-31320155D01*
X70656890Y-31441476D01*
X71066924Y-31271645D01*
X71495183Y-30881358D01*
X71556157Y-30751522D01*
X71769375Y-31070625D01*
X72260582Y-31398839D01*
X72693744Y-31485000D01*
X72986256Y-31485000D01*
X73419418Y-31398839D01*
X73910625Y-31070625D01*
X74110000Y-30772239D01*
X74309375Y-31070625D01*
X74800582Y-31398839D01*
X75233744Y-31485000D01*
X75526256Y-31485000D01*
X75959418Y-31398839D01*
X76450625Y-31070625D01*
X76650000Y-30772239D01*
X76849375Y-31070625D01*
X77340582Y-31398839D01*
X77773744Y-31485000D01*
X78066256Y-31485000D01*
X78499418Y-31398839D01*
X78990625Y-31070625D01*
X79190000Y-30772239D01*
X79325001Y-30974282D01*
X79325000Y-32098216D01*
X79302765Y-32210000D01*
X79325000Y-32321782D01*
X79390854Y-32652854D01*
X79641711Y-33028289D01*
X79736482Y-33091613D01*
X80865001Y-34220133D01*
X80865000Y-38111782D01*
X80930854Y-38442854D01*
X81181711Y-38818289D01*
X81557145Y-39069146D01*
X82000000Y-39157235D01*
X82442854Y-39069146D01*
X82818289Y-38818289D01*
X83069146Y-38442855D01*
X83135000Y-38111783D01*
X83135000Y-37995431D01*
X83805000Y-37995431D01*
X83805000Y-38884569D01*
X84145259Y-39706026D01*
X84773974Y-40334741D01*
X85595431Y-40675000D01*
X86484569Y-40675000D01*
X87306026Y-40334741D01*
X87934741Y-39706026D01*
X88275000Y-38884569D01*
X88275000Y-37995431D01*
X87934741Y-37173974D01*
X87306026Y-36545259D01*
X86484569Y-36205000D01*
X85595431Y-36205000D01*
X84773974Y-36545259D01*
X84145259Y-37173974D01*
X83805000Y-37995431D01*
X83135000Y-37995431D01*
X83135000Y-34220131D01*
X83220132Y-34135000D01*
X93651289Y-34135000D01*
X93622569Y-34163720D01*
X93465000Y-34544126D01*
X93465000Y-34955874D01*
X93622569Y-35336280D01*
X93913720Y-35627431D01*
X94294126Y-35785000D01*
X94460199Y-35785000D01*
X95884672Y-37209474D01*
X95927072Y-37272930D01*
X96178464Y-37440905D01*
X96400149Y-37485001D01*
X96400153Y-37485001D01*
X96475000Y-37499889D01*
X96549847Y-37485001D01*
X101965000Y-37485001D01*
X101965000Y-37705874D01*
X102122569Y-38086280D01*
X102413720Y-38377431D01*
X102794126Y-38535000D01*
X103205874Y-38535000D01*
X103586280Y-38377431D01*
X103877431Y-38086280D01*
X103909027Y-38010000D01*
X109796289Y-38010000D01*
X109913720Y-38127431D01*
X110294126Y-38285000D01*
X110705874Y-38285000D01*
X111086280Y-38127431D01*
X111377431Y-37836280D01*
X111535000Y-37455874D01*
X111535000Y-37044126D01*
X111377431Y-36663720D01*
X111338711Y-36625000D01*
X111377431Y-36586280D01*
X111535000Y-36205874D01*
X111535000Y-35794126D01*
X111377431Y-35413720D01*
X111086280Y-35122569D01*
X110705874Y-34965000D01*
X110294126Y-34965000D01*
X109913720Y-35122569D01*
X109622569Y-35413720D01*
X109465000Y-35794126D01*
X109465000Y-35960199D01*
X109460198Y-35965001D01*
X108682802Y-35965001D01*
X111879203Y-32768601D01*
X112572809Y-32768601D01*
X112568350Y-32775275D01*
X112452041Y-33360000D01*
X112568350Y-33944725D01*
X112899570Y-34440430D01*
X113183281Y-34630000D01*
X112899570Y-34819570D01*
X112568350Y-35315275D01*
X112452041Y-35900000D01*
X112568350Y-36484725D01*
X112899570Y-36980430D01*
X113183281Y-37170000D01*
X112899570Y-37359570D01*
X112568350Y-37855275D01*
X112452041Y-38440000D01*
X112568350Y-39024725D01*
X112899570Y-39520430D01*
X113183281Y-39710000D01*
X112899570Y-39899570D01*
X112568350Y-40395275D01*
X112452041Y-40980000D01*
X112568350Y-41564725D01*
X112899570Y-42060430D01*
X113183281Y-42250000D01*
X112899570Y-42439570D01*
X112568350Y-42935275D01*
X112452041Y-43520000D01*
X112568350Y-44104725D01*
X112899570Y-44600430D01*
X113183281Y-44790000D01*
X112899570Y-44979570D01*
X112568350Y-45475275D01*
X112452041Y-46060000D01*
X112568350Y-46644725D01*
X112899570Y-47140430D01*
X113183281Y-47330000D01*
X112899570Y-47519570D01*
X112568350Y-48015275D01*
X112452041Y-48600000D01*
X112527225Y-48977973D01*
X111765528Y-49739671D01*
X111702072Y-49782071D01*
X111659672Y-49845527D01*
X111659671Y-49845528D01*
X111534097Y-50033463D01*
X111475112Y-50330000D01*
X111490001Y-50404852D01*
X111490000Y-54508200D01*
X110508201Y-55490000D01*
X108324847Y-55490000D01*
X108250000Y-55475112D01*
X108175153Y-55490000D01*
X108175148Y-55490000D01*
X107953463Y-55534096D01*
X107702071Y-55702071D01*
X107659671Y-55765527D01*
X104565000Y-58860199D01*
X104565000Y-58285750D01*
X104406250Y-58127000D01*
X103207000Y-58127000D01*
X103207000Y-58147000D01*
X102953000Y-58147000D01*
X102953000Y-58127000D01*
X102933000Y-58127000D01*
X102933000Y-57873000D01*
X102953000Y-57873000D01*
X102953000Y-56673750D01*
X103207000Y-56673750D01*
X103207000Y-57873000D01*
X104406250Y-57873000D01*
X104565000Y-57714250D01*
X104565000Y-57023691D01*
X104468327Y-56790302D01*
X104289699Y-56611673D01*
X104056310Y-56515000D01*
X103365750Y-56515000D01*
X103207000Y-56673750D01*
X102953000Y-56673750D01*
X102794250Y-56515000D01*
X102103690Y-56515000D01*
X101870301Y-56611673D01*
X101691673Y-56790302D01*
X101625096Y-56951033D01*
X101610625Y-56929375D01*
X101119418Y-56601161D01*
X100686256Y-56515000D01*
X100393744Y-56515000D01*
X99960582Y-56601161D01*
X99633509Y-56819704D01*
X98579333Y-55765530D01*
X98536931Y-55702071D01*
X98285539Y-55534096D01*
X98063854Y-55490000D01*
X98063849Y-55490000D01*
X97989002Y-55475112D01*
X97914155Y-55490000D01*
X94744848Y-55490000D01*
X94670000Y-55475112D01*
X94595152Y-55490000D01*
X94595148Y-55490000D01*
X94421605Y-55524520D01*
X94373462Y-55534096D01*
X94277987Y-55597891D01*
X94122071Y-55702071D01*
X94079671Y-55765527D01*
X93286408Y-56558791D01*
X93066256Y-56515000D01*
X92773744Y-56515000D01*
X92340582Y-56601161D01*
X91849375Y-56929375D01*
X91650000Y-57227761D01*
X91450625Y-56929375D01*
X90959418Y-56601161D01*
X90526256Y-56515000D01*
X90233744Y-56515000D01*
X89800582Y-56601161D01*
X89309375Y-56929375D01*
X88981161Y-57420582D01*
X88865908Y-58000000D01*
X88981161Y-58579418D01*
X89309375Y-59070625D01*
X89800582Y-59398839D01*
X90233744Y-59485000D01*
X90526256Y-59485000D01*
X90959418Y-59398839D01*
X91450625Y-59070625D01*
X91650000Y-58772239D01*
X91849375Y-59070625D01*
X92340582Y-59398839D01*
X92773744Y-59485000D01*
X92900198Y-59485000D01*
X87815520Y-64569679D01*
X87752061Y-64612081D01*
X87624202Y-64803435D01*
X87306026Y-64485259D01*
X86484569Y-64145000D01*
X85595431Y-64145000D01*
X84773974Y-64485259D01*
X84145259Y-65113974D01*
X84135000Y-65138741D01*
X84135000Y-62866578D01*
X84474148Y-62527431D01*
X84818007Y-62385000D01*
X88431993Y-62385000D01*
X88794126Y-62535000D01*
X89205874Y-62535000D01*
X89586280Y-62377431D01*
X89877431Y-62086280D01*
X90035000Y-61705874D01*
X90035000Y-61294126D01*
X89877431Y-60913720D01*
X89586280Y-60622569D01*
X89205874Y-60465000D01*
X88794126Y-60465000D01*
X88431993Y-60615000D01*
X84818007Y-60615000D01*
X84455874Y-60465000D01*
X84044126Y-60465000D01*
X83663720Y-60622569D01*
X83372569Y-60913720D01*
X83222569Y-61275852D01*
X82685845Y-61812577D01*
X82611952Y-61861951D01*
X82562578Y-61935844D01*
X82562576Y-61935846D01*
X82416348Y-62154691D01*
X82347663Y-62500000D01*
X82365001Y-62587165D01*
X82365000Y-66383421D01*
X80133422Y-68615000D01*
X65791291Y-68615000D01*
X65704130Y-68597663D01*
X65616969Y-68615000D01*
X57607161Y-68615000D01*
X57520000Y-68597663D01*
X57432839Y-68615000D01*
X57432835Y-68615000D01*
X57176872Y-68665914D01*
X57174690Y-68666348D01*
X56955845Y-68812576D01*
X56955844Y-68812577D01*
X56881951Y-68861951D01*
X56832577Y-68935844D01*
X55790526Y-69977895D01*
X55707598Y-69961400D01*
X55412402Y-69961400D01*
X54975275Y-70048350D01*
X54479570Y-70379570D01*
X54290000Y-70663281D01*
X54100430Y-70379570D01*
X53604725Y-70048350D01*
X53167598Y-69961400D01*
X52872402Y-69961400D01*
X52435275Y-70048350D01*
X51939570Y-70379570D01*
X51750000Y-70663281D01*
X51560430Y-70379570D01*
X51064725Y-70048350D01*
X50627598Y-69961400D01*
X50332402Y-69961400D01*
X49895275Y-70048350D01*
X49399570Y-70379570D01*
X49210000Y-70663281D01*
X49020430Y-70379570D01*
X48524725Y-70048350D01*
X48087598Y-69961400D01*
X47792402Y-69961400D01*
X47355275Y-70048350D01*
X46859570Y-70379570D01*
X46528350Y-70875275D01*
X46412041Y-71460000D01*
X46528350Y-72044725D01*
X46859570Y-72540430D01*
X47355275Y-72871650D01*
X47792402Y-72958600D01*
X48087598Y-72958600D01*
X48524725Y-72871650D01*
X49020430Y-72540430D01*
X49210000Y-72256719D01*
X49399570Y-72540430D01*
X49895275Y-72871650D01*
X50332402Y-72958600D01*
X50627598Y-72958600D01*
X51064725Y-72871650D01*
X51560430Y-72540430D01*
X51750000Y-72256719D01*
X51939570Y-72540430D01*
X52435275Y-72871650D01*
X52872402Y-72958600D01*
X53167598Y-72958600D01*
X53397973Y-72912776D01*
X53399125Y-72913928D01*
X53399131Y-72913932D01*
X53618270Y-73133071D01*
X53660672Y-73196530D01*
X53912064Y-73364505D01*
X54133749Y-73408601D01*
X54133753Y-73408601D01*
X54208600Y-73423489D01*
X54283447Y-73408601D01*
X58082930Y-73408601D01*
X61706915Y-77032586D01*
X61521111Y-77109549D01*
X61099549Y-77531111D01*
X61083247Y-77570468D01*
X60883805Y-77505800D01*
X60009605Y-78380000D01*
X60883805Y-79254200D01*
X61083247Y-79189532D01*
X61099549Y-79228889D01*
X61521111Y-79650451D01*
X62071910Y-79878600D01*
X62668090Y-79878600D01*
X62900000Y-79782540D01*
X62899999Y-82166866D01*
X62659614Y-81926481D01*
X62596290Y-81831710D01*
X62220856Y-81580853D01*
X61889784Y-81514999D01*
X61778001Y-81492764D01*
X61666218Y-81514999D01*
X59490132Y-81514999D01*
X57775927Y-79800795D01*
X58138889Y-79650451D01*
X58355535Y-79433805D01*
X58955800Y-79433805D01*
X59037741Y-79686516D01*
X59598030Y-79890248D01*
X60193635Y-79864058D01*
X60622259Y-79686516D01*
X60704200Y-79433805D01*
X59830000Y-78559605D01*
X58955800Y-79433805D01*
X58355535Y-79433805D01*
X58560451Y-79228889D01*
X58576753Y-79189532D01*
X58776195Y-79254200D01*
X59650395Y-78380000D01*
X58776195Y-77505800D01*
X58576753Y-77570468D01*
X58560451Y-77531111D01*
X58355535Y-77326195D01*
X58955800Y-77326195D01*
X59830000Y-78200395D01*
X60704200Y-77326195D01*
X60622259Y-77073484D01*
X60061970Y-76869752D01*
X59466365Y-76895942D01*
X59037741Y-77073484D01*
X58955800Y-77326195D01*
X58355535Y-77326195D01*
X58138889Y-77109549D01*
X57588090Y-76881400D01*
X56991910Y-76881400D01*
X56441111Y-77109549D01*
X56020000Y-77530660D01*
X55598889Y-77109549D01*
X55048090Y-76881400D01*
X54451910Y-76881400D01*
X53901111Y-77109549D01*
X53480000Y-77530660D01*
X53058889Y-77109549D01*
X52508090Y-76881400D01*
X51911910Y-76881400D01*
X51361111Y-77109549D01*
X50940000Y-77530660D01*
X50518889Y-77109549D01*
X49968090Y-76881400D01*
X49371910Y-76881400D01*
X48821111Y-77109549D01*
X48400000Y-77530660D01*
X47978889Y-77109549D01*
X47428090Y-76881400D01*
X46831910Y-76881400D01*
X46281111Y-77109549D01*
X45860000Y-77530660D01*
X45438889Y-77109549D01*
X44888090Y-76881400D01*
X44291910Y-76881400D01*
X43741111Y-77109549D01*
X43320000Y-77530660D01*
X42898889Y-77109549D01*
X42348090Y-76881400D01*
X41751910Y-76881400D01*
X41458601Y-77002893D01*
X41458601Y-66201202D01*
X49925197Y-57734608D01*
X50280091Y-57971740D01*
X50698667Y-58055000D01*
X50981333Y-58055000D01*
X51399909Y-57971740D01*
X51874577Y-57654577D01*
X52110000Y-57302242D01*
X52345423Y-57654577D01*
X52820091Y-57971740D01*
X53238667Y-58055000D01*
X53521333Y-58055000D01*
X53939909Y-57971740D01*
X54414577Y-57654577D01*
X54650000Y-57302242D01*
X54885423Y-57654577D01*
X55360091Y-57971740D01*
X55778667Y-58055000D01*
X56061333Y-58055000D01*
X56479909Y-57971740D01*
X56954577Y-57654577D01*
X57190000Y-57302242D01*
X57425423Y-57654577D01*
X57900091Y-57971740D01*
X58318667Y-58055000D01*
X58601333Y-58055000D01*
X59019909Y-57971740D01*
X59494577Y-57654577D01*
X59730000Y-57302242D01*
X59965423Y-57654577D01*
X60440091Y-57971740D01*
X60858667Y-58055000D01*
X61141333Y-58055000D01*
X61559909Y-57971740D01*
X62034577Y-57654577D01*
X62351740Y-57179909D01*
X62463113Y-56620000D01*
X62351740Y-56060091D01*
X62174028Y-55794126D01*
X70965000Y-55794126D01*
X70965000Y-56205874D01*
X71122569Y-56586280D01*
X71413720Y-56877431D01*
X71794126Y-57035000D01*
X72205874Y-57035000D01*
X72586280Y-56877431D01*
X72877431Y-56586280D01*
X73035000Y-56205874D01*
X73035000Y-55967671D01*
X73062181Y-55940490D01*
X73122569Y-56086280D01*
X73413720Y-56377431D01*
X73794126Y-56535000D01*
X74205874Y-56535000D01*
X74586280Y-56377431D01*
X74877431Y-56086280D01*
X75035000Y-55705874D01*
X75035000Y-55539801D01*
X82129890Y-48444912D01*
X82099041Y-48600000D01*
X82215350Y-49184725D01*
X82546570Y-49680430D01*
X83042275Y-50011650D01*
X83479402Y-50098600D01*
X83774598Y-50098600D01*
X84211725Y-50011650D01*
X84707430Y-49680430D01*
X84900037Y-49392174D01*
X85278510Y-49806821D01*
X85807973Y-50054968D01*
X86040000Y-49934469D01*
X86040000Y-48727000D01*
X86294000Y-48727000D01*
X86294000Y-49934469D01*
X86526027Y-50054968D01*
X87055490Y-49806821D01*
X87449688Y-49374947D01*
X87621958Y-48959026D01*
X87500817Y-48727000D01*
X86294000Y-48727000D01*
X86040000Y-48727000D01*
X86020000Y-48727000D01*
X86020000Y-48473000D01*
X86040000Y-48473000D01*
X86040000Y-48453000D01*
X86294000Y-48453000D01*
X86294000Y-48473000D01*
X87500817Y-48473000D01*
X87621958Y-48240974D01*
X87449688Y-47825053D01*
X87055490Y-47393179D01*
X86945979Y-47341854D01*
X87247430Y-47140430D01*
X87578650Y-46644725D01*
X87694959Y-46060000D01*
X87578650Y-45475275D01*
X87247430Y-44979570D01*
X86963719Y-44790000D01*
X87247430Y-44600430D01*
X87578650Y-44104725D01*
X87694959Y-43520000D01*
X87578650Y-42935275D01*
X87247430Y-42439570D01*
X86751725Y-42108350D01*
X86314598Y-42021400D01*
X86019402Y-42021400D01*
X85582275Y-42108350D01*
X85086570Y-42439570D01*
X84897000Y-42723281D01*
X84707430Y-42439570D01*
X84211725Y-42108350D01*
X83774598Y-42021400D01*
X83479402Y-42021400D01*
X83042275Y-42108350D01*
X82546570Y-42439570D01*
X82215350Y-42935275D01*
X82099041Y-43520000D01*
X82133670Y-43694092D01*
X72411481Y-53416282D01*
X72245408Y-53416282D01*
X71865002Y-53573851D01*
X71573851Y-53865002D01*
X71416282Y-54245408D01*
X71416282Y-54657156D01*
X71573851Y-55037562D01*
X71587059Y-55050770D01*
X71413720Y-55122569D01*
X71122569Y-55413720D01*
X70965000Y-55794126D01*
X62174028Y-55794126D01*
X62034577Y-55585423D01*
X61559909Y-55268260D01*
X61141333Y-55185000D01*
X60858667Y-55185000D01*
X60440091Y-55268260D01*
X59965423Y-55585423D01*
X59730000Y-55937758D01*
X59494577Y-55585423D01*
X59019909Y-55268260D01*
X58601333Y-55185000D01*
X58318667Y-55185000D01*
X57900091Y-55268260D01*
X57425423Y-55585423D01*
X57190000Y-55937758D01*
X56954577Y-55585423D01*
X56479909Y-55268260D01*
X56061333Y-55185000D01*
X55778667Y-55185000D01*
X55360091Y-55268260D01*
X54885423Y-55585423D01*
X54650000Y-55937758D01*
X54414577Y-55585423D01*
X53939909Y-55268260D01*
X53521333Y-55185000D01*
X53238667Y-55185000D01*
X52820091Y-55268260D01*
X52345423Y-55585423D01*
X52110000Y-55937758D01*
X51874577Y-55585423D01*
X51399909Y-55268260D01*
X50981333Y-55185000D01*
X50698667Y-55185000D01*
X50474999Y-55229490D01*
X50474999Y-52979802D01*
X53056114Y-50398688D01*
X53238667Y-50435000D01*
X53521333Y-50435000D01*
X53703887Y-50398688D01*
X53914670Y-50609471D01*
X53957072Y-50672930D01*
X54208464Y-50840905D01*
X54430149Y-50885001D01*
X54430153Y-50885001D01*
X54505000Y-50899889D01*
X54579847Y-50885001D01*
X57260152Y-50885001D01*
X57334999Y-50899889D01*
X57409846Y-50885001D01*
X57409851Y-50885001D01*
X57631536Y-50840905D01*
X57882928Y-50672930D01*
X57925330Y-50609471D01*
X58136113Y-50398688D01*
X58318667Y-50435000D01*
X58601333Y-50435000D01*
X59019909Y-50351740D01*
X59494577Y-50034577D01*
X59575215Y-49913894D01*
X59601843Y-50047765D01*
X59742191Y-50257809D01*
X59952235Y-50398157D01*
X60200000Y-50447440D01*
X61800000Y-50447440D01*
X62047765Y-50398157D01*
X62257809Y-50257809D01*
X62398157Y-50047765D01*
X62447440Y-49800000D01*
X62447440Y-48200000D01*
X62398157Y-47952235D01*
X62257809Y-47742191D01*
X62047765Y-47601843D01*
X61800000Y-47552560D01*
X60200000Y-47552560D01*
X59952235Y-47601843D01*
X59742191Y-47742191D01*
X59601843Y-47952235D01*
X59575215Y-48086106D01*
X59494577Y-47965423D01*
X59019909Y-47648260D01*
X58601333Y-47565000D01*
X58318667Y-47565000D01*
X57900091Y-47648260D01*
X57425423Y-47965423D01*
X57190000Y-48317758D01*
X56954577Y-47965423D01*
X56479909Y-47648260D01*
X56061333Y-47565000D01*
X55778667Y-47565000D01*
X55360091Y-47648260D01*
X54885423Y-47965423D01*
X54650000Y-48317758D01*
X54414577Y-47965423D01*
X53939909Y-47648260D01*
X53521333Y-47565000D01*
X53238667Y-47565000D01*
X52820091Y-47648260D01*
X52345423Y-47965423D01*
X52110000Y-48317758D01*
X51874577Y-47965423D01*
X51399909Y-47648260D01*
X50981333Y-47565000D01*
X50698667Y-47565000D01*
X50280091Y-47648260D01*
X49805423Y-47965423D01*
X49570000Y-48317758D01*
X49334577Y-47965423D01*
X48859909Y-47648260D01*
X48441333Y-47565000D01*
X48158667Y-47565000D01*
X47740091Y-47648260D01*
X47265423Y-47965423D01*
X47009053Y-48349108D01*
X46912389Y-48144866D01*
X46497423Y-47768959D01*
X46109039Y-47608096D01*
X45887000Y-47730085D01*
X45887000Y-48873000D01*
X45907000Y-48873000D01*
X45907000Y-49127000D01*
X45887000Y-49127000D01*
X45887000Y-50269915D01*
X46109039Y-50391904D01*
X46497423Y-50231041D01*
X46912389Y-49855134D01*
X47009053Y-49650892D01*
X47265423Y-50034577D01*
X47740091Y-50351740D01*
X48158667Y-50435000D01*
X48441333Y-50435000D01*
X48859909Y-50351740D01*
X49334577Y-50034577D01*
X49570000Y-49682242D01*
X49805423Y-50034577D01*
X50280091Y-50351740D01*
X50698667Y-50435000D01*
X50870198Y-50435000D01*
X49230527Y-52074672D01*
X49167071Y-52117072D01*
X49124671Y-52180528D01*
X49124670Y-52180529D01*
X48999096Y-52368464D01*
X48940111Y-52665001D01*
X48955000Y-52739853D01*
X48954999Y-55331797D01*
X48859909Y-55268260D01*
X48441333Y-55185000D01*
X48158667Y-55185000D01*
X47740091Y-55268260D01*
X47265423Y-55585423D01*
X47030000Y-55937758D01*
X46794577Y-55585423D01*
X46319909Y-55268260D01*
X45901333Y-55185000D01*
X45618667Y-55185000D01*
X45200091Y-55268260D01*
X44725423Y-55585423D01*
X44408260Y-56060091D01*
X44296887Y-56620000D01*
X44408260Y-57179909D01*
X44725423Y-57654577D01*
X45200091Y-57971740D01*
X45618667Y-58055000D01*
X45901333Y-58055000D01*
X46319909Y-57971740D01*
X46794577Y-57654577D01*
X47030000Y-57302242D01*
X47265423Y-57654577D01*
X47619222Y-57890978D01*
X40214129Y-65296072D01*
X40150673Y-65338472D01*
X40108273Y-65401928D01*
X40108272Y-65401929D01*
X39982698Y-65589864D01*
X39923713Y-65886401D01*
X39938602Y-65961253D01*
X39938602Y-76935460D01*
X39808090Y-76881400D01*
X39211910Y-76881400D01*
X38661111Y-77109549D01*
X38240000Y-77530660D01*
X37818889Y-77109549D01*
X37268090Y-76881400D01*
X36671910Y-76881400D01*
X36121111Y-77109549D01*
X35700000Y-77530660D01*
X35278889Y-77109549D01*
X34728090Y-76881400D01*
X34131910Y-76881400D01*
X33581111Y-77109549D01*
X33160000Y-77530660D01*
X32738889Y-77109549D01*
X32188090Y-76881400D01*
X31591910Y-76881400D01*
X31041111Y-77109549D01*
X30620000Y-77530660D01*
X30198889Y-77109549D01*
X29648090Y-76881400D01*
X29051910Y-76881400D01*
X28501111Y-77109549D01*
X28080000Y-77530660D01*
X27658889Y-77109549D01*
X27108090Y-76881400D01*
X26511910Y-76881400D01*
X25961111Y-77109549D01*
X25583417Y-77487244D01*
X25153669Y-77057496D01*
X24580303Y-76820000D01*
X23959697Y-76820000D01*
X23386331Y-77057496D01*
X22947496Y-77496331D01*
X22710000Y-78069697D01*
X22710000Y-78690303D01*
X22947496Y-79263669D01*
X23386331Y-79702504D01*
X23959697Y-79940000D01*
X24580303Y-79940000D01*
X25153669Y-79702504D01*
X25583417Y-79272757D01*
X25961111Y-79650451D01*
X26511910Y-79878600D01*
X27108090Y-79878600D01*
X27658889Y-79650451D01*
X28080000Y-79229340D01*
X28501111Y-79650451D01*
X29051910Y-79878600D01*
X29648090Y-79878600D01*
X30198889Y-79650451D01*
X30620000Y-79229340D01*
X31041111Y-79650451D01*
X31591910Y-79878600D01*
X32188090Y-79878600D01*
X32318602Y-79824540D01*
X32318601Y-92175460D01*
X32188090Y-92121400D01*
X31591910Y-92121400D01*
X31041111Y-92349549D01*
X30620000Y-92770660D01*
X30198889Y-92349549D01*
X29648090Y-92121400D01*
X29051910Y-92121400D01*
X28501111Y-92349549D01*
X28080000Y-92770660D01*
X27658889Y-92349549D01*
X27108090Y-92121400D01*
X26511910Y-92121400D01*
X25961111Y-92349549D01*
X25583417Y-92727244D01*
X25153669Y-92297496D01*
X24580303Y-92060000D01*
X23959697Y-92060000D01*
X23386331Y-92297496D01*
X22947496Y-92736331D01*
X22710000Y-93309697D01*
X22710000Y-93930303D01*
X22947496Y-94503669D01*
X23386331Y-94942504D01*
X23959697Y-95180000D01*
X24175199Y-95180000D01*
X23602529Y-95752670D01*
X23539073Y-95795070D01*
X23496673Y-95858526D01*
X23496672Y-95858527D01*
X23371098Y-96046462D01*
X23312113Y-96342999D01*
X23327002Y-96417851D01*
X23327002Y-96603000D01*
X23285750Y-96603000D01*
X23127000Y-96761750D01*
X23127000Y-97873000D01*
X23147000Y-97873000D01*
X23147000Y-98127000D01*
X23127000Y-98127000D01*
X23127000Y-98147000D01*
X22873000Y-98147000D01*
X22873000Y-98127000D01*
X22853000Y-98127000D01*
X22853000Y-97873000D01*
X22873000Y-97873000D01*
X22873000Y-96761750D01*
X22714250Y-96603000D01*
X22127000Y-96603000D01*
X22127000Y-71015431D01*
X31735000Y-71015431D01*
X31735000Y-71904569D01*
X32075259Y-72726026D01*
X32703974Y-73354741D01*
X33525431Y-73695000D01*
X34414569Y-73695000D01*
X35236026Y-73354741D01*
X35864741Y-72726026D01*
X36205000Y-71904569D01*
X36205000Y-71015431D01*
X35864741Y-70193974D01*
X35236026Y-69565259D01*
X34414569Y-69225000D01*
X33525431Y-69225000D01*
X32703974Y-69565259D01*
X32075259Y-70193974D01*
X31735000Y-71015431D01*
X22127000Y-71015431D01*
X22127000Y-53500000D01*
X22852560Y-53500000D01*
X22852560Y-56500000D01*
X22901843Y-56747765D01*
X23042191Y-56957809D01*
X23252235Y-57098157D01*
X23500000Y-57147440D01*
X26500000Y-57147440D01*
X26747765Y-57098157D01*
X26957809Y-56957809D01*
X27098157Y-56747765D01*
X27147440Y-56500000D01*
X27147440Y-53500000D01*
X27098157Y-53252235D01*
X26957809Y-53042191D01*
X26747765Y-52901843D01*
X26500000Y-52852560D01*
X23500000Y-52852560D01*
X23252235Y-52901843D01*
X23042191Y-53042191D01*
X22901843Y-53252235D01*
X22852560Y-53500000D01*
X22127000Y-53500000D01*
X22127000Y-51433970D01*
X23665635Y-51433970D01*
X23825418Y-51752739D01*
X24616187Y-52062723D01*
X25465387Y-52046497D01*
X26174582Y-51752739D01*
X26334365Y-51433970D01*
X25000000Y-50099605D01*
X23665635Y-51433970D01*
X22127000Y-51433970D01*
X22127000Y-49536187D01*
X22857277Y-49536187D01*
X22873503Y-50385387D01*
X23167261Y-51094582D01*
X23486030Y-51254365D01*
X24820395Y-49920000D01*
X25179605Y-49920000D01*
X26513970Y-51254365D01*
X26832739Y-51094582D01*
X27142723Y-50303813D01*
X27126497Y-49454613D01*
X27082768Y-49349041D01*
X44368086Y-49349041D01*
X44607611Y-49855134D01*
X45022577Y-50231041D01*
X45410961Y-50391904D01*
X45633000Y-50269915D01*
X45633000Y-49127000D01*
X44489371Y-49127000D01*
X44368086Y-49349041D01*
X27082768Y-49349041D01*
X26832739Y-48745418D01*
X26644293Y-48650959D01*
X44368086Y-48650959D01*
X44489371Y-48873000D01*
X45633000Y-48873000D01*
X45633000Y-47730085D01*
X45410961Y-47608096D01*
X45022577Y-47768959D01*
X44607611Y-48144866D01*
X44368086Y-48650959D01*
X26644293Y-48650959D01*
X26513970Y-48585635D01*
X25179605Y-49920000D01*
X24820395Y-49920000D01*
X23486030Y-48585635D01*
X23167261Y-48745418D01*
X22857277Y-49536187D01*
X22127000Y-49536187D01*
X22127000Y-48406030D01*
X23665635Y-48406030D01*
X25000000Y-49740395D01*
X26334365Y-48406030D01*
X26174582Y-48087261D01*
X25383813Y-47777277D01*
X24534613Y-47793503D01*
X23825418Y-48087261D01*
X23665635Y-48406030D01*
X22127000Y-48406030D01*
X22127000Y-30285750D01*
X41515000Y-30285750D01*
X41515000Y-30976309D01*
X41611673Y-31209698D01*
X41790301Y-31388327D01*
X42023690Y-31485000D01*
X42714250Y-31485000D01*
X42873000Y-31326250D01*
X42873000Y-30127000D01*
X41673750Y-30127000D01*
X41515000Y-30285750D01*
X22127000Y-30285750D01*
X22127000Y-29023691D01*
X41515000Y-29023691D01*
X41515000Y-29714250D01*
X41673750Y-29873000D01*
X42873000Y-29873000D01*
X42873000Y-28673750D01*
X43127000Y-28673750D01*
X43127000Y-29873000D01*
X43147000Y-29873000D01*
X43147000Y-30127000D01*
X43127000Y-30127000D01*
X43127000Y-31326250D01*
X43285750Y-31485000D01*
X43976310Y-31485000D01*
X44209699Y-31388327D01*
X44388327Y-31209698D01*
X44454904Y-31048967D01*
X44469375Y-31070625D01*
X44960582Y-31398839D01*
X45393744Y-31485000D01*
X45686256Y-31485000D01*
X46119418Y-31398839D01*
X46610625Y-31070625D01*
X46810000Y-30772239D01*
X47009375Y-31070625D01*
X47500582Y-31398839D01*
X47933744Y-31485000D01*
X48226256Y-31485000D01*
X48659418Y-31398839D01*
X49150625Y-31070625D01*
X49478839Y-30579418D01*
X49537252Y-30285750D01*
X54515000Y-30285750D01*
X54515000Y-30976309D01*
X54611673Y-31209698D01*
X54790301Y-31388327D01*
X55023690Y-31485000D01*
X55714250Y-31485000D01*
X55873000Y-31326250D01*
X55873000Y-30127000D01*
X54673750Y-30127000D01*
X54515000Y-30285750D01*
X49537252Y-30285750D01*
X49594092Y-30000000D01*
X49478839Y-29420582D01*
X49213645Y-29023691D01*
X54515000Y-29023691D01*
X54515000Y-29714250D01*
X54673750Y-29873000D01*
X55873000Y-29873000D01*
X55873000Y-28673750D01*
X56127000Y-28673750D01*
X56127000Y-29873000D01*
X56147000Y-29873000D01*
X56147000Y-30127000D01*
X56127000Y-30127000D01*
X56127000Y-31326250D01*
X56285750Y-31485000D01*
X56976310Y-31485000D01*
X57209699Y-31388327D01*
X57388327Y-31209698D01*
X57454904Y-31048967D01*
X57469375Y-31070625D01*
X57960582Y-31398839D01*
X58393744Y-31485000D01*
X58686256Y-31485000D01*
X59119418Y-31398839D01*
X59610625Y-31070625D01*
X59810000Y-30772239D01*
X60009375Y-31070625D01*
X60500582Y-31398839D01*
X60933744Y-31485000D01*
X61226256Y-31485000D01*
X61659418Y-31398839D01*
X62150625Y-31070625D01*
X62478839Y-30579418D01*
X62523102Y-30356892D01*
X68858514Y-30356892D01*
X69104817Y-30881358D01*
X69533076Y-31271645D01*
X69943110Y-31441476D01*
X70173000Y-31320155D01*
X70173000Y-30127000D01*
X68979181Y-30127000D01*
X68858514Y-30356892D01*
X62523102Y-30356892D01*
X62594092Y-30000000D01*
X62523103Y-29643108D01*
X68858514Y-29643108D01*
X68979181Y-29873000D01*
X70173000Y-29873000D01*
X70173000Y-28679845D01*
X69943110Y-28558524D01*
X69533076Y-28728355D01*
X69104817Y-29118642D01*
X68858514Y-29643108D01*
X62523103Y-29643108D01*
X62478839Y-29420582D01*
X62150625Y-28929375D01*
X61659418Y-28601161D01*
X61226256Y-28515000D01*
X60933744Y-28515000D01*
X60500582Y-28601161D01*
X60009375Y-28929375D01*
X59810000Y-29227761D01*
X59610625Y-28929375D01*
X59119418Y-28601161D01*
X58686256Y-28515000D01*
X58393744Y-28515000D01*
X57960582Y-28601161D01*
X57469375Y-28929375D01*
X57454904Y-28951033D01*
X57388327Y-28790302D01*
X57209699Y-28611673D01*
X56976310Y-28515000D01*
X56285750Y-28515000D01*
X56127000Y-28673750D01*
X55873000Y-28673750D01*
X55714250Y-28515000D01*
X55023690Y-28515000D01*
X54790301Y-28611673D01*
X54611673Y-28790302D01*
X54515000Y-29023691D01*
X49213645Y-29023691D01*
X49150625Y-28929375D01*
X48659418Y-28601161D01*
X48226256Y-28515000D01*
X47933744Y-28515000D01*
X47500582Y-28601161D01*
X47009375Y-28929375D01*
X46810000Y-29227761D01*
X46610625Y-28929375D01*
X46119418Y-28601161D01*
X45686256Y-28515000D01*
X45393744Y-28515000D01*
X44960582Y-28601161D01*
X44469375Y-28929375D01*
X44454904Y-28951033D01*
X44388327Y-28790302D01*
X44209699Y-28611673D01*
X43976310Y-28515000D01*
X43285750Y-28515000D01*
X43127000Y-28673750D01*
X42873000Y-28673750D01*
X42714250Y-28515000D01*
X42023690Y-28515000D01*
X41790301Y-28611673D01*
X41611673Y-28790302D01*
X41515000Y-29023691D01*
X22127000Y-29023691D01*
X22127000Y-22127000D01*
X33265305Y-22127000D01*
X33005000Y-22755431D01*
G36*
X102739570Y-72540430D02*
X103235275Y-72871650D01*
X103672402Y-72958600D01*
X103967598Y-72958600D01*
X104404725Y-72871650D01*
X104411399Y-72867190D01*
X104411399Y-77440797D01*
X103789604Y-78062592D01*
X103638922Y-77698815D01*
X103221185Y-77281078D01*
X102675385Y-77055000D01*
X102084615Y-77055000D01*
X101538815Y-77281078D01*
X101121078Y-77698815D01*
X101110000Y-77725560D01*
X101098922Y-77698815D01*
X100681185Y-77281078D01*
X100135385Y-77055000D01*
X99544615Y-77055000D01*
X98998815Y-77281078D01*
X98581078Y-77698815D01*
X98561845Y-77745247D01*
X98343958Y-77675647D01*
X97479605Y-78540000D01*
X98343958Y-79404353D01*
X98561845Y-79334753D01*
X98581078Y-79381185D01*
X98998815Y-79798922D01*
X99544615Y-80025000D01*
X100135385Y-80025000D01*
X100681185Y-79798922D01*
X101098922Y-79381185D01*
X101110000Y-79354440D01*
X101121078Y-79381185D01*
X101538815Y-79798922D01*
X101902592Y-79949604D01*
X91192528Y-90659669D01*
X91192525Y-90659671D01*
X89195528Y-92656669D01*
X89132072Y-92699069D01*
X89089672Y-92762525D01*
X89089671Y-92762526D01*
X88964097Y-92950461D01*
X88905112Y-93246998D01*
X88920001Y-93321850D01*
X88920000Y-97567450D01*
X88838815Y-97601078D01*
X88421078Y-98018815D01*
X88410000Y-98045560D01*
X88398922Y-98018815D01*
X87981185Y-97601078D01*
X87435385Y-97375000D01*
X87159803Y-97375000D01*
X87624476Y-96910327D01*
X87687929Y-96867929D01*
X87730327Y-96804476D01*
X87730329Y-96804474D01*
X87826474Y-96660582D01*
X87855904Y-96616537D01*
X87900000Y-96394852D01*
X87900000Y-96394848D01*
X87914888Y-96320001D01*
X87900000Y-96245154D01*
X87900000Y-80351750D01*
X88018464Y-80430905D01*
X88240149Y-80475001D01*
X88240153Y-80475001D01*
X88315000Y-80489889D01*
X88389847Y-80475001D01*
X92709154Y-80475001D01*
X92784001Y-80489889D01*
X92858848Y-80475001D01*
X92858853Y-80475001D01*
X93080538Y-80430905D01*
X93331930Y-80262930D01*
X93374332Y-80199471D01*
X93846848Y-79726955D01*
X93918815Y-79798922D01*
X94464615Y-80025000D01*
X95055385Y-80025000D01*
X95601185Y-79798922D01*
X95816149Y-79583958D01*
X96435647Y-79583958D01*
X96515920Y-79835259D01*
X97071279Y-80036718D01*
X97661458Y-80010315D01*
X98084080Y-79835259D01*
X98164353Y-79583958D01*
X97300000Y-78719605D01*
X96435647Y-79583958D01*
X95816149Y-79583958D01*
X96018922Y-79381185D01*
X96038155Y-79334753D01*
X96256042Y-79404353D01*
X97120395Y-78540000D01*
X96256042Y-77675647D01*
X96038155Y-77745247D01*
X96018922Y-77698815D01*
X95816149Y-77496042D01*
X96435647Y-77496042D01*
X97300000Y-78360395D01*
X98164353Y-77496042D01*
X98084080Y-77244741D01*
X97528721Y-77043282D01*
X96938542Y-77069685D01*
X96515920Y-77244741D01*
X96435647Y-77496042D01*
X95816149Y-77496042D01*
X95601185Y-77281078D01*
X95055385Y-77055000D01*
X94464615Y-77055000D01*
X94344999Y-77104547D01*
X94344999Y-73608932D01*
X95295769Y-72658163D01*
X95615275Y-72871650D01*
X96052402Y-72958600D01*
X96347598Y-72958600D01*
X96784725Y-72871650D01*
X97280430Y-72540430D01*
X97470000Y-72256719D01*
X97659570Y-72540430D01*
X98155275Y-72871650D01*
X98592402Y-72958600D01*
X98887598Y-72958600D01*
X99324725Y-72871650D01*
X99820430Y-72540430D01*
X100010000Y-72256719D01*
X100199570Y-72540430D01*
X100695275Y-72871650D01*
X101132402Y-72958600D01*
X101427598Y-72958600D01*
X101864725Y-72871650D01*
X102360430Y-72540430D01*
X102550000Y-72256719D01*
X102739570Y-72540430D01*
X102739570Y-72540430D01*
G37*
X102739570Y-72540430D02*
X103235275Y-72871650D01*
X103672402Y-72958600D01*
X103967598Y-72958600D01*
X104404725Y-72871650D01*
X104411399Y-72867190D01*
X104411399Y-77440797D01*
X103789604Y-78062592D01*
X103638922Y-77698815D01*
X103221185Y-77281078D01*
X102675385Y-77055000D01*
X102084615Y-77055000D01*
X101538815Y-77281078D01*
X101121078Y-77698815D01*
X101110000Y-77725560D01*
X101098922Y-77698815D01*
X100681185Y-77281078D01*
X100135385Y-77055000D01*
X99544615Y-77055000D01*
X98998815Y-77281078D01*
X98581078Y-77698815D01*
X98561845Y-77745247D01*
X98343958Y-77675647D01*
X97479605Y-78540000D01*
X98343958Y-79404353D01*
X98561845Y-79334753D01*
X98581078Y-79381185D01*
X98998815Y-79798922D01*
X99544615Y-80025000D01*
X100135385Y-80025000D01*
X100681185Y-79798922D01*
X101098922Y-79381185D01*
X101110000Y-79354440D01*
X101121078Y-79381185D01*
X101538815Y-79798922D01*
X101902592Y-79949604D01*
X91192528Y-90659669D01*
X91192525Y-90659671D01*
X89195528Y-92656669D01*
X89132072Y-92699069D01*
X89089672Y-92762525D01*
X89089671Y-92762526D01*
X88964097Y-92950461D01*
X88905112Y-93246998D01*
X88920001Y-93321850D01*
X88920000Y-97567450D01*
X88838815Y-97601078D01*
X88421078Y-98018815D01*
X88410000Y-98045560D01*
X88398922Y-98018815D01*
X87981185Y-97601078D01*
X87435385Y-97375000D01*
X87159803Y-97375000D01*
X87624476Y-96910327D01*
X87687929Y-96867929D01*
X87730327Y-96804476D01*
X87730329Y-96804474D01*
X87826474Y-96660582D01*
X87855904Y-96616537D01*
X87900000Y-96394852D01*
X87900000Y-96394848D01*
X87914888Y-96320001D01*
X87900000Y-96245154D01*
X87900000Y-80351750D01*
X88018464Y-80430905D01*
X88240149Y-80475001D01*
X88240153Y-80475001D01*
X88315000Y-80489889D01*
X88389847Y-80475001D01*
X92709154Y-80475001D01*
X92784001Y-80489889D01*
X92858848Y-80475001D01*
X92858853Y-80475001D01*
X93080538Y-80430905D01*
X93331930Y-80262930D01*
X93374332Y-80199471D01*
X93846848Y-79726955D01*
X93918815Y-79798922D01*
X94464615Y-80025000D01*
X95055385Y-80025000D01*
X95601185Y-79798922D01*
X95816149Y-79583958D01*
X96435647Y-79583958D01*
X96515920Y-79835259D01*
X97071279Y-80036718D01*
X97661458Y-80010315D01*
X98084080Y-79835259D01*
X98164353Y-79583958D01*
X97300000Y-78719605D01*
X96435647Y-79583958D01*
X95816149Y-79583958D01*
X96018922Y-79381185D01*
X96038155Y-79334753D01*
X96256042Y-79404353D01*
X97120395Y-78540000D01*
X96256042Y-77675647D01*
X96038155Y-77745247D01*
X96018922Y-77698815D01*
X95816149Y-77496042D01*
X96435647Y-77496042D01*
X97300000Y-78360395D01*
X98164353Y-77496042D01*
X98084080Y-77244741D01*
X97528721Y-77043282D01*
X96938542Y-77069685D01*
X96515920Y-77244741D01*
X96435647Y-77496042D01*
X95816149Y-77496042D01*
X95601185Y-77281078D01*
X95055385Y-77055000D01*
X94464615Y-77055000D01*
X94344999Y-77104547D01*
X94344999Y-73608932D01*
X95295769Y-72658163D01*
X95615275Y-72871650D01*
X96052402Y-72958600D01*
X96347598Y-72958600D01*
X96784725Y-72871650D01*
X97280430Y-72540430D01*
X97470000Y-72256719D01*
X97659570Y-72540430D01*
X98155275Y-72871650D01*
X98592402Y-72958600D01*
X98887598Y-72958600D01*
X99324725Y-72871650D01*
X99820430Y-72540430D01*
X100010000Y-72256719D01*
X100199570Y-72540430D01*
X100695275Y-72871650D01*
X101132402Y-72958600D01*
X101427598Y-72958600D01*
X101864725Y-72871650D01*
X102360430Y-72540430D01*
X102550000Y-72256719D01*
X102739570Y-72540430D01*
G36*
X53901111Y-79650451D02*
X54451910Y-79878600D01*
X54643469Y-79878600D01*
X58138389Y-83373522D01*
X58201710Y-83468288D01*
X58577144Y-83719145D01*
X58908216Y-83784999D01*
X59019998Y-83807234D01*
X59131780Y-83784999D01*
X60215000Y-83784999D01*
X60215000Y-83955874D01*
X60372569Y-84336280D01*
X60421400Y-84385111D01*
X60421399Y-92242893D01*
X60128090Y-92121400D01*
X59531910Y-92121400D01*
X58981111Y-92349549D01*
X58560000Y-92770660D01*
X58138889Y-92349549D01*
X57588090Y-92121400D01*
X56991910Y-92121400D01*
X56441111Y-92349549D01*
X56019549Y-92771111D01*
X56003247Y-92810468D01*
X55803805Y-92745800D01*
X54929605Y-93620000D01*
X55803805Y-94494200D01*
X56003247Y-94429532D01*
X56019549Y-94468889D01*
X56441111Y-94890451D01*
X56991910Y-95118600D01*
X57588090Y-95118600D01*
X58138889Y-94890451D01*
X58560000Y-94469340D01*
X58981111Y-94890451D01*
X59531910Y-95118600D01*
X59861598Y-95118600D01*
X58027501Y-96952698D01*
X55398932Y-94324131D01*
X55356530Y-94260672D01*
X55105138Y-94092697D01*
X55027686Y-94077291D01*
X54750000Y-93799605D01*
X54735858Y-93813748D01*
X54556253Y-93634143D01*
X54570395Y-93620000D01*
X53696195Y-92745800D01*
X53496753Y-92810468D01*
X53480451Y-92771111D01*
X53275535Y-92566195D01*
X53875800Y-92566195D01*
X54750000Y-93440395D01*
X55624200Y-92566195D01*
X55542259Y-92313484D01*
X54981970Y-92109752D01*
X54386365Y-92135942D01*
X53957741Y-92313484D01*
X53875800Y-92566195D01*
X53275535Y-92566195D01*
X53058889Y-92349549D01*
X52508090Y-92121400D01*
X51911910Y-92121400D01*
X51361111Y-92349549D01*
X50940000Y-92770660D01*
X50518889Y-92349549D01*
X49968090Y-92121400D01*
X49371910Y-92121400D01*
X48821111Y-92349549D01*
X48400000Y-92770660D01*
X47978889Y-92349549D01*
X47428090Y-92121400D01*
X46831910Y-92121400D01*
X46281111Y-92349549D01*
X45860000Y-92770660D01*
X45438889Y-92349549D01*
X44888090Y-92121400D01*
X44291910Y-92121400D01*
X43741111Y-92349549D01*
X43320000Y-92770660D01*
X42898889Y-92349549D01*
X42348090Y-92121400D01*
X41751910Y-92121400D01*
X41458601Y-92242893D01*
X41458601Y-79757107D01*
X41751910Y-79878600D01*
X42348090Y-79878600D01*
X42898889Y-79650451D01*
X43320000Y-79229340D01*
X43741111Y-79650451D01*
X44291910Y-79878600D01*
X44888090Y-79878600D01*
X45438889Y-79650451D01*
X45860000Y-79229340D01*
X46281111Y-79650451D01*
X46831910Y-79878600D01*
X47428090Y-79878600D01*
X47978889Y-79650451D01*
X48400000Y-79229340D01*
X48821111Y-79650451D01*
X49371910Y-79878600D01*
X49968090Y-79878600D01*
X50518889Y-79650451D01*
X50940000Y-79229340D01*
X51361111Y-79650451D01*
X51911910Y-79878600D01*
X52508090Y-79878600D01*
X53058889Y-79650451D01*
X53480000Y-79229340D01*
X53901111Y-79650451D01*
X53901111Y-79650451D01*
G37*
X53901111Y-79650451D02*
X54451910Y-79878600D01*
X54643469Y-79878600D01*
X58138389Y-83373522D01*
X58201710Y-83468288D01*
X58577144Y-83719145D01*
X58908216Y-83784999D01*
X59019998Y-83807234D01*
X59131780Y-83784999D01*
X60215000Y-83784999D01*
X60215000Y-83955874D01*
X60372569Y-84336280D01*
X60421400Y-84385111D01*
X60421399Y-92242893D01*
X60128090Y-92121400D01*
X59531910Y-92121400D01*
X58981111Y-92349549D01*
X58560000Y-92770660D01*
X58138889Y-92349549D01*
X57588090Y-92121400D01*
X56991910Y-92121400D01*
X56441111Y-92349549D01*
X56019549Y-92771111D01*
X56003247Y-92810468D01*
X55803805Y-92745800D01*
X54929605Y-93620000D01*
X55803805Y-94494200D01*
X56003247Y-94429532D01*
X56019549Y-94468889D01*
X56441111Y-94890451D01*
X56991910Y-95118600D01*
X57588090Y-95118600D01*
X58138889Y-94890451D01*
X58560000Y-94469340D01*
X58981111Y-94890451D01*
X59531910Y-95118600D01*
X59861598Y-95118600D01*
X58027501Y-96952698D01*
X55398932Y-94324131D01*
X55356530Y-94260672D01*
X55105138Y-94092697D01*
X55027686Y-94077291D01*
X54750000Y-93799605D01*
X54735858Y-93813748D01*
X54556253Y-93634143D01*
X54570395Y-93620000D01*
X53696195Y-92745800D01*
X53496753Y-92810468D01*
X53480451Y-92771111D01*
X53275535Y-92566195D01*
X53875800Y-92566195D01*
X54750000Y-93440395D01*
X55624200Y-92566195D01*
X55542259Y-92313484D01*
X54981970Y-92109752D01*
X54386365Y-92135942D01*
X53957741Y-92313484D01*
X53875800Y-92566195D01*
X53275535Y-92566195D01*
X53058889Y-92349549D01*
X52508090Y-92121400D01*
X51911910Y-92121400D01*
X51361111Y-92349549D01*
X50940000Y-92770660D01*
X50518889Y-92349549D01*
X49968090Y-92121400D01*
X49371910Y-92121400D01*
X48821111Y-92349549D01*
X48400000Y-92770660D01*
X47978889Y-92349549D01*
X47428090Y-92121400D01*
X46831910Y-92121400D01*
X46281111Y-92349549D01*
X45860000Y-92770660D01*
X45438889Y-92349549D01*
X44888090Y-92121400D01*
X44291910Y-92121400D01*
X43741111Y-92349549D01*
X43320000Y-92770660D01*
X42898889Y-92349549D01*
X42348090Y-92121400D01*
X41751910Y-92121400D01*
X41458601Y-92242893D01*
X41458601Y-79757107D01*
X41751910Y-79878600D01*
X42348090Y-79878600D01*
X42898889Y-79650451D01*
X43320000Y-79229340D01*
X43741111Y-79650451D01*
X44291910Y-79878600D01*
X44888090Y-79878600D01*
X45438889Y-79650451D01*
X45860000Y-79229340D01*
X46281111Y-79650451D01*
X46831910Y-79878600D01*
X47428090Y-79878600D01*
X47978889Y-79650451D01*
X48400000Y-79229340D01*
X48821111Y-79650451D01*
X49371910Y-79878600D01*
X49968090Y-79878600D01*
X50518889Y-79650451D01*
X50940000Y-79229340D01*
X51361111Y-79650451D01*
X51911910Y-79878600D01*
X52508090Y-79878600D01*
X53058889Y-79650451D01*
X53480000Y-79229340D01*
X53901111Y-79650451D01*
G36*
X112899570Y-26820430D02*
X113183281Y-27010000D01*
X112899570Y-27199570D01*
X112568350Y-27695275D01*
X112452041Y-28280000D01*
X112568350Y-28864725D01*
X112899570Y-29360430D01*
X113183281Y-29550000D01*
X112899570Y-29739570D01*
X112685465Y-30060000D01*
X111754848Y-30060000D01*
X111680000Y-30045112D01*
X111605152Y-30060000D01*
X111605148Y-30060000D01*
X111431605Y-30094520D01*
X111383462Y-30104096D01*
X111263124Y-30184504D01*
X111132071Y-30272071D01*
X111089671Y-30335527D01*
X107460199Y-33965000D01*
X107294126Y-33965000D01*
X106913720Y-34122569D01*
X106622569Y-34413720D01*
X106465000Y-34794126D01*
X106465000Y-35101328D01*
X106413720Y-35122569D01*
X106122569Y-35413720D01*
X105965000Y-35794126D01*
X105965000Y-35965001D01*
X96789803Y-35965001D01*
X95535000Y-34710199D01*
X95535000Y-34544126D01*
X95377431Y-34163720D01*
X95348711Y-34135000D01*
X97968217Y-34135000D01*
X98080000Y-34157235D01*
X98191783Y-34135000D01*
X98522855Y-34069146D01*
X98898289Y-33818289D01*
X98961613Y-33723519D01*
X101111610Y-31573523D01*
X101111614Y-31573517D01*
X101200131Y-31485000D01*
X101226256Y-31485000D01*
X101659418Y-31398839D01*
X102150625Y-31070625D01*
X102165096Y-31048967D01*
X102231673Y-31209698D01*
X102410301Y-31388327D01*
X102643690Y-31485000D01*
X103334250Y-31485000D01*
X103493000Y-31326250D01*
X103493000Y-30127000D01*
X103747000Y-30127000D01*
X103747000Y-31326250D01*
X103905750Y-31485000D01*
X104596310Y-31485000D01*
X104829699Y-31388327D01*
X105008327Y-31209698D01*
X105105000Y-30976309D01*
X105105000Y-30285750D01*
X104946250Y-30127000D01*
X103747000Y-30127000D01*
X103493000Y-30127000D01*
X103473000Y-30127000D01*
X103473000Y-29873000D01*
X103493000Y-29873000D01*
X103493000Y-29853000D01*
X103747000Y-29853000D01*
X103747000Y-29873000D01*
X104946250Y-29873000D01*
X105105000Y-29714250D01*
X105105000Y-29023691D01*
X105008327Y-28790302D01*
X104829699Y-28611673D01*
X104596310Y-28515000D01*
X103905750Y-28515000D01*
X103747002Y-28673748D01*
X103747002Y-28515000D01*
X103639802Y-28515000D01*
X104644802Y-27510000D01*
X111136023Y-27510000D01*
X111210870Y-27524888D01*
X111285717Y-27510000D01*
X111285722Y-27510000D01*
X111507407Y-27465904D01*
X111758799Y-27297929D01*
X111801201Y-27234470D01*
X112625466Y-26410206D01*
X112899570Y-26820430D01*
X112899570Y-26820430D01*
G37*
X112899570Y-26820430D02*
X113183281Y-27010000D01*
X112899570Y-27199570D01*
X112568350Y-27695275D01*
X112452041Y-28280000D01*
X112568350Y-28864725D01*
X112899570Y-29360430D01*
X113183281Y-29550000D01*
X112899570Y-29739570D01*
X112685465Y-30060000D01*
X111754848Y-30060000D01*
X111680000Y-30045112D01*
X111605152Y-30060000D01*
X111605148Y-30060000D01*
X111431605Y-30094520D01*
X111383462Y-30104096D01*
X111263124Y-30184504D01*
X111132071Y-30272071D01*
X111089671Y-30335527D01*
X107460199Y-33965000D01*
X107294126Y-33965000D01*
X106913720Y-34122569D01*
X106622569Y-34413720D01*
X106465000Y-34794126D01*
X106465000Y-35101328D01*
X106413720Y-35122569D01*
X106122569Y-35413720D01*
X105965000Y-35794126D01*
X105965000Y-35965001D01*
X96789803Y-35965001D01*
X95535000Y-34710199D01*
X95535000Y-34544126D01*
X95377431Y-34163720D01*
X95348711Y-34135000D01*
X97968217Y-34135000D01*
X98080000Y-34157235D01*
X98191783Y-34135000D01*
X98522855Y-34069146D01*
X98898289Y-33818289D01*
X98961613Y-33723519D01*
X101111610Y-31573523D01*
X101111614Y-31573517D01*
X101200131Y-31485000D01*
X101226256Y-31485000D01*
X101659418Y-31398839D01*
X102150625Y-31070625D01*
X102165096Y-31048967D01*
X102231673Y-31209698D01*
X102410301Y-31388327D01*
X102643690Y-31485000D01*
X103334250Y-31485000D01*
X103493000Y-31326250D01*
X103493000Y-30127000D01*
X103747000Y-30127000D01*
X103747000Y-31326250D01*
X103905750Y-31485000D01*
X104596310Y-31485000D01*
X104829699Y-31388327D01*
X105008327Y-31209698D01*
X105105000Y-30976309D01*
X105105000Y-30285750D01*
X104946250Y-30127000D01*
X103747000Y-30127000D01*
X103493000Y-30127000D01*
X103473000Y-30127000D01*
X103473000Y-29873000D01*
X103493000Y-29873000D01*
X103493000Y-29853000D01*
X103747000Y-29853000D01*
X103747000Y-29873000D01*
X104946250Y-29873000D01*
X105105000Y-29714250D01*
X105105000Y-29023691D01*
X105008327Y-28790302D01*
X104829699Y-28611673D01*
X104596310Y-28515000D01*
X103905750Y-28515000D01*
X103747002Y-28673748D01*
X103747002Y-28515000D01*
X103639802Y-28515000D01*
X104644802Y-27510000D01*
X111136023Y-27510000D01*
X111210870Y-27524888D01*
X111285717Y-27510000D01*
X111285722Y-27510000D01*
X111507407Y-27465904D01*
X111758799Y-27297929D01*
X111801201Y-27234470D01*
X112625466Y-26410206D01*
X112899570Y-26820430D01*
G36*
X89478514Y-29643108D02*
X89599181Y-29873000D01*
X90793000Y-29873000D01*
X90793000Y-29853000D01*
X91047000Y-29853000D01*
X91047000Y-29873000D01*
X91067000Y-29873000D01*
X91067000Y-30127000D01*
X91047000Y-30127000D01*
X91047000Y-31320155D01*
X91276890Y-31441476D01*
X91686924Y-31271645D01*
X92115183Y-30881358D01*
X92176157Y-30751522D01*
X92389375Y-31070625D01*
X92880582Y-31398839D01*
X93313744Y-31485000D01*
X93606256Y-31485000D01*
X94039418Y-31398839D01*
X94530625Y-31070625D01*
X94730000Y-30772239D01*
X94929375Y-31070625D01*
X95420582Y-31398839D01*
X95853744Y-31485000D01*
X96146256Y-31485000D01*
X96579418Y-31398839D01*
X97070625Y-31070625D01*
X97270000Y-30772239D01*
X97469375Y-31070625D01*
X97960582Y-31398839D01*
X98056875Y-31417993D01*
X97609869Y-31865000D01*
X82861782Y-31865000D01*
X82749999Y-31842765D01*
X82366010Y-31919145D01*
X82307145Y-31930854D01*
X81994733Y-32139601D01*
X81595000Y-31739869D01*
X81595000Y-31169446D01*
X81611673Y-31209698D01*
X81790301Y-31388327D01*
X82023690Y-31485000D01*
X82714250Y-31485000D01*
X82873000Y-31326250D01*
X82873000Y-30127000D01*
X83127000Y-30127000D01*
X83127000Y-31326250D01*
X83285750Y-31485000D01*
X83976310Y-31485000D01*
X84209699Y-31388327D01*
X84388327Y-31209698D01*
X84485000Y-30976309D01*
X84485000Y-30356892D01*
X89478514Y-30356892D01*
X89724817Y-30881358D01*
X90153076Y-31271645D01*
X90563110Y-31441476D01*
X90793000Y-31320155D01*
X90793000Y-30127000D01*
X89599181Y-30127000D01*
X89478514Y-30356892D01*
X84485000Y-30356892D01*
X84485000Y-30285750D01*
X84326250Y-30127000D01*
X83127000Y-30127000D01*
X82873000Y-30127000D01*
X82853000Y-30127000D01*
X82853000Y-29873000D01*
X82873000Y-29873000D01*
X82873000Y-29853000D01*
X83127000Y-29853000D01*
X83127000Y-29873000D01*
X84326250Y-29873000D01*
X84485000Y-29714250D01*
X84485000Y-29584999D01*
X89505804Y-29584999D01*
X89478514Y-29643108D01*
X89478514Y-29643108D01*
G37*
X89478514Y-29643108D02*
X89599181Y-29873000D01*
X90793000Y-29873000D01*
X90793000Y-29853000D01*
X91047000Y-29853000D01*
X91047000Y-29873000D01*
X91067000Y-29873000D01*
X91067000Y-30127000D01*
X91047000Y-30127000D01*
X91047000Y-31320155D01*
X91276890Y-31441476D01*
X91686924Y-31271645D01*
X92115183Y-30881358D01*
X92176157Y-30751522D01*
X92389375Y-31070625D01*
X92880582Y-31398839D01*
X93313744Y-31485000D01*
X93606256Y-31485000D01*
X94039418Y-31398839D01*
X94530625Y-31070625D01*
X94730000Y-30772239D01*
X94929375Y-31070625D01*
X95420582Y-31398839D01*
X95853744Y-31485000D01*
X96146256Y-31485000D01*
X96579418Y-31398839D01*
X97070625Y-31070625D01*
X97270000Y-30772239D01*
X97469375Y-31070625D01*
X97960582Y-31398839D01*
X98056875Y-31417993D01*
X97609869Y-31865000D01*
X82861782Y-31865000D01*
X82749999Y-31842765D01*
X82366010Y-31919145D01*
X82307145Y-31930854D01*
X81994733Y-32139601D01*
X81595000Y-31739869D01*
X81595000Y-31169446D01*
X81611673Y-31209698D01*
X81790301Y-31388327D01*
X82023690Y-31485000D01*
X82714250Y-31485000D01*
X82873000Y-31326250D01*
X82873000Y-30127000D01*
X83127000Y-30127000D01*
X83127000Y-31326250D01*
X83285750Y-31485000D01*
X83976310Y-31485000D01*
X84209699Y-31388327D01*
X84388327Y-31209698D01*
X84485000Y-30976309D01*
X84485000Y-30356892D01*
X89478514Y-30356892D01*
X89724817Y-30881358D01*
X90153076Y-31271645D01*
X90563110Y-31441476D01*
X90793000Y-31320155D01*
X90793000Y-30127000D01*
X89599181Y-30127000D01*
X89478514Y-30356892D01*
X84485000Y-30356892D01*
X84485000Y-30285750D01*
X84326250Y-30127000D01*
X83127000Y-30127000D01*
X82873000Y-30127000D01*
X82853000Y-30127000D01*
X82853000Y-29873000D01*
X82873000Y-29873000D01*
X82873000Y-29853000D01*
X83127000Y-29853000D01*
X83127000Y-29873000D01*
X84326250Y-29873000D01*
X84485000Y-29714250D01*
X84485000Y-29584999D01*
X89505804Y-29584999D01*
X89478514Y-29643108D01*
G04 #@! TD*
M02*
