G04 #@! TF.GenerationSoftware,KiCad,Pcbnew,(5.0.0)*
G04 #@! TF.CreationDate,2019-08-08T11:48:33+10:00*
G04 #@! TF.ProjectId,couchmobile-electrical,636F7563686D6F62696C652D656C6563,rev?*
G04 #@! TF.SameCoordinates,Original*
G04 #@! TF.FileFunction,Soldermask,Bot*
G04 #@! TF.FilePolarity,Negative*
%FSLAX46Y46*%
G04 Gerber Fmt 4.6, Leading zero omitted, Abs format (unit mm)*
G04 Created by KiCad (PCBNEW (5.0.0)) date 08/08/19 11:48:33*
%MOMM*%
%LPD*%
G01*
G04 APERTURE LIST*
%ADD10C,1.800000*%
%ADD11R,3.100000X3.100000*%
%ADD12C,3.100000*%
%ADD13R,1.800000X1.800000*%
%ADD14O,1.800000X1.800000*%
%ADD15C,3.300000*%
%ADD16O,3.100000X4.100000*%
%ADD17R,1.624000X1.624000*%
%ADD18C,1.624000*%
%ADD19R,1.700000X1.700000*%
%ADD20O,1.700000X1.700000*%
%ADD21C,1.827200*%
%ADD22R,1.827200X1.827200*%
%ADD23C,1.950000*%
%ADD24O,1.827200X1.827200*%
G04 APERTURE END LIST*
D10*
G04 #@! TO.C,U2*
X102380000Y-78540000D03*
X99840000Y-78540000D03*
X97300000Y-78540000D03*
X94760000Y-78540000D03*
X92220000Y-78540000D03*
X89680000Y-78540000D03*
X87140000Y-78540000D03*
X84600000Y-78540000D03*
X102380000Y-98860000D03*
X99840000Y-98860000D03*
X92220000Y-98860000D03*
X97300000Y-98860000D03*
X84600000Y-98860000D03*
X94760000Y-98860000D03*
X87140000Y-98860000D03*
X89680000Y-98860000D03*
G04 #@! TD*
D11*
G04 #@! TO.C,J1*
X25000000Y-55000000D03*
D12*
X25000000Y-49920000D03*
G04 #@! TD*
D13*
G04 #@! TO.C,J2*
X114000000Y-82000000D03*
D14*
X116540000Y-82000000D03*
X114000000Y-84540000D03*
X116540000Y-84540000D03*
X114000000Y-87080000D03*
X116540000Y-87080000D03*
X114000000Y-89620000D03*
X116540000Y-89620000D03*
X114000000Y-92160000D03*
X116540000Y-92160000D03*
X114000000Y-94700000D03*
X116540000Y-94700000D03*
X114000000Y-97240000D03*
X116540000Y-97240000D03*
X114000000Y-99780000D03*
X116540000Y-99780000D03*
G04 #@! TD*
D13*
G04 #@! TO.C,J5*
X55000000Y-114540000D03*
D14*
X55000000Y-112000000D03*
G04 #@! TD*
D13*
G04 #@! TO.C,J6*
X71000000Y-79000000D03*
D14*
X73540000Y-79000000D03*
X71000000Y-81540000D03*
X73540000Y-81540000D03*
X71000000Y-84080000D03*
X73540000Y-84080000D03*
G04 #@! TD*
D13*
G04 #@! TO.C,J7*
X103080000Y-58000000D03*
D14*
X100540000Y-58000000D03*
X98000000Y-58000000D03*
X95460000Y-58000000D03*
X92920000Y-58000000D03*
X90380000Y-58000000D03*
G04 #@! TD*
D13*
G04 #@! TO.C,J8*
X103620000Y-30000000D03*
D14*
X101080000Y-30000000D03*
X98540000Y-30000000D03*
X96000000Y-30000000D03*
X93460000Y-30000000D03*
X90920000Y-30000000D03*
G04 #@! TD*
G04 #@! TO.C,J9*
X70300000Y-30000000D03*
X72840000Y-30000000D03*
X75380000Y-30000000D03*
X77920000Y-30000000D03*
X80460000Y-30000000D03*
D13*
X83000000Y-30000000D03*
G04 #@! TD*
D14*
G04 #@! TO.C,J10*
X61080000Y-30000000D03*
X58540000Y-30000000D03*
D13*
X56000000Y-30000000D03*
G04 #@! TD*
G04 #@! TO.C,J11*
X43000000Y-30000000D03*
D14*
X45540000Y-30000000D03*
X48080000Y-30000000D03*
G04 #@! TD*
D15*
G04 #@! TO.C,MH1*
X24000000Y-117000000D03*
G04 #@! TD*
G04 #@! TO.C,MH2*
X115000000Y-116000000D03*
G04 #@! TD*
D10*
G04 #@! TO.C,SW1*
X59500000Y-114500000D03*
X59500000Y-108000000D03*
X64000000Y-114500000D03*
X64000000Y-108000000D03*
G04 #@! TD*
G04 #@! TO.C,SW2*
X73500000Y-108000000D03*
X73500000Y-114500000D03*
X69000000Y-108000000D03*
X69000000Y-114500000D03*
G04 #@! TD*
D16*
G04 #@! TO.C,SW3*
X66000000Y-101000000D03*
X70700000Y-101000000D03*
X61300000Y-101000000D03*
G04 #@! TD*
D17*
G04 #@! TO.C,U1*
X23000000Y-98000000D03*
D18*
X25540000Y-98000000D03*
X23000000Y-100540000D03*
X25540000Y-100540000D03*
X23000000Y-103080000D03*
X25540000Y-103080000D03*
X23000000Y-105620000D03*
X25540000Y-105620000D03*
G04 #@! TD*
D19*
G04 #@! TO.C,U3*
X61000000Y-49000000D03*
D20*
X45760000Y-56620000D03*
X58460000Y-49000000D03*
X48300000Y-56620000D03*
X55920000Y-49000000D03*
X50840000Y-56620000D03*
X53380000Y-49000000D03*
X53380000Y-56620000D03*
X50840000Y-49000000D03*
X55920000Y-56620000D03*
X48300000Y-49000000D03*
X58460000Y-56620000D03*
X45760000Y-49000000D03*
X61000000Y-56620000D03*
G04 #@! TD*
D21*
G04 #@! TO.C,XA1*
X62370000Y-78380000D03*
X59830000Y-78380000D03*
X57290000Y-78380000D03*
X54750000Y-78380000D03*
X52210000Y-78380000D03*
X49670000Y-78380000D03*
X47130000Y-78380000D03*
X44590000Y-78380000D03*
X42050000Y-78380000D03*
X39510000Y-78380000D03*
X36970000Y-78380000D03*
X34430000Y-78380000D03*
X31890000Y-78380000D03*
X29350000Y-78380000D03*
X26810000Y-78380000D03*
X26810000Y-93620000D03*
X29350000Y-93620000D03*
X31890000Y-93620000D03*
X34430000Y-93620000D03*
X36970000Y-93620000D03*
X39510000Y-93620000D03*
X42050000Y-93620000D03*
X44590000Y-93620000D03*
X47130000Y-93620000D03*
X49670000Y-93620000D03*
X52210000Y-93620000D03*
X54750000Y-93620000D03*
X57290000Y-93620000D03*
X59830000Y-93620000D03*
D22*
X62370000Y-93620000D03*
D23*
X64910000Y-93620000D03*
X64910000Y-78380000D03*
X24270000Y-93620000D03*
X24270000Y-78380000D03*
G04 #@! TD*
D24*
G04 #@! TO.C,XA2*
X83627000Y-48600000D03*
X86167000Y-48600000D03*
X86167000Y-46060000D03*
X83627000Y-46060000D03*
X86167000Y-43520000D03*
X70800000Y-71460000D03*
X65720000Y-71460000D03*
X63180000Y-71460000D03*
X60640000Y-71460000D03*
X58100000Y-71460000D03*
X55560000Y-71460000D03*
X53020000Y-71460000D03*
X50480000Y-71460000D03*
X106360000Y-23200000D03*
X103820000Y-23200000D03*
X101280000Y-23200000D03*
X98740000Y-23200000D03*
X96200000Y-23200000D03*
X93660000Y-23200000D03*
X91120000Y-23200000D03*
X88580000Y-23200000D03*
X83500000Y-23200000D03*
X80960000Y-23200000D03*
X78420000Y-23200000D03*
X75880000Y-23200000D03*
X73340000Y-23200000D03*
X70800000Y-23200000D03*
X68260000Y-23200000D03*
X65720000Y-23200000D03*
X46416000Y-23200000D03*
X61656000Y-23200000D03*
X59116000Y-23200000D03*
X56576000Y-23200000D03*
D15*
X86040000Y-66380000D03*
X86040000Y-38440000D03*
X110170000Y-23200000D03*
X35240000Y-23200000D03*
X116520000Y-71460000D03*
X33970000Y-71460000D03*
D24*
X38796000Y-23200000D03*
X41336000Y-23200000D03*
X43876000Y-23200000D03*
X48956000Y-23200000D03*
X51496000Y-23200000D03*
X54036000Y-23200000D03*
X47940000Y-71460000D03*
X73340000Y-71460000D03*
X75880000Y-71460000D03*
X78420000Y-71460000D03*
X80960000Y-71460000D03*
X83500000Y-71460000D03*
X86040000Y-71460000D03*
X88580000Y-71460000D03*
X93660000Y-71460000D03*
X96200000Y-71460000D03*
X98740000Y-71460000D03*
X101280000Y-71460000D03*
X103820000Y-71460000D03*
X106360000Y-71460000D03*
X108900000Y-71460000D03*
X111440000Y-71460000D03*
X113980000Y-23200000D03*
X116520000Y-23200000D03*
X113980000Y-25740000D03*
X116520000Y-25740000D03*
X113980000Y-28280000D03*
X116520000Y-28280000D03*
X113980000Y-30820000D03*
X116520000Y-30820000D03*
X113980000Y-33360000D03*
X116520000Y-33360000D03*
X113980000Y-35900000D03*
X116520000Y-35900000D03*
X113980000Y-38440000D03*
X116520000Y-38440000D03*
X113980000Y-40980000D03*
X116520000Y-40980000D03*
X113980000Y-43520000D03*
X116520000Y-43520000D03*
X113980000Y-46060000D03*
X116520000Y-46060000D03*
X113980000Y-48600000D03*
X116520000Y-48600000D03*
X113980000Y-51140000D03*
X116520000Y-51140000D03*
X113980000Y-53680000D03*
X116520000Y-53680000D03*
X113980000Y-56220000D03*
X116520000Y-56220000D03*
X113980000Y-58760000D03*
X116520000Y-58760000D03*
X113980000Y-61300000D03*
X116520000Y-61300000D03*
X113980000Y-63840000D03*
X116520000Y-63840000D03*
X113980000Y-66380000D03*
X116520000Y-66380000D03*
X83627000Y-43520000D03*
G04 #@! TD*
M02*
